<svg width="35" height="35" viewBox="0 0 35 35" fill="none" xmlns="http://www.w3.org/2000/svg">
<path d="M24.1022 16.8582C24.2156 16.7341 24.2782 16.5719 24.2776 16.4038V15.2756C24.2775 15.1003 24.2304 14.9282 24.1412 14.7773C24.0521 14.6265 23.9242 14.5022 23.7708 14.4175L21.3755 13.0823C21.1703 12.6524 20.9651 12.1664 20.7582 11.7207C20.6908 11.5736 20.673 11.4086 20.7074 11.2504C20.8049 10.8187 20.8519 10.3771 20.8476 9.93446C20.8202 8.7071 20.4236 7.51652 19.7096 6.51818V3.98098H20.0603V2H15.8167V3.98098H16.2533V6.48485C15.5253 7.47817 15.1167 8.66976 15.082 9.90112C15.0757 10.3382 15.1205 10.7746 15.2152 11.2013C15.2565 11.3798 15.2302 11.5673 15.1416 11.7277L14.3893 13.0823L12.1097 14.414C11.9615 14.5003 11.8384 14.624 11.7529 14.7727C11.6673 14.9214 11.6223 15.0899 11.6222 15.2615V16.4301C11.6218 16.5827 11.6738 16.7307 11.7695 16.8495L12.2728 17.4759V29.6215L11.773 30.111C11.7178 30.1638 11.6738 30.2273 11.6437 30.2975C11.6136 30.3678 11.5979 30.4434 11.5977 30.5198V32.2236C11.598 32.3722 11.6558 32.5149 11.759 32.6219L12.6182 33.508H22.8853L23.9637 32.6307C24.0289 32.5765 24.0815 32.5087 24.1175 32.432C24.1536 32.3553 24.1723 32.2715 24.1724 32.1867V30.5163C24.173 30.3667 24.1143 30.2228 24.0093 30.1163L23.5288 29.625V17.4689L24.1022 16.8582Z" fill="#FFBBA5"/>
<path d="M12.0188 33.5075H22.2859L23.3625 32.6301C23.4283 32.5764 23.4813 32.5086 23.5177 32.4319C23.554 32.3551 23.5729 32.2712 23.573 32.1862V30.5158C23.5735 30.3661 23.5149 30.2223 23.4099 30.1157L22.9294 29.6244V17.4683L23.5011 16.8507C23.6152 16.7271 23.6779 16.5646 23.6764 16.3963V15.2751C23.6766 15.0999 23.6299 14.9279 23.5411 14.777C23.4522 14.6261 23.3246 14.5018 23.1714 14.417L20.769 13.0818C20.5621 12.6519 20.357 12.1658 20.1518 11.7202C20.0828 11.5735 20.0648 11.4079 20.1009 11.2499C20.1978 10.8181 20.2443 10.3765 20.2395 9.93394C20.2105 8.70602 19.8121 7.5154 19.0962 6.51767V3.98047H15.6539V6.48433C14.9251 7.47724 14.5164 8.66909 14.4826 9.9006C14.4767 10.3376 14.5208 10.7738 14.6141 11.2008C14.6569 11.3791 14.6312 11.5669 14.5422 11.7272L13.7899 13.0818L11.5103 14.4135C11.362 14.4998 11.239 14.6234 11.1535 14.7721C11.0679 14.9209 11.0229 15.0894 11.0228 15.261V16.4296C11.023 16.5823 11.0756 16.7304 11.1718 16.849L11.6751 17.4754V29.6209L11.1754 30.1105C11.1202 30.1634 11.0763 30.2269 11.0462 30.2971C11.0161 30.3673 11.0004 30.4429 11 30.5193V32.2231C11.0004 32.3717 11.0582 32.5144 11.1613 32.6214L12.0188 33.5075Z" stroke="#525252" stroke-width="0.5" stroke-miterlimit="10"/>
<path d="M13.8516 13.0879H20.8307" stroke="#525252" stroke-width="0.5" stroke-miterlimit="10"/>
<path d="M12.2402 17.2949H22.4354" stroke="#525252" stroke-width="0.5" stroke-miterlimit="10"/>
<path d="M12.998 28.2578H21.6764" stroke="#525252" stroke-width="0.5" stroke-miterlimit="10"/>
<path d="M19.4604 2H15.2168V3.98098H19.4604V2Z" stroke="#525252" stroke-width="0.5" stroke-miterlimit="10"/>
</svg>
