<svg width="35" height="35" viewBox="0 0 35 35" fill="none" xmlns="http://www.w3.org/2000/svg">
<path d="M32.1412 11.2529C32.1076 11.0702 31.9076 10.9937 31.7196 10.9937H26.8046C26.4978 10.1726 25.9447 9.46394 25.2196 8.96274C25.7734 8.15858 25.9701 7.17431 25.9896 5.64706C26.001 4.75318 25.7882 3.8274 25.566 3.14951C25.4727 2.86107 25.0618 2.86506 24.9369 3.14087C24.6771 3.71242 24.2495 4.57773 23.5942 5.70488C22.4308 7.70731 21.2485 8.08613 20.7497 8.17586L20.8007 8.18848H15.4367L15.4884 8.17586C14.9895 8.08613 13.81 7.70731 12.6438 5.70488C11.9893 4.57507 11.5609 3.71109 11.3011 3.14087C11.1763 2.86506 10.7641 2.86107 10.6721 3.14951C10.4526 3.8274 10.2364 4.75318 10.2478 5.64706C10.2673 7.17564 10.464 8.15858 11.0172 8.96274C10.2937 9.46422 9.74175 10.172 9.43478 10.9918H4.52118C4.3332 10.9918 4.13246 11.0682 4.0989 11.2516C3.93442 12.1468 5.65173 13.9532 6.70374 14.0077C7.87188 14.0682 8.31498 14.0329 9.14679 14.0077L9.16893 13.8469V25.6441C9.16903 26.7652 9.61288 27.8417 10.4053 28.6426C11.1977 29.4436 12.2756 29.9053 13.4078 29.9288C13.4289 30.2192 13.5602 30.4909 13.7755 30.6893C13.9907 30.8877 14.2738 30.998 14.5679 30.9981H21.6258C21.9197 30.998 22.2027 30.8877 22.4178 30.6895C22.6329 30.4912 22.7642 30.2196 22.7852 29.9294C23.9259 29.9182 25.0159 29.4618 25.8185 28.6594C26.621 27.8569 27.0712 26.7733 27.0711 25.6441V13.9864L27.0745 14.0097C27.911 14.0349 28.3501 14.0702 29.5263 14.0097C30.583 13.9552 32.3077 12.1475 32.1412 11.2529Z" fill="#FFBFBF"/>
<path d="M19.2871 13.4844L22.1047 15.7618" stroke="black" stroke-width="0.5"/>
<path d="M22.0156 13.4844L19.198 15.7618" stroke="black" stroke-width="0.5"/>
<path d="M13.5039 13.4844L16.3215 15.7618" stroke="black" stroke-width="0.5"/>
<path d="M16.2324 13.4844L13.4148 15.7618" stroke="black" stroke-width="0.5"/>
<rect x="8.95898" y="7.82031" width="17.5964" height="21.6851" rx="4.75" stroke="black" stroke-width="0.5"/>
<rect x="8.95898" y="19.8359" width="17.5964" height="9.66636" rx="4.75" stroke="black" stroke-width="0.5"/>
<path d="M13.2576 29.7461H22.2138C22.1039 30.1529 21.7322 30.4523 21.2906 30.4523H14.1808C13.7392 30.4523 13.3675 30.1529 13.2576 29.7461Z" stroke="black" stroke-width="0.5"/>
<rect x="11.8027" y="23.2852" width="4.28263" height="0.576945" rx="0.288473" stroke="black" stroke-width="0.5"/>
<rect x="19.3867" y="23.2852" width="4.28263" height="0.576945" rx="0.288473" stroke="black" stroke-width="0.5"/>
<path d="M21.3965 8.08065C21.8419 7.99459 22.7614 7.1266 23.7999 5.20873C24.2265 4.42093 24.5453 3.76692 24.7764 3.25822C24.9688 2.83473 25.5688 2.84919 25.6735 3.30239C25.842 4.03098 25.9865 4.90888 25.9781 5.62115C25.959 7.22552 25.7493 8.20473 25.1384 9.01613" stroke="black" stroke-width="0.5"/>
<path d="M14.8457 8.08065C14.391 7.99279 12.9846 7.23344 11.9244 5.27561C11.4816 4.45784 11.1526 3.78131 10.9158 3.25834C10.7239 2.83462 10.1237 2.84914 10.0181 3.30214C9.84349 4.05122 9.69215 4.96055 9.7009 5.69662C9.72039 7.33442 10.0124 8.18782 10.636 9.01613" stroke="black" stroke-width="0.5"/>
<path d="M9.23438 10.8867H4.31889C4.1731 10.8867 4.0168 10.9503 4.00202 11.0954C3.91883 11.9121 5.9856 13.6425 6.89567 13.6932C7.8936 13.7487 8.27033 13.7163 8.98233 13.6932" stroke="black" stroke-width="0.5"/>
<path d="M26.5002 11H26.1348H31.6846C31.8304 11 31.9872 11.0644 31.9985 11.2098C32.0594 11.9941 30.0991 13.6324 29.2337 13.6806C28.2805 13.7336 27.3173 13.7027 26.6372 13.6806" stroke="black" stroke-width="0.5"/>
</svg>
