<svg width="35" height="35" viewBox="0 0 35 35" fill="none" xmlns="http://www.w3.org/2000/svg">
<path d="M31.8159 31.4751L11.2469 10.9117L12.6818 9.4786C12.7407 9.42026 12.7876 9.3508 12.8195 9.27425C12.8515 9.19769 12.8679 9.11556 12.8679 9.03261C12.8679 8.94965 12.8515 8.86752 12.8195 8.79097C12.7876 8.71441 12.7407 8.64496 12.6818 8.58661L12.6193 8.52417C12.6555 8.54258 12.6928 8.55896 12.7308 8.57323C12.8357 8.60886 12.9446 8.63133 13.0549 8.64013C13.5516 8.66838 14.8273 7.73625 14.7306 6.44138C14.7172 6.25906 14.6786 6.07947 14.6161 5.90767C14.6149 5.90018 14.6108 5.89347 14.6047 5.88901C14.5986 5.88454 14.5909 5.8827 14.5834 5.88389C14.5759 5.88507 14.5692 5.88918 14.5647 5.89531C14.5603 5.90145 14.5584 5.9091 14.5596 5.91659C14.5737 6.05332 14.551 6.19132 14.4937 6.31628C14.4364 6.44124 14.3468 6.5486 14.234 6.62721C14.1545 6.68862 14.0614 6.73001 13.9626 6.74786C13.8637 6.76571 13.762 6.75951 13.666 6.72979C13.5714 6.68758 13.4876 6.62457 13.4207 6.54544C13.3434 6.46517 13.1338 6.26298 13.0579 6.1827C12.716 5.84672 12.8676 5.99538 12.0602 5.18516L10.4247 3.54985C10.2333 3.3439 9.96802 3.22228 9.68704 3.21169C9.40606 3.2011 9.13236 3.3024 8.92599 3.49336C8.78118 3.64515 8.68631 3.83764 8.65414 4.04494C8.62198 4.25224 8.65408 4.46441 8.74609 4.65294L8.69999 4.60685C8.64174 4.5477 8.57231 4.50073 8.49573 4.46866C8.41915 4.43659 8.33696 4.42008 8.25394 4.42008C8.17092 4.42008 8.08872 4.43659 8.01215 4.46866C7.93557 4.50073 7.86613 4.5477 7.80789 4.60685L6.37308 6.03998L6.07571 5.74265L5.48098 6.33731C5.23302 6.58566 5.09375 6.92224 5.09375 7.27316C5.09375 7.62408 5.23302 7.96066 5.48098 8.209L30.2815 33.0048C30.3594 33.0832 30.4521 33.1454 30.5541 33.1879C30.6562 33.2303 30.7657 33.2522 30.8762 33.2522C30.9868 33.2522 31.0962 33.2303 31.1983 33.1879C31.3003 33.1454 31.393 33.0832 31.4709 33.0048L31.8129 32.6629C31.8913 32.5852 31.9536 32.4928 31.9961 32.391C32.0387 32.2892 32.0608 32.1799 32.0611 32.0696C32.0613 31.9592 32.0398 31.8499 31.9977 31.7479C31.9557 31.6459 31.8939 31.5531 31.8159 31.4751V31.4751Z" fill="#E8E8E8"/>
<path d="M12.6566 8.43373C12.5467 8.42569 12.4383 8.40371 12.3339 8.36832C12.1711 8.30855 12.0223 8.21595 11.8968 8.09626L8.58113 4.78104C8.37515 4.58966 8.25353 4.32439 8.24294 4.04345C8.23235 3.7625 8.33365 3.48884 8.52463 3.28249V3.28249C8.73098 3.09172 9.00451 2.99041 9.28536 3.00072C9.56622 3.01102 9.83156 3.13211 10.0234 3.3375L11.6589 4.97281C12.4677 5.78155 12.3146 5.63437 12.658 5.97036C12.7339 6.05063 12.9435 6.25133 13.0208 6.3331C13.0877 6.41222 13.1716 6.47523 13.2662 6.51744C13.3619 6.54717 13.4634 6.55336 13.562 6.5355C13.6606 6.51765 13.7534 6.47626 13.8327 6.41486C13.9459 6.33665 14.036 6.22941 14.0936 6.10438C14.1511 5.97935 14.174 5.84114 14.1598 5.70424C14.1598 5.69756 14.1622 5.6911 14.1665 5.68602C14.1709 5.68093 14.1769 5.67756 14.1835 5.67648C14.1901 5.67541 14.1969 5.67672 14.2026 5.68017C14.2083 5.68362 14.2126 5.68899 14.2148 5.69533C14.2777 5.86658 14.3167 6.04566 14.3307 6.22754C14.4304 7.53134 13.1532 8.46346 12.6566 8.43373Z" stroke="#1E1E1E" stroke-width="0.5" stroke-linecap="round" stroke-linejoin="round"/>
<path d="M5.53906 5.67188L31.3467 31.4762C31.4861 31.6156 31.5644 31.8046 31.5644 32.0018C31.5644 32.1989 31.4861 32.388 31.3467 32.5274L30.8599 33.0141C30.7205 33.1535 30.5314 33.2318 30.3342 33.2318C30.1371 33.2318 29.948 33.1535 29.8085 33.0141L4.8231 8.03187C4.60505 7.81385 4.48255 7.51815 4.48255 7.20982C4.48255 6.90149 4.60504 6.60578 4.82309 6.38775L5.53906 5.67188V5.67188Z" stroke="#1E1E1E" stroke-width="0.5" stroke-linecap="round" stroke-linejoin="round"/>
<path d="M8.17702 4.40744L12.272 8.50193C12.3752 8.60509 12.4332 8.745 12.4332 8.89089C12.4332 9.03677 12.3752 9.17668 12.272 9.27984L10.7329 10.8188L5.86088 5.94747L7.40006 4.40848C7.50323 4.30533 7.64316 4.24738 7.78907 4.24738C7.93497 4.24738 8.0749 4.30533 8.17807 4.40849L8.17702 4.40744Z" stroke="#1E1E1E" stroke-width="0.5" stroke-linecap="round" stroke-linejoin="round"/>
<path d="M6.56055 6.65334L7.92696 5.28711" stroke="#1E1E1E" stroke-width="0.5" stroke-linecap="round" stroke-linejoin="round"/>
<path d="M7.42578 7.52053L8.79367 6.1543" stroke="#1E1E1E" stroke-width="0.5" stroke-linecap="round" stroke-linejoin="round"/>
<path d="M8.28906 8.39162L9.65548 7.02539" stroke="#1E1E1E" stroke-width="0.5" stroke-linecap="round" stroke-linejoin="round"/>
<path d="M9.1543 9.25881L10.5207 7.89258" stroke="#1E1E1E" stroke-width="0.5" stroke-linecap="round" stroke-linejoin="round"/>
<path d="M10.0156 10.1279L11.382 8.76172" stroke="#1E1E1E" stroke-width="0.5" stroke-linecap="round" stroke-linejoin="round"/>
</svg>
