<svg width="35" height="35" viewBox="0 0 35 35" fill="none" xmlns="http://www.w3.org/2000/svg">
<g style="mix-blend-mode:multiply">
<g style="mix-blend-mode:multiply">
<path d="M30.3925 16.9931C29.8324 16.9932 29.2854 16.8239 28.8232 16.5076C28.3611 16.1913 28.0054 15.7427 27.8029 15.2207C27.7806 15.1615 27.7457 15.1079 27.7007 15.0635C27.6556 15.0191 27.6014 14.9851 27.5419 14.9638C27.4824 14.9425 27.4189 14.9343 27.3559 14.94C27.2929 14.9456 27.2319 14.9649 27.1771 14.9965C26.4118 15.4594 25.5192 15.6674 24.6281 15.5905C23.7369 15.5136 22.8931 15.1558 22.2185 14.5687C21.5438 13.9815 21.0731 13.1954 20.8741 12.3235C20.6752 11.4517 20.7583 10.5392 21.1115 9.71765C21.1573 9.61322 21.1606 9.495 21.1204 9.38823C21.0803 9.28147 20.9999 9.19463 20.8966 9.14628C20.5547 8.98696 20.2489 8.75968 19.9978 8.4783C19.7466 8.19693 19.5555 7.86737 19.4359 7.50971C19.3164 7.15205 19.2709 6.77379 19.3024 6.39801C19.3339 6.02222 19.4416 5.65679 19.619 5.324C19.6372 5.29246 19.6469 5.25672 19.647 5.2203C19.6471 5.18389 19.6376 5.14809 19.6196 5.11646C19.6016 5.08483 19.5756 5.05846 19.5442 5.04C19.5128 5.02153 19.4771 5.01161 19.4407 5.01121C19.2989 5.01121 19.156 5.00391 19.012 5.00391C16.4858 5.0037 14.0161 5.75245 11.9155 7.15546C9.8149 8.55847 8.17762 10.5527 7.21075 12.886C6.24389 15.2193 5.99085 17.7868 6.48366 20.2639C6.97646 22.741 8.19297 25.0163 9.97933 26.8021C11.7657 28.588 14.0417 29.8042 16.5194 30.2968C18.9972 30.7895 21.5654 30.5365 23.8994 29.5699C26.2333 28.6033 28.2282 26.9665 29.6316 24.8665C31.035 22.7665 31.7839 20.2976 31.7837 17.772C31.7837 17.4988 31.775 17.2277 31.7576 16.9587C31.7563 16.925 31.7468 16.8921 31.7299 16.8629C31.713 16.8337 31.6893 16.809 31.6608 16.791C31.6323 16.7729 31.5998 16.7621 31.5662 16.7593C31.5326 16.7566 31.4988 16.762 31.4677 16.7752C31.1275 16.9192 30.7619 16.9933 30.3925 16.9931V16.9931Z" fill="#E4FFA9"/>
</g>
</g>
<path d="M29.161 16.9911C28.6008 16.9911 28.0538 16.8218 27.5915 16.5055C27.1293 16.1891 26.7736 15.7404 26.571 15.2183C26.5488 15.1591 26.5139 15.1055 26.4688 15.0611C26.4237 15.0168 26.3695 14.9827 26.31 14.9614C26.2505 14.9401 26.187 14.932 26.124 14.9376C26.061 14.9433 26 14.9625 25.9452 14.9941C25.1798 15.4574 24.287 15.6657 23.3956 15.589C22.5042 15.5122 21.6602 15.1543 20.9854 14.5669C20.3106 13.9795 19.8398 13.1931 19.6411 12.3209C19.4424 11.4488 19.5259 10.5361 19.8796 9.71446C19.9253 9.60999 19.9283 9.49185 19.8882 9.38514C19.8481 9.27844 19.7679 9.19158 19.6648 9.14301C19.3225 8.98401 19.0163 8.75689 18.7649 8.47552C18.5134 8.19416 18.3221 7.86447 18.2025 7.50663C18.0829 7.1488 18.0375 6.77033 18.0693 6.39438C18.101 6.01842 18.2091 5.65289 18.387 5.32014C18.4052 5.28853 18.4149 5.25268 18.4149 5.21617C18.415 5.17967 18.4055 5.14379 18.3873 5.11212C18.3691 5.08045 18.343 5.05411 18.3114 5.03571C18.2799 5.01732 18.2441 5.00752 18.2076 5.0073C18.0657 5.0073 17.9228 5 17.7789 5C15.2522 4.99918 12.782 5.74743 10.6807 7.15014C8.57942 8.55285 6.94141 10.547 5.97382 12.8804C5.00623 15.2138 4.75253 17.7817 5.24481 20.2593C5.73708 22.7368 6.95322 25.0128 8.73941 26.7994C10.5256 28.5859 12.8016 29.8028 15.2797 30.2962C17.7577 30.7895 20.3264 30.5372 22.6609 29.571C24.9955 28.6048 26.991 26.9683 28.3951 24.8683C29.7993 22.7682 30.5489 20.2991 30.5494 17.7732C30.5494 17.4999 30.5403 17.2288 30.5222 16.9598C30.5209 16.9261 30.5113 16.8932 30.4945 16.864C30.4776 16.8348 30.4539 16.8101 30.4254 16.792C30.3969 16.774 30.3644 16.7631 30.3308 16.7604C30.2971 16.7576 30.2633 16.7631 30.2323 16.7763C29.8931 16.9186 29.5289 16.9917 29.161 16.9911Z" stroke="black" stroke-width="0.5" stroke-miterlimit="10"/>
<path d="M9.31149 17.2812C10.1415 17.2812 10.8144 16.5939 10.8144 15.7461C10.8144 14.8982 10.1415 14.2109 9.31149 14.2109C8.48146 14.2109 7.80859 14.8982 7.80859 15.7461C7.80859 16.5939 8.48146 17.2812 9.31149 17.2812Z" stroke="black" stroke-width="0.5" stroke-miterlimit="10"/>
<path d="M23.6872 22.246C24.2285 22.246 24.6673 21.8219 24.6673 21.2988C24.6673 20.7756 24.2285 20.3516 23.6872 20.3516C23.1459 20.3516 22.707 20.7756 22.707 21.2988C22.707 21.8219 23.1459 22.246 23.6872 22.246Z" stroke="black" stroke-width="0.5" stroke-miterlimit="10"/>
<path d="M14.0169 25.5127C14.7026 25.5127 15.2584 24.9717 15.2584 24.3042C15.2584 23.6368 14.7026 23.0957 14.0169 23.0957C13.3312 23.0957 12.7754 23.6368 12.7754 24.3042C12.7754 24.9717 13.3312 25.5127 14.0169 25.5127Z" stroke="black" stroke-width="0.5" stroke-miterlimit="10"/>
<path d="M16.469 19.8925C16.9923 19.8925 17.4164 19.4684 17.4164 18.9453C17.4164 18.4221 16.9923 17.998 16.469 17.998C15.9457 17.998 15.5215 18.4221 15.5215 18.9453C15.5215 19.4684 15.9457 19.8925 16.469 19.8925Z" stroke="black" stroke-width="0.5" stroke-miterlimit="10"/>
<path d="M14.8008 13.0359C15.1978 13.0359 15.5196 12.7288 15.5196 12.35C15.5196 11.9712 15.1978 11.6641 14.8008 11.6641C14.4038 11.6641 14.082 11.9712 14.082 12.35C14.082 12.7288 14.4038 13.0359 14.8008 13.0359Z" stroke="black" stroke-width="0.5" stroke-miterlimit="10"/>
</svg>
