<svg width="35" height="35" viewBox="0 0 35 35" fill="none" xmlns="http://www.w3.org/2000/svg">
<path d="M24.7409 5.15039H20.3657C20.2404 5.59921 20.0083 6.01104 19.6892 6.35069C19.3701 6.69035 18.9735 6.94774 18.5333 7.10087C18.0931 7.25401 17.6223 7.29835 17.1612 7.23009C16.7002 7.16184 16.2625 6.98303 15.8855 6.70893C15.6717 7.24643 15.3015 7.70741 14.8227 8.03223C14.3439 8.35704 13.7787 8.53075 13.2001 8.53088C13.1046 8.53088 13.0187 8.5261 12.929 8.51751C13.1417 9.15842 13.123 9.85358 12.8762 10.4822C12.6294 11.1107 12.1701 11.633 11.5781 11.9581V30.63C11.5781 30.768 11.6329 30.9003 11.7305 30.9978C11.8281 31.0954 11.9604 31.1502 12.0984 31.1502H24.7409C24.8789 31.1502 25.0112 31.0954 25.1088 30.9978C25.2064 30.9003 25.2612 30.768 25.2612 30.63V5.66768C25.2602 5.5303 25.205 5.39888 25.1075 5.302C25.0101 5.20513 24.8783 5.15064 24.7409 5.15039Z" fill="#D4A9FF"/>
<path d="M15.5 6.69531V17.4581" stroke="#232323" stroke-width="0.5" stroke-linecap="round" stroke-linejoin="round"/>
<path d="M12.459 9.77344H24.6767" stroke="#232323" stroke-width="0.5" stroke-linecap="round" stroke-linejoin="round"/>
<path d="M11.0312 14.5059H24.6609" stroke="#232323" stroke-width="0.5" stroke-linecap="round" stroke-linejoin="round"/>
<path d="M20.416 5.0918V15.9042" stroke="#232323" stroke-width="0.5" stroke-linecap="round" stroke-linejoin="round"/>
<path d="M11 18.9117L24.6716 14.5605L23.1795 19.2753C23.1135 19.4847 22.9777 19.6652 22.7948 19.7867C22.6119 19.9083 22.3929 19.9636 22.1742 19.9434L11 18.9117Z" stroke="#232323" stroke-width="0.5" stroke-linecap="round" stroke-linejoin="round"/>
<path d="M24.1667 5H19.7915C19.6662 5.44882 19.4341 5.86065 19.115 6.2003C18.7959 6.53996 18.3993 6.79734 17.9591 6.95048C17.5188 7.10362 17.0481 7.14796 16.587 7.0797C16.1259 7.01145 15.6882 6.83264 15.3113 6.55854C15.0975 7.09604 14.7272 7.55702 14.2485 7.88184C13.7697 8.20665 13.2045 8.38036 12.6259 8.38049C12.5304 8.38049 12.4445 8.37571 12.3547 8.36712C12.5674 9.00803 12.5488 9.70319 12.302 10.3318C12.0552 10.9603 11.5959 11.4826 11.0039 11.8077V30.4796C11.0039 30.6176 11.0587 30.7499 11.1563 30.8474C11.2539 30.945 11.3862 30.9998 11.5242 30.9998H24.1667C24.3047 30.9998 24.437 30.945 24.5346 30.8474C24.6322 30.7499 24.687 30.6176 24.687 30.4796V5.51729C24.686 5.37991 24.6307 5.24849 24.5333 5.15161C24.4359 5.05474 24.3041 5.00025 24.1667 5Z" stroke="#232323" stroke-width="0.5" stroke-miterlimit="10" stroke-linecap="round" stroke-linejoin="round"/>
</svg>
