<svg width="35" height="35" viewBox="0 0 35 35" fill="none" xmlns="http://www.w3.org/2000/svg">
<path d="M18.2623 14.0562C18.2623 17.9522 15.9314 21.1125 13.0564 21.1125C10.1814 21.1125 7.84961 17.9531 7.84961 14.0562C7.84961 10.1594 10.1805 7 13.0564 7C15.9069 7 18.2234 10.1059 18.2623 13.9575V14.0562Z" fill="#A9DBFF"/>
<path d="M13.0597 16.4209C14.0236 16.4209 14.805 15.3622 14.805 14.0562C14.805 12.7501 14.0236 11.6914 13.0597 11.6914C12.0959 11.6914 11.3145 12.7501 11.3145 14.0562C11.3145 15.3622 12.0959 16.4209 13.0597 16.4209Z" fill="#A9DBFF"/>
<path d="M18.2369 14.268V29.7885H29.4381V13.2261C29.491 12.2929 29.3364 11.3596 28.9855 10.4934C28.1472 8.43763 26.4508 7.47451 25.9185 7.19727H14.2539" fill="#A9DBFF"/>
<path d="M17.4128 14.0562C17.4128 17.9522 15.0819 21.1125 12.2069 21.1125C9.33189 21.1125 7 17.9531 7 14.0562C7 10.1594 9.33099 7 12.2069 7C15.0574 7 17.3729 10.1059 17.4128 13.9575V14.0562Z" stroke="black" stroke-width="0.5" stroke-miterlimit="10"/>
<path d="M12.2062 16.4209C13.1701 16.4209 13.9514 15.3622 13.9514 14.0562C13.9514 12.7501 13.1701 11.6914 12.2062 11.6914C11.2423 11.6914 10.4609 12.7501 10.4609 14.0562C10.4609 15.3622 11.2423 16.4209 12.2062 16.4209Z" stroke="black" stroke-width="0.5" stroke-miterlimit="10"/>
<path d="M17.3853 14.268V29.7885H28.5865V13.2261C28.6394 12.2929 28.4848 11.3596 28.1339 10.4934C27.2957 8.43763 25.5993 7.47451 25.067 7.19727H13.4023" stroke="black" stroke-width="0.5" stroke-miterlimit="10"/>
<path d="M13.9531 20.7168H17.3866" stroke="black" stroke-width="0.5" stroke-miterlimit="10"/>
</svg>
