<svg width="35" height="35" viewBox="0 0 35 35" fill="none" xmlns="http://www.w3.org/2000/svg">
<path d="M32.667 19.2942L31.0245 16.6612C30.8791 16.4366 30.6595 16.2702 30.4039 16.1909C30.1483 16.1116 29.8729 16.1244 29.6258 16.2272C29.8525 15.9944 30.0228 15.7128 30.1237 15.404C30.2246 15.0952 30.2534 14.7674 30.2079 14.4458C30.1623 14.1241 30.0437 13.8172 29.8611 13.5485C29.6784 13.2797 29.4366 13.0564 29.1542 12.8955L26.4747 11.3691C26.2267 11.2279 25.9528 11.1381 25.6693 11.1047C25.3858 11.0714 25.0985 11.0953 24.8244 11.175C24.5503 11.2548 24.2951 11.3887 24.0738 11.5689C23.8525 11.749 23.6697 11.9718 23.5363 12.2239L23.7318 11.5674C23.8534 11.1585 23.8781 10.7269 23.804 10.3068C23.7299 9.88662 23.5591 9.48946 23.3049 9.14666C23.0508 8.80387 22.7204 8.52482 22.3397 8.33159C21.9591 8.13836 21.5387 8.03624 21.1117 8.03329L17.1263 8.00007C16.7113 7.99721 16.3011 8.0881 15.9263 8.26595C15.5515 8.44381 15.2217 8.70402 14.9617 9.02714C14.7017 9.35025 14.5182 9.72791 14.4248 10.1319C14.3315 10.5359 14.3307 10.9557 14.4226 11.36L14.5546 12.533C14.4755 12.2221 14.3271 11.9332 14.1204 11.6877C13.9138 11.4422 13.6544 11.2466 13.3614 11.1154C13.0685 10.9842 12.7496 10.9208 12.4288 10.9301C12.1079 10.9393 11.7932 11.0209 11.5083 11.1687L8.77141 12.5894C8.48407 12.7391 8.23472 12.9524 8.04235 13.2129C7.84999 13.4735 7.7197 13.7745 7.66139 14.093C7.60308 14.4115 7.61828 14.7391 7.70587 15.0509C7.79346 15.3626 7.9511 15.6503 8.16679 15.8919C7.92044 15.7668 7.63717 15.7348 7.36907 15.8018C7.10097 15.8687 6.86609 16.0302 6.70764 16.2564L4.97339 18.829C4.35164 19.7513 4.82727 21.0441 5.92567 21.4076L5.96901 21.4227C5.73004 22.1222 5.64848 22.8659 5.73018 23.6006C5.80172 24.2117 5.97908 25.7432 7.21855 26.4631C7.3032 26.5124 8.43384 27.1447 9.53627 26.6332C10.1983 26.3312 10.5178 25.7613 10.6901 25.4572C10.9888 24.9247 11.1319 24.3191 11.1032 23.7093C11.0909 23.4967 11.0571 23.2859 11.0025 23.08C11.3144 23.1302 11.6343 23.0893 11.9235 22.9622C12.2127 22.8351 12.459 22.6272 12.6328 22.3635C12.8065 22.0998 12.9003 21.7915 12.9028 21.4758C12.9054 21.1601 12.8165 20.8504 12.6471 20.584C12.9661 20.8408 13.3525 21.0002 13.76 21.043C14.1675 21.0858 14.5786 21.0101 14.9441 20.8251C15.3096 20.6401 15.6139 20.3537 15.8205 20.0001C16.027 19.6466 16.127 19.241 16.1085 18.832L16.1448 18.9941C16.2791 19.5874 16.6065 20.1195 17.0756 20.5071C17.5448 20.8947 18.1293 21.116 18.7378 21.1364C19.3462 21.1567 19.9442 20.975 20.4383 20.6197C20.9324 20.2643 21.2947 19.7553 21.4684 19.1723L21.5793 18.7988C21.5345 19.2091 21.6102 19.6236 21.7971 19.9918C21.984 20.3599 22.274 20.6658 22.6319 20.8721C22.9897 21.0784 23.3999 21.1762 23.8124 21.1537C24.2249 21.1311 24.6219 20.9891 24.9551 20.7451C24.7692 21.0041 24.6629 21.3116 24.6492 21.63C24.6354 21.9484 24.7147 22.2639 24.8775 22.538C25.0403 22.812 25.2795 23.0328 25.5659 23.1732C25.8522 23.3136 26.1733 23.3677 26.4898 23.3287C26.4302 23.5327 26.3911 23.7422 26.3729 23.954C26.3226 24.5624 26.4437 25.1728 26.7226 25.716C26.8849 26.0261 27.1841 26.602 27.8311 26.9323C28.9154 27.482 30.0682 26.89 30.1549 26.8437C31.4185 26.1681 31.6503 24.6437 31.743 24.0355C31.8507 23.3042 31.7953 22.5581 31.5807 21.8506L31.6251 21.8365C32.7346 21.5073 33.2555 20.2376 32.667 19.2942Z" fill="#FFECBB"/>
<path d="M20.3381 8.03693L16.3887 8.00399C15.9776 8.00069 15.5711 8.09029 15.1995 8.2661C14.8279 8.44191 14.5009 8.69938 14.2429 9.01926C13.9849 9.33915 13.8025 9.71318 13.7095 10.1134C13.6164 10.5136 13.6151 10.9297 13.7055 11.3305L15.4141 18.8978C15.5503 19.5015 15.888 20.0408 16.3717 20.4272C16.8553 20.8136 17.4562 21.0239 18.0753 21.0237V21.0237C18.6631 21.0239 19.2351 20.8342 19.7063 20.483C20.1774 20.1317 20.5223 19.6377 20.6896 19.0745L22.9304 11.5391C23.0506 11.1342 23.075 10.7068 23.0018 10.2908C22.9285 9.87475 22.7595 9.48143 22.5081 9.14184C22.2568 8.80225 21.9299 8.52567 21.5533 8.33393C21.1767 8.14218 20.7607 8.04051 20.3381 8.03693V8.03693Z" stroke="#232323" stroke-width="0.5" stroke-linecap="round" stroke-linejoin="round"/>
<path d="M28.3603 12.8526L25.7071 11.3395C25.4307 11.182 25.1223 11.089 24.8048 11.0674C24.4874 11.0458 24.1692 11.0962 23.874 11.2148C23.5788 11.3334 23.3142 11.5172 23.1001 11.7524C22.886 11.9877 22.7279 12.2682 22.6375 12.5731L20.9329 18.3289C20.7966 18.788 20.8207 19.2798 21.0013 19.7233C21.1819 20.1668 21.5082 20.5357 21.9265 20.7692V20.7692C22.3233 20.9913 22.7815 21.0793 23.2325 21.02C23.6834 20.9606 24.1031 20.7571 24.4289 20.4398L28.7897 16.1961C29.024 15.9679 29.202 15.6884 29.3096 15.3797C29.4173 15.071 29.4516 14.7415 29.41 14.4172C29.3683 14.0929 29.2518 13.7828 29.0696 13.5112C28.8875 13.2397 28.6447 13.0142 28.3603 12.8526V12.8526Z" stroke="#232323" stroke-width="0.5" stroke-linecap="round" stroke-linejoin="round"/>
<path d="M31.9037 19.2474L30.2833 16.6341C29.9021 16.0201 29.0242 15.938 28.4873 16.4648L24.4796 20.401C24.2011 20.6642 24.0216 21.0151 23.971 21.3948C23.9204 21.7746 24.0018 22.1602 24.2016 22.4872V22.4872C24.4001 22.7916 24.6926 23.023 25.0346 23.1462C25.3767 23.2693 25.7496 23.2774 26.0967 23.1692L30.8688 21.7657C31.9658 21.4423 32.4843 20.1841 31.9037 19.2474Z" stroke="#232323" stroke-width="0.5" stroke-linecap="round" stroke-linejoin="round"/>
<path d="M30.8134 21.8239C31.0299 22.5336 31.0852 23.2826 30.9755 24.0164C30.8819 24.6176 30.6492 26.1296 29.3955 26.7961C29.3096 26.8411 28.1658 27.4242 27.092 26.8775C26.4479 26.5482 26.1527 25.9772 25.9935 25.6694C25.7187 25.1304 25.6005 24.5252 25.6523 23.9224C25.671 23.7075 25.7118 23.4951 25.7741 23.2886" stroke="#232323" stroke-width="0.5" stroke-linecap="round" stroke-linejoin="round"/>
<path d="M8.10468 12.5461L10.8168 11.1378C11.0991 10.9913 11.4109 10.9104 11.7289 10.9013C12.0469 10.8921 12.3628 10.9549 12.6531 11.085C12.9434 11.215 13.2005 11.4089 13.4053 11.6523C13.61 11.8956 13.7571 12.182 13.8355 12.4902L15.3154 18.3089C15.4325 18.7722 15.3887 19.2616 15.1911 19.6968C14.9935 20.132 14.654 20.4872 14.228 20.7042V20.7042C13.8226 20.9107 13.3612 20.9807 12.9127 20.9037C12.4643 20.8267 12.0527 20.6069 11.7395 20.2771L7.54547 15.8676C7.3212 15.6303 7.15505 15.3443 7.06005 15.032C6.96506 14.7197 6.94384 14.3896 6.99803 14.0677C7.05223 13.7459 7.18036 13.4409 7.37238 13.1769C7.5644 12.9128 7.81507 12.6969 8.10468 12.5461Z" stroke="#232323" stroke-width="0.5" stroke-linecap="round" stroke-linejoin="round"/>
<path d="M4.33405 18.8835L6.04527 16.3274C6.44658 15.7273 7.32751 15.6756 7.84515 16.2208L11.7172 20.2943C11.987 20.5679 12.1545 20.9259 12.1917 21.3082C12.2289 21.6906 12.1336 22.0741 11.9216 22.3946V22.3946C11.7126 22.692 11.4122 22.9131 11.066 23.0241C10.7199 23.1352 10.3469 23.1303 10.0038 23.0101L5.28355 21.4406C4.19511 21.0739 3.71979 19.7989 4.33405 18.8835Z" stroke="#232323" stroke-width="0.5" stroke-linecap="round" stroke-linejoin="round"/>
<path d="M5.30356 21.4905C5.05848 22.1898 4.97283 22.935 5.05286 23.6715C5.12121 24.2783 5.29305 25.7962 6.5183 26.5133C6.60195 26.5624 7.72051 27.1938 8.81126 26.6895C9.46831 26.3867 9.78632 25.8277 9.95786 25.5266C10.3682 24.8083 10.4601 23.9115 10.254 23.1105" stroke="#232323" stroke-width="0.5" stroke-linecap="round" stroke-linejoin="round"/>
</svg>
