<svg width="35" height="35" viewBox="0 0 35 35" fill="none" xmlns="http://www.w3.org/2000/svg">
<path d="M29.851 29.1459C28.5623 30.4345 27.5315 27.8985 25.7094 27.8985C23.8873 27.8985 23.9053 29.3598 22.0858 29.3598C20.2662 29.3598 20.2817 27.8985 18.4596 27.8985C16.6375 27.8985 16.6555 29.3598 14.836 29.3598C13.0165 29.3598 13.032 27.8985 11.2099 27.8985C9.38776 27.8985 8.34912 30.4293 7.06824 29.1459C5.78736 27.8624 8.31561 26.8264 8.31561 25.0043C8.31561 23.1822 6.85434 23.2002 6.85434 21.3807C6.85434 19.5612 8.31561 19.5766 8.31561 17.7571C8.31561 15.9376 6.85434 15.953 6.85434 14.1335C6.85434 12.314 8.31561 12.3294 8.31561 10.5073C8.31561 8.68525 5.78478 7.64662 7.06824 6.36316C8.3517 5.0797 9.38776 7.61054 11.2099 7.61054C13.032 7.61054 13.0139 6.14925 14.8334 6.14925C16.653 6.14925 16.6375 7.61054 18.457 7.61054C20.2766 7.61054 20.2611 6.14925 22.0806 6.14925C23.9001 6.14925 23.8847 7.61054 25.7068 7.61054C27.5289 7.61054 28.5675 5.08228 29.851 6.36316C31.1344 7.64404 28.6036 8.68267 28.6036 10.5048C28.6036 12.3269 30.0649 12.3088 30.0649 14.1284C30.0649 15.9479 28.6036 15.9324 28.6036 17.7545C28.6036 19.5766 30.0649 19.5586 30.0649 21.3781C30.0649 23.1976 28.1448 23.4399 28.6294 25.1976C29.2195 27.3444 31.1396 27.8624 29.851 29.1459Z" fill="#FFFB94"/>
<path d="M29.1459 29.1459C27.8573 30.4345 26.8264 27.8985 25.0043 27.8985C23.1822 27.8985 23.2002 29.3598 21.3807 29.3598C19.5612 29.3598 19.5766 27.8985 17.7571 27.8985C15.9376 27.8985 15.953 29.3598 14.1335 29.3598C12.314 29.3598 12.3294 27.8985 10.5073 27.8985C8.68523 27.8985 7.64662 30.4293 6.36316 29.1459C5.0797 27.8624 7.61053 26.8264 7.61053 25.0043C7.61053 23.1822 6.14926 23.2002 6.14926 21.3807C6.14926 19.5612 7.61053 19.5766 7.61053 17.7571C7.61053 15.9376 6.14926 15.953 6.14926 14.1335C6.14926 12.314 7.61053 12.3294 7.61053 10.5073C7.61053 8.68525 5.08228 7.64662 6.36316 6.36316C7.64404 5.0797 8.68269 7.61054 10.5048 7.61054C12.3269 7.61054 12.3088 6.14925 14.1284 6.14925C15.9479 6.14925 15.9324 7.61054 17.7545 7.61054C19.5766 7.61054 19.5586 6.14925 21.3781 6.14925C23.1976 6.14925 23.1822 7.61054 25.0043 7.61054C26.8264 7.61054 27.865 5.08228 29.1459 6.36316C30.4268 7.64404 27.8985 8.68267 27.8985 10.5048C27.8985 12.3269 29.3598 12.3088 29.3598 14.1284C29.3598 15.9479 27.8985 15.9324 27.8985 17.7545C27.8985 19.5766 29.3598 19.5586 29.3598 21.3781C29.3598 23.1976 27.4423 23.4399 27.9269 25.1976C28.5222 27.3444 30.4293 27.8624 29.1459 29.1459Z" stroke="black" stroke-width="0.5" stroke-linecap="round" stroke-linejoin="round"/>
<path d="M24.4927 10.4102H11.0138C10.6794 10.4102 10.4082 10.6813 10.4082 11.0158V24.4947C10.4082 24.8292 10.6794 25.1004 11.0138 25.1004H24.4927C24.8272 25.1004 25.0984 24.8292 25.0984 24.4947V11.0158C25.0984 10.6813 24.8272 10.4102 24.4927 10.4102Z" stroke="black" stroke-width="0.5" stroke-linecap="round" stroke-linejoin="round"/>
</svg>
