<svg width="35" height="35" viewBox="0 0 35 35" fill="none" xmlns="http://www.w3.org/2000/svg">
<path d="M29.1192 10.4002C29.1203 9.06577 28.7039 7.76439 27.9286 6.67843C27.1532 5.59247 26.0576 4.77632 24.7953 4.34434C23.533 3.91236 22.1672 3.88617 20.8893 4.26946C19.6114 4.65275 18.4854 5.4263 17.669 6.48175C16.799 5.62913 15.6578 5.10849 14.4438 5.01035C13.2297 4.91222 12.0198 5.24281 11.0242 5.94463C10.0286 6.64645 9.31047 7.67511 8.99462 8.85171C8.67877 10.0283 8.7852 11.2784 9.2954 12.3847C8.75203 12.6366 8.2646 12.9948 7.8618 13.4381C7.45899 13.8814 7.14898 14.4009 6.95005 14.966C6.75113 15.531 6.66731 16.1302 6.70352 16.7281C6.73974 17.3261 6.89526 17.9108 7.16092 18.4477C7.42658 18.9846 7.79701 19.4628 8.25037 19.8543C8.70373 20.2457 9.23082 20.5424 9.80062 20.7269C10.3704 20.9114 10.9714 20.9799 11.5681 20.9284C12.1648 20.8769 12.7451 20.7064 13.2749 20.4271C13.837 21.1362 14.3313 21.8967 14.7512 22.6983C15.457 24.0444 15.9399 25.496 16.181 26.9967C16.4106 28.4832 16.3896 29.9976 16.119 31.4772H19.6064C19.5346 30.7179 19.5346 29.9535 19.6064 29.1943C19.9214 26.3366 21.1078 23.6452 23.0047 21.4852C23.875 21.818 24.8331 21.8424 25.7193 21.5545C26.6055 21.2666 27.3663 20.6837 27.8751 19.9029C28.3839 19.1221 28.6099 18.1905 28.5154 17.2633C28.421 16.3361 28.0119 15.4692 27.3561 14.8071C28.49 13.6205 29.1216 12.0416 29.1192 10.4002V10.4002ZM15.6734 19.7333C15.4836 19.3806 15.2859 19.0589 15.0844 18.7605L15.1077 18.7217C15.7522 19.4961 16.6306 20.0401 17.6109 20.2721C17.3745 21.1635 17.1342 22.0588 16.8979 22.9541C16.6408 21.829 16.2287 20.745 15.6734 19.7333V19.7333ZM19.1608 24.5277L19.0407 20.369C19.7143 20.311 20.3667 20.1045 20.951 19.7643C21.0376 19.9098 21.1333 20.0496 21.2377 20.1829L19.1608 24.5277Z" fill="#ABFFA9"/>
<path d="M28.2975 10.3723C28.2986 9.04368 27.883 7.74798 27.1089 6.66675C26.3348 5.58552 25.241 4.77294 23.9808 4.34284C22.7206 3.91274 21.3571 3.88667 20.0813 4.26829C18.8055 4.6499 17.6814 5.42008 16.8663 6.47093C15.9988 5.6193 14.859 5.09856 13.6459 4.99958C12.4328 4.9006 11.2233 5.22965 10.2286 5.92933C9.23381 6.62901 8.51689 7.6549 8.20291 8.82799C7.88893 10.0011 7.99779 11.2469 8.51054 12.3481C7.8849 12.6531 7.33926 13.0995 6.91696 13.6519C6.49467 14.2042 6.20738 14.8472 6.07797 15.5298C5.94856 16.2123 5.98058 16.9156 6.17149 17.5836C6.36241 18.2516 6.70694 18.866 7.1777 19.3779C7.64845 19.8897 8.23243 20.285 8.88321 20.5321C9.53399 20.7793 10.2336 20.8716 10.9264 20.8016C11.6192 20.7317 12.2861 20.5015 12.8741 20.1293C13.462 19.757 13.9548 19.2531 14.3132 18.6575C15.0079 19.4934 15.9773 20.0565 17.0489 20.2465C18.1206 20.4366 19.2251 20.2414 20.1661 19.6956C20.4602 20.191 20.8566 20.6183 21.3289 20.9491C21.8013 21.28 22.3387 21.5069 22.9057 21.6147C23.4726 21.7225 24.0561 21.7087 24.6173 21.5744C25.1785 21.44 25.7047 21.1881 26.1608 20.8354C26.617 20.4826 26.9927 20.0372 27.2631 19.5285C27.5335 19.0198 27.6923 18.4596 27.729 17.885C27.7657 17.3105 27.6795 16.7347 27.476 16.1959C27.2726 15.6571 26.9566 15.1676 26.549 14.76C27.6767 13.5768 28.3031 12.005 28.2975 10.3723Z" stroke="#232323" stroke-width="0.5" stroke-linecap="round" stroke-linejoin="round"/>
<path d="M16.8027 20.3151L16.0662 23.0147C15.7995 21.8975 15.3786 20.8207 14.8148 19.8137C14.6168 19.4628 14.4188 19.1427 14.2129 18.8457" stroke="#232323" stroke-width="0.5" stroke-linecap="round" stroke-linejoin="round"/>
<path d="M20.466 20.2344L18.4358 24.5297L18.3184 20.4183" stroke="#232323" stroke-width="0.5" stroke-linecap="round" stroke-linejoin="round"/>
<path d="M12.4434 20.4863C13.0083 21.1916 13.505 21.9477 13.9268 22.7446C14.6384 24.0831 15.1262 25.5263 15.3712 27.0184C15.5806 28.3683 15.5806 29.7419 15.3712 31.0918C15.3639 31.1398 15.3671 31.1889 15.3809 31.2355C15.3946 31.2822 15.4185 31.3253 15.4508 31.362C15.4831 31.3986 15.5231 31.4279 15.568 31.4478C15.6129 31.4677 15.6616 31.4777 15.7108 31.4772H18.4435C18.4898 31.4772 18.5356 31.468 18.5781 31.4499C18.6207 31.4319 18.659 31.4055 18.6908 31.3723C18.7226 31.3391 18.7472 31.2998 18.7631 31.2569C18.779 31.2139 18.7858 31.1683 18.7831 31.1226C18.7434 30.4806 18.7525 29.8365 18.8105 29.1958C19.1295 26.3549 20.3246 23.6793 22.2341 21.5307" stroke="#232323" stroke-width="0.5" stroke-linecap="round" stroke-linejoin="round"/>
<path d="M12.5716 6.7793C11.8323 6.90195 11.1514 7.26185 10.6294 7.80599C10.0553 8.41997 9.71402 9.21976 9.66602 10.0639" stroke="#232323" stroke-width="0.5" stroke-linecap="round" stroke-linejoin="round"/>
</svg>
