<svg width="16" height="10" viewBox="0 0 16 10" fill="none" xmlns="http://www.w3.org/2000/svg">
<path d="M15.5791 0.444114C15.4465 0.303332 15.289 0.19164 15.1157 0.115433C14.9423 0.0392264 14.7565 -5.43553e-08 14.5688 -6.25587e-08C14.3812 -7.0762e-08 14.1953 0.0392264 14.022 0.115433C13.8486 0.19164 13.6912 0.303332 13.5586 0.444114L7.99875 6.33639L2.43891 0.444114C2.17098 0.160164 1.80759 0.000642415 1.42868 0.000642398C1.04977 0.000642382 0.686378 0.160164 0.418449 0.444114C0.150519 0.728063 4.35463e-07 1.11318 4.1791e-07 1.51475C4.00357e-07 1.91631 0.150519 2.30143 0.418449 2.58538L6.99569 9.55589C7.12825 9.69667 7.28572 9.80836 7.45907 9.88457C7.63242 9.96078 7.81825 10 8.00592 10C8.19359 10 8.37942 9.96078 8.55276 9.88457C8.72611 9.80836 8.88358 9.69667 9.01615 9.55589L15.5934 2.58538C16.1379 2.0083 16.1379 1.03638 15.5791 0.444114Z" fill="#232323"/>
</svg>
