<svg width="18" height="10" viewBox="0 0 18 10" fill="none" xmlns="http://www.w3.org/2000/svg">
<path d="M16.0189 0.200816C16.1493 0.0721425 16.3251 0 16.5084 0C16.6916 0 16.8674 0.0721425 16.9979 0.200816C17.0621 0.26409 17.1131 0.33951 17.148 0.422688C17.1828 0.505866 17.2007 0.595141 17.2007 0.685316C17.2007 0.775491 17.1828 0.864765 17.148 0.947944C17.1131 1.03112 17.0621 1.10654 16.9979 1.16982L9.08986 8.99982C8.95943 9.12849 8.78358 9.20063 8.60036 9.20063C8.41714 9.20063 8.24129 9.12849 8.11086 8.99982L0.202863 1.16982C0.138613 1.10654 0.08759 1.03112 0.0527627 0.947944C0.0179355 0.864765 0 0.775491 0 0.685316C0 0.595141 0.0179355 0.505866 0.0527627 0.422688C0.08759 0.33951 0.138613 0.26409 0.202863 0.200816C0.333294 0.0721425 0.509144 0 0.692363 0C0.875582 0 1.05143 0.0721425 1.18186 0.200816L8.60086 7.34182L16.0189 0.200816Z" fill="#232323"/>
</svg>
