<svg width="26" height="29" viewBox="0 0 26 29" fill="none" xmlns="http://www.w3.org/2000/svg">
<path d="M20.7554 24.0797L23.2848 3.5918H2.03711L4.57191 24.081C4.88181 26.5859 7.01005 28.4671 9.53408 28.4671H15.7931C18.3176 28.4671 20.4461 26.5852 20.7554 24.0797Z" stroke="#F5F5F5" stroke-linecap="round" stroke-linejoin="round"/>
<path d="M1 3.15932C1 1.96676 1.96676 1 3.15932 1H22.6795C23.8721 1 24.8388 1.96676 24.8388 3.15932V3.15932C24.8388 3.39783 24.6455 3.59118 24.407 3.59118H1.43186C1.19335 3.59118 1 3.39783 1 3.15932V3.15932Z" stroke="#F5F5F5" stroke-linecap="round" stroke-linejoin="round"/>
<path d="M12.9199 6.69922V25.3557" stroke="#F5F5F5" stroke-linecap="round" stroke-linejoin="round"/>
<path d="M18.6191 6.69922L16.979 25.2835" stroke="#F5F5F5" stroke-linecap="round" stroke-linejoin="round"/>
<path d="M7.21875 6.69922L8.85892 25.2835" stroke="#F5F5F5" stroke-linecap="round" stroke-linejoin="round"/>
</svg>
