<svg width="78" height="63" viewBox="0 0 78 63" fill="none" xmlns="http://www.w3.org/2000/svg">
<path d="M13.8379 17.5762L75.576 15.2695" stroke="#D2D2D2" stroke-width="2" stroke-linecap="round" stroke-linejoin="round"/>
<path d="M16.6133 25.4648L74.8 21.5857" stroke="#D2D2D2" stroke-width="2" stroke-linecap="round" stroke-linejoin="round"/>
<path d="M19.2637 33.207L73.2715 28.5673" stroke="#D2D2D2" stroke-width="2" stroke-linecap="round" stroke-linejoin="round"/>
<path d="M65.4701 8.36133L64.0449 36.688" stroke="#D2D2D2" stroke-width="2" stroke-linecap="round" stroke-linejoin="round"/>
<path d="M53.2073 9.51093L52.4315 38.2163" stroke="#D2D2D2" stroke-width="2" stroke-linecap="round" stroke-linejoin="round"/>
<path d="M39.2418 8.75878L41.448 39.0159" stroke="#D2D2D2" stroke-width="2" stroke-linecap="round" stroke-linejoin="round"/>
<path d="M26.6258 9.21289L30.6719 40.3986" stroke="#D2D2D2" stroke-width="2" stroke-linecap="round" stroke-linejoin="round"/>
<path d="M0.999761 1H5.99777C6.83929 1 7.59079 1.52676 7.87783 2.31782L21.5558 40.0141C21.8697 40.8792 22.7335 41.4184 23.6485 41.3206L72.1082 36.1392C73.0505 36.0384 73.7927 35.2902 73.8859 34.3471L76.2361 10.5579C76.3523 9.38137 75.4281 8.3613 74.2458 8.3613H10.0707" stroke="#D2D2D2" stroke-width="2" stroke-linecap="round" stroke-linejoin="round"/>
<path d="M22.8184 41.4863V48.8476" stroke="#D2D2D2" stroke-width="2" stroke-linecap="round" stroke-linejoin="round"/>
<path d="M19.1828 49.7695H72.8184" stroke="#D2D2D2" stroke-width="2" stroke-linecap="round" stroke-linejoin="round"/>
<ellipse rx="5.45446" ry="5.52098" transform="matrix(-1 0 0 1 26.4557 56.2104)" stroke="#D2D2D2" stroke-width="2" stroke-linecap="round" stroke-linejoin="round"/>
<ellipse rx="5.45446" ry="5.52098" transform="matrix(-1 0 0 1 64.6354 56.2104)" stroke="#D2D2D2" stroke-width="2" stroke-linecap="round" stroke-linejoin="round"/>
</svg>
