<svg width="414" height="41" viewBox="0 0 414 41" fill="none" xmlns="http://www.w3.org/2000/svg">
<rect width="41.619" height="40.998" transform="matrix(1 0 0 -1 0 41)" fill="#FFAD93"/>
<rect width="41.619" height="40.998" transform="matrix(1 0 0 -1 41.6191 41)" fill="#FFCDCD"/>
<rect width="40.5237" height="40.998" transform="matrix(1 0 0 -1 83.2383 41)" fill="#FFFCAA"/>
<rect width="41.619" height="40.998" transform="matrix(1 0 0 -1 123.762 41)" fill="#E4FFA9"/>
<rect width="41.619" height="40.998" transform="matrix(1 0 0 -1 165.381 41)" fill="#A9FFF5"/>
<rect width="41.619" height="40.998" transform="matrix(1 0 0 -1 207 41)" fill="#A9DBFF"/>
<rect width="40.5237" height="40.998" transform="matrix(1 0 0 -1 248.621 41)" fill="#FFECBB"/>
<rect width="41.619" height="40.998" transform="matrix(1 0 0 -1 289.143 41)" fill="#E8E8E8"/>
<rect width="41.619" height="40.998" transform="matrix(1 0 0 -1 330.762 41)" fill="#ABFFA9"/>
<rect width="41.619" height="40.998" transform="matrix(1 0 0 -1 372.381 41)" fill="#D4A9FF"/>
</svg>
