<svg width="295" height="81" viewBox="0 0 295 81" fill="none" xmlns="http://www.w3.org/2000/svg">
<g clip-path="url(#clip0)">
<path d="M84.12 54.48C81.6667 54.48 79.5867 54.0667 77.88 53.24C76.1733 52.3867 74.72 51.2933 73.52 49.96L77.52 45.92C79.4133 48.0533 81.7467 49.12 84.52 49.12C86.0133 49.12 87.12 48.8133 87.84 48.2C88.56 47.5867 88.92 46.7733 88.92 45.76C88.92 44.9867 88.7067 44.3467 88.28 43.84C87.8533 43.3067 86.9867 42.9467 85.68 42.76L82.92 42.4C79.96 42.0267 77.7867 41.1333 76.4 39.72C75.04 38.3067 74.36 36.4267 74.36 34.08C74.36 32.8267 74.6 31.68 75.08 30.64C75.56 29.6 76.24 28.7067 77.12 27.96C78.0267 27.2133 79.12 26.64 80.4 26.24C81.7067 25.8133 83.1867 25.6 84.84 25.6C86.9467 25.6 88.8 25.9333 90.4 26.6C92 27.2667 93.3733 28.24 94.52 29.52L90.48 33.6C89.8133 32.8267 89 32.2 88.04 31.72C87.1067 31.2133 85.92 30.96 84.48 30.96C83.12 30.96 82.1067 31.2 81.44 31.68C80.7733 32.16 80.44 32.8267 80.44 33.68C80.44 34.64 80.6933 35.3333 81.2 35.76C81.7333 36.1867 82.5867 36.4933 83.76 36.68L86.52 37.12C89.4 37.5733 91.5333 38.4667 92.92 39.8C94.3067 41.1067 95 42.9733 95 45.4C95 46.7333 94.76 47.96 94.28 49.08C93.8 50.2 93.0933 51.16 92.16 51.96C91.2533 52.76 90.12 53.3867 88.76 53.84C87.4 54.2667 85.8533 54.48 84.12 54.48ZM109.721 50.48H109.521C109.334 51.0133 109.081 51.52 108.761 52C108.468 52.48 108.081 52.9067 107.601 53.28C107.121 53.6533 106.548 53.9467 105.881 54.16C105.241 54.3733 104.494 54.48 103.641 54.48C101.481 54.48 99.8409 53.7733 98.7209 52.36C97.6276 50.92 97.0809 48.8667 97.0809 46.2V33H103.001V45.68C103.001 46.96 103.228 47.9467 103.681 48.64C104.134 49.3333 104.908 49.68 106.001 49.68C106.454 49.68 106.908 49.6133 107.361 49.48C107.814 49.3467 108.214 49.16 108.561 48.92C108.908 48.6533 109.188 48.3333 109.401 47.96C109.614 47.5867 109.721 47.1467 109.721 46.64V33H115.641V54H109.721V50.48ZM118.749 33H124.669V36.52H124.869C125.162 35.3467 125.829 34.3867 126.869 33.64C127.936 32.8933 129.149 32.52 130.509 32.52C133.176 32.52 135.189 33.4533 136.549 35.32C137.909 37.1867 138.589 39.9067 138.589 43.48C138.589 47.0533 137.909 49.7867 136.549 51.68C135.189 53.5467 133.176 54.48 130.509 54.48C129.816 54.48 129.162 54.3733 128.549 54.16C127.936 53.9733 127.376 53.7067 126.869 53.36C126.389 52.9867 125.976 52.56 125.629 52.08C125.282 51.5733 125.029 51.04 124.869 50.48H124.669V62H118.749V33ZM128.549 49.68C129.669 49.68 130.589 49.2933 131.309 48.52C132.056 47.72 132.429 46.6533 132.429 45.32V41.68C132.429 40.3467 132.056 39.2933 131.309 38.52C130.589 37.72 129.669 37.32 128.549 37.32C127.429 37.32 126.496 37.6 125.749 38.16C125.029 38.6933 124.669 39.44 124.669 40.4V46.6C124.669 47.56 125.029 48.32 125.749 48.88C126.496 49.4133 127.429 49.68 128.549 49.68ZM149.445 54.48C147.845 54.48 146.418 54.2267 145.165 53.72C143.912 53.1867 142.845 52.4533 141.965 51.52C141.112 50.56 140.458 49.4 140.005 48.04C139.578 46.68 139.365 45.16 139.365 43.48C139.365 41.8267 139.578 40.3333 140.005 39C140.432 37.64 141.058 36.48 141.885 35.52C142.738 34.56 143.778 33.8267 145.005 33.32C146.232 32.7867 147.632 32.52 149.205 32.52C150.938 32.52 152.418 32.8133 153.645 33.4C154.898 33.9867 155.912 34.7733 156.685 35.76C157.485 36.7467 158.058 37.8933 158.405 39.2C158.778 40.48 158.965 41.8267 158.965 43.24V45H145.485V45.32C145.485 46.7067 145.858 47.8133 146.605 48.64C147.352 49.44 148.525 49.84 150.125 49.84C151.352 49.84 152.352 49.6 153.125 49.12C153.898 48.6133 154.618 48.0133 155.285 47.32L158.245 51C157.312 52.0933 156.085 52.9467 154.565 53.56C153.072 54.1733 151.365 54.48 149.445 54.48ZM149.325 36.88C148.125 36.88 147.178 37.28 146.485 38.08C145.818 38.8533 145.485 39.8933 145.485 41.2V41.52H152.845V41.16C152.845 39.88 152.552 38.8533 151.965 38.08C151.405 37.28 150.525 36.88 149.325 36.88ZM160.746 54V33H166.666V37.56H166.866C166.973 36.9733 167.159 36.4133 167.426 35.88C167.693 35.32 168.039 34.8267 168.466 34.4C168.919 33.9733 169.453 33.64 170.066 33.4C170.679 33.1333 171.399 33 172.226 33H173.266V38.52H171.786C170.053 38.52 168.759 38.7467 167.906 39.2C167.079 39.6533 166.666 40.4933 166.666 41.72V54H160.746ZM180.398 54C178.371 54 176.878 53.5067 175.918 52.52C174.984 51.5333 174.518 50.1067 174.518 48.24V24.4H180.438V49.4H183.078V54H180.398ZM187.187 30.76C185.987 30.76 185.107 30.4933 184.547 29.96C184.014 29.4 183.747 28.6933 183.747 27.84V26.96C183.747 26.1067 184.014 25.4133 184.547 24.88C185.107 24.32 185.987 24.04 187.187 24.04C188.387 24.04 189.254 24.32 189.787 24.88C190.347 25.4133 190.627 26.1067 190.627 26.96V27.84C190.627 28.6933 190.347 29.4 189.787 29.96C189.254 30.4933 188.387 30.76 187.187 30.76ZM184.227 33H190.147V54H184.227V33ZM200.392 54.48C198.366 54.48 196.659 54.16 195.272 53.52C193.886 52.8533 192.646 51.92 191.552 50.72L195.032 47.2C195.779 48.0267 196.606 48.68 197.512 49.16C198.419 49.64 199.446 49.88 200.592 49.88C201.766 49.88 202.579 49.7067 203.032 49.36C203.486 48.9867 203.712 48.4933 203.712 47.88C203.712 46.8933 203.006 46.3067 201.592 46.12L199.312 45.84C194.592 45.2533 192.232 43.0933 192.232 39.36C192.232 38.3467 192.419 37.4267 192.792 36.6C193.192 35.7467 193.739 35.0267 194.432 34.44C195.152 33.8267 196.006 33.36 196.992 33.04C198.006 32.6933 199.139 32.52 200.392 32.52C201.486 32.52 202.446 32.6 203.272 32.76C204.126 32.8933 204.872 33.1067 205.512 33.4C206.179 33.6667 206.779 34.0133 207.312 34.44C207.872 34.84 208.419 35.2933 208.952 35.8L205.552 39.28C204.886 38.6133 204.126 38.0933 203.272 37.72C202.446 37.32 201.592 37.12 200.712 37.12C199.699 37.12 198.979 37.28 198.552 37.6C198.126 37.92 197.912 38.3467 197.912 38.88C197.912 39.44 198.059 39.88 198.352 40.2C198.672 40.4933 199.259 40.7067 200.112 40.84L202.472 41.16C207.086 41.7733 209.392 43.88 209.392 47.48C209.392 48.4933 209.179 49.4267 208.752 50.28C208.326 51.1333 207.712 51.88 206.912 52.52C206.139 53.1333 205.192 53.6133 204.072 53.96C202.979 54.3067 201.752 54.48 200.392 54.48ZM218.076 54C216.023 54 214.463 53.48 213.396 52.44C212.356 51.4 211.836 49.88 211.836 47.88V37.6H208.876V33H210.356C211.156 33 211.703 32.8133 211.996 32.44C212.29 32.04 212.436 31.48 212.436 30.76V27.32H217.756V33H221.916V37.6H217.756V49.4H221.596V54H218.076ZM239.149 54C238.082 54 237.189 53.6667 236.469 53C235.775 52.3333 235.335 51.44 235.149 50.32H234.909C234.589 51.68 233.882 52.72 232.789 53.44C231.695 54.1333 230.349 54.48 228.749 54.48C226.642 54.48 225.029 53.92 223.909 52.8C222.789 51.68 222.229 50.2 222.229 48.36C222.229 46.1467 223.029 44.5067 224.629 43.44C226.255 42.3467 228.455 41.8 231.229 41.8H234.549V40.48C234.549 39.4667 234.282 38.6667 233.749 38.08C233.215 37.4667 232.322 37.16 231.069 37.16C229.895 37.16 228.962 37.4133 228.269 37.92C227.575 38.4267 227.002 39 226.549 39.64L223.029 36.52C223.882 35.2667 224.949 34.2933 226.229 33.6C227.535 32.88 229.295 32.52 231.509 32.52C234.495 32.52 236.735 33.1733 238.229 34.48C239.722 35.7867 240.469 37.6933 240.469 40.2V49.4H242.429V54H239.149ZM230.949 50.36C231.935 50.36 232.775 50.1467 233.469 49.72C234.189 49.2933 234.549 48.6 234.549 47.64V45.16H231.669C229.349 45.16 228.189 45.9467 228.189 47.52V48.12C228.189 48.8933 228.429 49.4667 228.909 49.84C229.389 50.1867 230.069 50.36 230.949 50.36ZM246.682 54.48C245.829 54.48 245.202 54.2667 244.802 53.84C244.429 53.4133 244.242 52.8533 244.242 52.16V51.64C244.242 50.9467 244.429 50.3867 244.802 49.96C245.202 49.5333 245.829 49.32 246.682 49.32C247.536 49.32 248.149 49.5333 248.522 49.96C248.922 50.3867 249.122 50.9467 249.122 51.64V52.16C249.122 52.8533 248.922 53.4133 248.522 53.84C248.149 54.2667 247.536 54.48 246.682 54.48ZM268.336 54C267.136 54 266.269 53.68 265.736 53.04C265.229 52.4 264.909 51.6 264.776 50.64H264.576C264.123 51.92 263.376 52.88 262.336 53.52C261.296 54.16 260.056 54.48 258.616 54.48C256.429 54.48 254.723 53.92 253.496 52.8C252.296 51.68 251.696 50.16 251.696 48.24C251.696 46.2933 252.403 44.8 253.816 43.76C255.256 42.72 257.483 42.2 260.496 42.2H264.576V40.16C264.576 38.6933 264.176 37.5733 263.376 36.8C262.576 36.0267 261.349 35.64 259.696 35.64C258.443 35.64 257.389 35.92 256.536 36.48C255.709 37.04 255.016 37.7867 254.456 38.72L252.536 36.92C253.096 35.8 253.989 34.8533 255.216 34.08C256.443 33.28 257.989 32.88 259.856 32.88C262.363 32.88 264.309 33.4933 265.696 34.72C267.083 35.9467 267.776 37.6533 267.776 39.84V51.2H270.136V54H268.336ZM259.136 51.76C259.936 51.76 260.669 51.6667 261.336 51.48C262.003 51.2933 262.576 51.0267 263.056 50.68C263.536 50.3333 263.909 49.9333 264.176 49.48C264.443 49.0267 264.576 48.5333 264.576 48V44.6H260.336C258.496 44.6 257.149 44.8667 256.296 45.4C255.469 45.9333 255.056 46.7067 255.056 47.72V48.56C255.056 49.5733 255.416 50.36 256.136 50.92C256.883 51.48 257.883 51.76 259.136 51.76ZM272.303 54V33.36H275.503V37.16H275.703C276.076 36.1733 276.743 35.2933 277.703 34.52C278.663 33.7467 279.983 33.36 281.663 33.36H282.903V36.56H281.023C279.29 36.56 277.93 36.8933 276.943 37.56C275.983 38.2 275.503 39.0133 275.503 40V54H272.303Z" fill="#1D1D1B"/>
<path d="M40.1803 30.8193C39.9487 29.2433 39.5115 27.7012 38.8791 26.2293C38.8132 25.918 38.7994 25.5987 38.8382 25.2833C38.8544 25.1536 38.8848 24.9833 39.0966 24.3955C39.4227 23.488 39.5611 23.3049 39.6508 22.8204C39.699 22.5607 39.7184 22.2968 39.7086 22.0332H39.451C39.535 22.0001 39.619 21.9609 39.703 21.9352C39.6967 21.0741 39.5441 20.2197 39.2512 19.4054C39.1609 19.2886 39.0452 19.1919 38.9121 19.1219C38.779 19.0519 38.6317 19.0103 38.4803 19H31.9578C31.8132 19.0105 31.6725 19.0492 31.5441 19.1135C31.4016 19.1836 31.2777 19.2839 31.1819 19.4068C31.0307 19.8271 30.9163 20.2588 30.8402 20.6974C30.7692 21.107 30.7322 21.5214 30.7294 21.9366C30.8134 21.9623 30.8974 22.0042 30.9814 22.0346H30.7237C30.7133 22.2982 30.7325 22.5621 30.7809 22.8218C30.8706 23.3062 31.0096 23.4893 31.3358 24.3968C31.5476 24.9847 31.578 25.1549 31.5942 25.2847C31.6328 25.6001 31.6187 25.9194 31.5525 26.2306C30.9205 27.7027 30.4833 29.2447 30.2514 30.8207C30.0417 32.3015 30.0076 33.8002 30.1498 35.2884C30.2472 36.3388 30.4303 37.3803 30.6976 38.4034C30.7424 38.574 30.8456 38.7254 30.9907 38.8335C31.1357 38.9416 31.3143 39.0002 31.4982 39H38.9314C39.1151 39 39.2936 38.9414 39.4385 38.8333C39.5834 38.7252 39.6864 38.5739 39.7313 38.4034C39.9984 37.3803 40.1819 36.3388 40.2798 35.2884C40.4229 33.7999 40.3895 32.3006 40.1803 30.8193V30.8193Z" fill="#E4FFA9"/>
<path d="M40.4886 30.8193C40.2567 29.2433 39.8196 27.7013 39.1876 26.2293C39.1214 25.9181 39.1073 25.5988 39.1459 25.2833C39.1621 25.1536 39.1925 24.9833 39.4043 24.3954C39.7304 23.488 39.8695 23.3049 39.9592 22.8204C40.0072 22.5607 40.0264 22.2968 40.0164 22.0332H31.0357C31.026 22.2968 31.0451 22.5606 31.0929 22.8204C31.1832 23.3049 31.3216 23.488 31.6477 24.3954C31.8595 24.9833 31.8899 25.1536 31.9061 25.2833C31.9451 25.5987 31.9311 25.9181 31.8645 26.2293C31.2327 27.7014 30.7958 29.2434 30.5641 30.8193C30.354 32.3001 30.3196 33.7989 30.4617 35.287C30.5597 36.3374 30.7431 37.3789 31.0103 38.402C31.055 38.5726 31.158 38.724 31.3029 38.8321C31.4479 38.9402 31.6264 38.9988 31.8101 38.9986H39.2433C39.4271 38.9988 39.6058 38.9402 39.7508 38.8321C39.8959 38.724 39.999 38.5726 40.0439 38.402C40.3112 37.379 40.4943 36.3374 40.5917 35.287C40.7334 33.7988 40.6989 32.3001 40.4886 30.8193V30.8193Z" stroke="#1D1D1B" stroke-width="1.3" stroke-miterlimit="10"/>
<path d="M39.8999 20.6986C39.8241 20.26 39.7098 19.8283 39.5583 19.408C39.4682 19.2911 39.3527 19.1943 39.2197 19.1243C39.0867 19.0543 38.9394 19.0128 38.788 19.0026H32.2655C32.1223 19.0122 31.9825 19.0495 31.8547 19.1121C31.7126 19.1824 31.589 19.2827 31.4932 19.4053C31.1987 20.2192 31.0458 21.0738 31.0406 21.9351C31.1536 21.9696 31.2666 22.029 31.3788 22.0635C32.7597 22.0797 34.1399 22.0473 35.5208 22.0635H35.5398C36.9172 22.0473 38.2931 22.0797 39.6719 22.0635C39.7849 22.029 39.8978 21.9696 40.0101 21.9351C40.0074 21.5208 39.9706 21.1074 39.8999 20.6986V20.6986Z" stroke="#1D1D1B" stroke-width="1.3" stroke-miterlimit="10"/>
<path d="M46.1212 26.1971C46.1449 25.9202 46.1684 25.6431 46.1916 25.3659L44.7834 19.4321V17.633C44.7834 17.4786 44.8409 17.3306 44.9434 17.2215C45.0459 17.1124 45.1849 17.0511 45.3298 17.0511H46.0496C46.079 17.0511 46.108 17.0439 46.1343 17.0298C46.1606 17.0158 46.1834 16.9954 46.201 16.9703C46.2185 16.9452 46.2303 16.9161 46.2354 16.8852C46.2405 16.8544 46.2388 16.8227 46.2303 16.7927C46.1823 16.6225 46.1131 16.46 46.0244 16.3094C45.7149 15.7856 45.2559 15.5676 44.944 15.4172C44.6023 15.2554 44.2369 15.1578 43.8639 15.1288H41.5555C41.5145 15.1288 41.4751 15.1461 41.4461 15.1771C41.417 15.208 41.4007 15.2499 41.4007 15.2936V15.1498L40.523 15.1601C40.4879 15.1605 40.4543 15.1757 40.4296 15.2023C40.4049 15.2289 40.3911 15.2648 40.3911 15.3023V16.044C40.391 16.0807 40.4043 16.1159 40.4281 16.1424C40.4519 16.1689 40.4844 16.1846 40.5188 16.1862L41.4007 16.2274V16.1363C41.4007 16.1626 41.4066 16.1885 41.4179 16.2119C41.4292 16.2352 41.4456 16.2554 41.4657 16.2706L41.4015 16.9011C41.3465 17.0668 41.2634 17.2205 41.1565 17.3544C41.0833 17.446 40.9994 17.5272 40.9069 17.5963C40.8682 17.7912 40.8229 17.9989 40.763 18.2173C40.7084 18.4151 40.6492 18.6005 40.5877 18.7728C40.5843 18.7812 40.5841 18.7906 40.5869 18.7992C40.5898 18.8078 40.5955 18.8149 40.6031 18.8193C40.6106 18.8236 40.6194 18.8248 40.6277 18.8226C40.636 18.8204 40.6433 18.8149 40.648 18.8074C40.8841 18.4715 41.088 18.1802 41.2854 17.8946C41.3953 17.7356 41.5176 17.5567 41.7471 17.4269C41.9364 17.3232 42.1477 17.2733 42.3604 17.2819H42.6313C42.6805 17.5555 42.73 17.8299 42.7749 18.0883V19.4345H42.7977C42.7138 19.6101 42.6159 19.7968 42.5025 19.9908C42.456 20.0704 42.4092 20.1466 42.3628 20.22C42.3081 20.3062 42.274 20.4053 42.2635 20.5087C42.2531 20.6122 42.2666 20.7167 42.3028 20.8134C42.4376 21.1716 42.5449 21.5409 42.6236 21.9177C42.771 22.6252 42.8682 23.0921 42.701 23.6431C42.5752 24.0523 42.3469 24.365 42.2087 24.5542C41.9928 24.8496 41.7738 25.1063 41.6105 25.2452C41.1926 25.4882 40.8246 25.8178 40.5283 26.2146C40.232 26.6114 40.0133 27.0674 39.8851 27.5557C39.757 28.044 39.722 28.5546 39.7821 29.0575C39.8423 29.5605 39.9965 30.0455 40.2355 30.4839C40.4363 30.849 40.5431 31.2641 40.5451 31.6872V32.6407C40.5451 32.8631 40.6281 33.0764 40.7757 33.2337C40.9234 33.3909 41.1237 33.4793 41.3326 33.4793H45.4498C45.6586 33.4793 45.8589 33.3909 46.0066 33.2337C46.1543 33.0764 46.2373 32.8631 46.2373 32.6407V31.0402C46.238 30.8828 46.2803 30.7287 46.3592 30.5956V30.5956C46.7527 29.9266 46.9411 29.144 46.8985 28.356C46.8558 27.5679 46.5842 26.8135 46.1212 26.1971V26.1971Z" fill="#A9DBFF"/>
<path d="M44.8935 25.2028C43.2005 24.1122 40.9728 24.7078 39.9612 26.5162C39.6358 27.0986 39.4624 27.7628 39.4587 28.4403C39.455 29.1177 39.6212 29.784 39.9402 30.3704C40.1414 30.7359 40.2484 31.1513 40.2504 31.5749V32.5294C40.2504 32.752 40.3336 32.9655 40.4815 33.1229C40.6295 33.2803 40.8302 33.3688 41.0395 33.3688H45.1657C45.375 33.3688 45.5757 33.2803 45.7236 33.1229C45.8716 32.9655 45.9548 32.752 45.9548 32.5294V30.9273C45.9555 30.7697 45.9978 30.6155 46.0769 30.4822V30.4822C46.3286 30.054 46.4978 29.5768 46.5745 29.0784C46.6513 28.58 46.6341 28.0703 46.524 27.579C46.4138 27.0877 46.213 26.6246 45.9331 26.2167C45.6531 25.8088 45.2998 25.4641 44.8935 25.2028V25.2028Z" stroke="#1D1D1B" stroke-width="1.3" stroke-miterlimit="10" stroke-linecap="round" stroke-linejoin="round"/>
<path d="M45.8348 26.0819C45.8586 25.8047 45.8821 25.5273 45.9054 25.2499L44.4943 19.3101H43.5005H42.5067C42.4225 19.4858 42.3244 19.6727 42.2108 19.8669C42.1643 19.9466 42.1174 20.0229 42.0708 20.0963C42.016 20.1826 41.9819 20.2818 41.9714 20.3853C41.9609 20.4889 41.9744 20.5936 42.0107 20.6903C42.1458 21.0489 42.2533 21.4186 42.3322 21.7957C42.4799 22.504 42.5772 22.9713 42.4097 23.5228C42.2837 23.9324 42.0549 24.2455 41.9165 24.4348C41.7001 24.7306 41.4807 24.9875 41.317 25.1265" stroke="#1D1D1B" stroke-width="1.3" stroke-miterlimit="10" stroke-linecap="round" stroke-linejoin="round"/>
<path d="M44.4945 19.1508V17.5087C44.4945 17.3543 44.5522 17.2061 44.6548 17.0969C44.7575 16.9877 44.8968 16.9263 45.042 16.9263H45.764C45.7935 16.9263 45.8225 16.919 45.8489 16.905C45.8752 16.891 45.8981 16.8706 45.9157 16.8454C45.9333 16.8203 45.9451 16.7911 45.9502 16.7603C45.9553 16.7294 45.9536 16.6977 45.9451 16.6677C45.897 16.4973 45.8276 16.3346 45.7388 16.1838C45.4286 15.6596 44.9691 15.4414 44.6566 15.2908C44.3142 15.1282 43.9479 15.0298 43.5739 15H41.2609C41.2198 15 41.1804 15.0174 41.1513 15.0483C41.1222 15.0793 41.1058 15.1212 41.1058 15.165V16.0073C41.1058 16.043 41.1167 16.0777 41.1369 16.1063C41.157 16.1348 41.1853 16.1557 41.2175 16.1657L41.9713 16.3987C42.0455 16.4216 42.1123 16.4659 42.1643 16.5267C42.2164 16.5875 42.2515 16.6624 42.266 16.7432C42.3378 17.1466 42.4161 18.7618 42.4839 19.1512" stroke="#1D1D1B" stroke-width="1.3" stroke-miterlimit="10" stroke-linecap="round" stroke-linejoin="round"/>
<path d="M41.171 16.1413L41.1059 16.7761C41.0507 16.942 40.9675 17.0958 40.8604 17.2298C40.787 17.3215 40.703 17.4029 40.6103 17.472C40.5715 17.6667 40.5262 17.875 40.4661 18.0936C40.4114 18.2916 40.3521 18.4772 40.2904 18.6496C40.2871 18.658 40.2868 18.6675 40.2897 18.6761C40.2925 18.6847 40.2983 18.6918 40.3059 18.6962C40.3134 18.7005 40.3222 18.7017 40.3305 18.6995C40.3389 18.6973 40.3461 18.6919 40.3509 18.6843C40.5874 18.3481 40.7918 18.0565 40.9895 17.7706C41.0997 17.6114 41.2222 17.432 41.4521 17.3024C41.6418 17.1985 41.8535 17.1484 42.0667 17.1572H42.3401" stroke="#1D1D1B" stroke-width="1.3" stroke-miterlimit="10" stroke-linecap="round" stroke-linejoin="round"/>
<path d="M41.1058 16.0981L40.2221 16.0568C40.1876 16.0551 40.1552 16.0394 40.1313 16.0129C40.1075 15.9864 40.0942 15.9512 40.0941 15.9145V15.172C40.0942 15.1347 40.1081 15.0988 40.1329 15.0723C40.1576 15.0457 40.1912 15.0306 40.2263 15.0301L41.1058 15.0198V16.0981Z" stroke="#1D1D1B" stroke-width="1.3" stroke-miterlimit="10" stroke-linecap="round" stroke-linejoin="round"/>
<path d="M25.3663 24.7425C25.3668 23.9621 25.1476 23.2012 24.7393 22.5662C24.331 21.9312 23.7541 21.4539 23.0894 21.2013C22.4247 20.9488 21.7055 20.9334 21.0326 21.1576C20.3597 21.3817 19.7667 21.834 19.3368 22.4512C18.8787 21.9526 18.2778 21.6482 17.6385 21.5908C16.9992 21.5334 16.3621 21.7267 15.8378 22.1371C15.3136 22.5475 14.9354 23.149 14.7691 23.837C14.6028 24.525 14.6588 25.256 14.9275 25.9028C14.6414 26.0501 14.3847 26.2596 14.1726 26.5188C13.9605 26.778 13.7972 27.0818 13.6925 27.4122C13.5877 27.7426 13.5436 28.093 13.5627 28.4426C13.5817 28.7923 13.6636 29.1341 13.8035 29.4481C13.9434 29.762 14.1385 30.0417 14.3772 30.2706C14.6159 30.4994 14.8935 30.6729 15.1935 30.7808C15.4936 30.8887 15.81 30.9287 16.1242 30.8986C16.4384 30.8685 16.744 30.7689 17.023 30.6055C17.319 31.0202 17.5793 31.4648 17.8004 31.9336C18.1721 32.7207 18.4263 33.5695 18.5533 34.447C18.6742 35.3162 18.6631 36.2017 18.5207 37.0669H20.357C20.3192 36.6229 20.3192 36.176 20.357 35.732C20.5229 34.061 21.1476 32.4872 22.1465 31.2242C22.6048 31.4188 23.1093 31.4331 23.5759 31.2648C24.0426 31.0964 24.4432 30.7556 24.7111 30.299C24.9791 29.8424 25.098 29.2977 25.0483 28.7555C24.9986 28.2134 24.7832 27.7065 24.4379 27.3193C25.0349 26.6255 25.3675 25.7022 25.3663 24.7425V24.7425ZM18.286 30.1998C18.186 29.9936 18.082 29.8055 17.9759 29.631L17.9881 29.6083C18.3275 30.0611 18.7901 30.3792 19.3062 30.5149C19.1818 31.0361 19.0553 31.5596 18.9308 32.0832C18.7954 31.4253 18.5784 30.7914 18.286 30.1998V30.1998ZM20.1224 33.0033L20.0591 30.5715C20.4138 30.5376 20.7574 30.4169 21.0651 30.218C21.1107 30.303 21.1611 30.3848 21.2161 30.4627L20.1224 33.0033Z" fill="#ABFFA9"/>
<path d="M13.6753 26.6438C13.8977 26.3208 14.185 26.0598 14.5144 25.8814C14.2444 25.2375 14.1871 24.5091 14.3524 23.8231C14.5178 23.1371 14.8953 22.5373 15.4191 22.1281C15.9429 21.719 16.5798 21.5266 17.2186 21.5845C17.8574 21.6424 18.4576 21.9469 18.9144 22.4448C19.3436 21.8304 19.9355 21.38 20.6074 21.1569C21.2792 20.9337 21.9972 20.949 22.6607 21.2005C23.3243 21.452 23.9003 21.9271 24.3079 22.5593C24.7155 23.1916 24.9344 23.9492 24.9338 24.7261C24.9367 25.6808 24.6069 26.5999 24.0131 27.2917C24.2277 27.5301 24.3941 27.8163 24.5012 28.1314C24.6084 28.4464 24.6538 28.7831 24.6344 29.1191C24.6151 29.4551 24.5315 29.7826 24.3891 30.0801C24.2467 30.3775 24.0489 30.638 23.8087 30.8442C23.5685 31.0505 23.2914 31.1978 22.9959 31.2764C22.7004 31.3549 22.3931 31.363 22.0946 31.2999C21.7961 31.2369 21.513 31.1042 21.2643 30.9108C21.0156 30.7173 20.8069 30.4674 20.652 30.1778C20.1565 30.4969 19.5749 30.6111 19.0106 30.4999C18.4462 30.3888 17.9358 30.0596 17.57 29.5708C17.3812 29.919 17.1218 30.2137 16.8122 30.4314C16.5026 30.649 16.1514 30.7836 15.7866 30.8245" stroke="#1D1D1B" stroke-width="1.3" stroke-linecap="round" stroke-linejoin="round"/>
<path d="M18.8802 30.539L18.4924 32.1176C18.352 31.4643 18.1303 30.8347 17.8334 30.2459C17.7292 30.0407 17.6249 29.8535 17.5165 29.6798" stroke="#1D1D1B" stroke-width="1.3" stroke-linecap="round" stroke-linejoin="round"/>
<path d="M20.8094 30.4924L19.7403 33.004L19.6785 30.5999" stroke="#1D1D1B" stroke-width="1.3" stroke-linecap="round" stroke-linejoin="round"/>
<path d="M16.5852 30.6401C16.8827 31.0525 17.1442 31.4946 17.3664 31.9606C17.7411 32.7432 17.9979 33.5871 18.1269 34.4596C18.2372 35.249 18.2372 36.0522 18.1269 36.8415C18.1231 36.8696 18.1248 36.8983 18.132 36.9255C18.1393 36.9528 18.1518 36.9781 18.1689 36.9995C18.1859 37.0209 18.2069 37.038 18.2306 37.0497C18.2542 37.0613 18.2799 37.0672 18.3058 37.0668H19.7447C19.7691 37.0669 19.7932 37.0615 19.8156 37.0509C19.838 37.0404 19.8582 37.0249 19.875 37.0055C19.8917 36.9861 19.9047 36.9631 19.913 36.938C19.9214 36.9129 19.925 36.8862 19.9236 36.8595C19.9027 36.4841 19.9075 36.1075 19.938 35.7328C20.106 34.0717 20.7353 32.5071 21.7408 31.2508" stroke="#1D1D1B" stroke-width="1.3" stroke-linecap="round" stroke-linejoin="round"/>
<path d="M29.1218 22.0156H28.98C29.102 22.0156 29.219 21.9639 29.3053 21.8719C29.3916 21.7799 29.4401 21.6551 29.4401 21.5249L29.2143 17.9734C29.2143 17.8456 29.1907 17.719 29.1449 17.6009C29.099 17.4828 29.0317 17.3755 28.947 17.2851C28.8622 17.1947 28.7616 17.123 28.6509 17.0741C28.5401 17.0252 28.4214 17 28.3016 17H24.7245C24.6047 17 24.486 17.0252 24.3754 17.0741C24.2647 17.1231 24.1641 17.1948 24.0795 17.2852C23.9948 17.3756 23.9277 17.4829 23.882 17.601C23.8362 17.7191 23.8128 17.8456 23.8129 17.9734L23.586 21.5249C23.586 21.5895 23.5979 21.6534 23.6211 21.713C23.6443 21.7726 23.6783 21.8268 23.7212 21.8724C23.764 21.9179 23.8149 21.954 23.8709 21.9786C23.9268 22.0032 23.9868 22.0158 24.0473 22.0156H23.9055C23.7948 22.0156 23.6886 22.0624 23.6102 22.1457C23.5318 22.2291 23.4876 22.3422 23.4873 22.4602V42.5357C23.4873 42.5942 23.4981 42.6521 23.5192 42.7062C23.5402 42.7602 23.571 42.8092 23.6099 42.8506C23.6487 42.8919 23.6948 42.9246 23.7455 42.9468C23.7963 42.9691 23.8506 42.9805 23.9055 42.9803H29.1194C29.2299 42.9803 29.336 42.9335 29.4142 42.8501C29.4924 42.7667 29.5363 42.6536 29.5363 42.5357V22.4655C29.5369 22.4068 29.5267 22.3487 29.5062 22.2943C29.4857 22.2399 29.4553 22.1904 29.4168 22.1486C29.3783 22.1068 29.3324 22.0735 29.2818 22.0507C29.2311 22.0279 29.1768 22.0159 29.1218 22.0156Z" fill="#E8E8E8"/>
<path d="M28.9102 22.0266H24.07C23.7362 22.0266 23.4656 22.315 23.4656 22.6708V42.3361C23.4656 42.6919 23.7362 42.9803 24.07 42.9803H28.9102C29.244 42.9803 29.5146 42.6919 29.5146 42.3361V22.6708C29.5146 22.315 29.244 22.0266 28.9102 22.0266Z" stroke="#1D1D1B" stroke-width="1.3" stroke-miterlimit="10" stroke-linecap="round" stroke-linejoin="round"/>
<path d="M28.2733 17H24.7068C24.4654 17 24.2339 17.1028 24.0633 17.2857C23.8926 17.4687 23.7967 17.7168 23.7967 17.9755L23.5717 21.5349C23.5717 21.6653 23.62 21.7904 23.706 21.8826C23.792 21.9748 23.9087 22.0266 24.0304 22.0266H28.9497C29.0713 22.0266 29.188 21.9748 29.274 21.8826C29.3601 21.7904 29.4084 21.6653 29.4084 21.5349L29.1834 17.9755C29.1834 17.7168 29.0875 17.4687 28.9168 17.2857C28.7461 17.1028 28.5146 17 28.2733 17V17Z" stroke="#1D1D1B" stroke-width="1.3" stroke-miterlimit="10" stroke-linecap="round" stroke-linejoin="round"/>
<path d="M26.5166 18.4684C26.8243 18.4684 27.0738 18.2156 27.0738 17.9037C27.0738 17.5917 26.8243 17.3389 26.5166 17.3389C26.2089 17.3389 25.9595 17.5917 25.9595 17.9037C25.9595 18.2156 26.2089 18.4684 26.5166 18.4684Z" fill="#1D1D1B"/>
<path d="M24.8597 17C24.8154 17.0973 24.7784 17.1981 24.7492 17.3015C24.7078 17.4587 24.6871 17.6211 24.6877 17.7843C24.6538 18.9838 25.156 19.6001 25.156 19.6001C25.2849 19.8211 25.4559 20.0116 25.6582 20.1595C25.8977 20.3372 26.1816 20.4366 26.4744 20.4452C26.7973 20.4401 27.1094 20.3225 27.3621 20.1106C27.5301 19.969 27.6718 19.7959 27.7802 19.6001C28.1569 18.9812 28.2473 18.2101 28.2824 17.7843C28.303 17.6234 28.2966 17.46 28.2636 17.3015C28.2428 17.2006 28.2036 17.1049 28.1481 17.0198" stroke="#1D1D1B" stroke-width="1.3" stroke-miterlimit="10" stroke-linecap="round" stroke-linejoin="round"/>
<path d="M52.1305 27.1222C52.1887 27.0544 52.2208 26.9657 52.2205 26.8738V26.2571C52.2205 26.1612 52.1963 26.0672 52.1505 25.9847C52.1047 25.9022 52.039 25.8343 51.9603 25.788L50.7301 25.0581C50.6247 24.8231 50.5194 24.5574 50.4131 24.3138C50.3785 24.2334 50.3693 24.1432 50.387 24.0567C50.437 23.8207 50.4612 23.5793 50.459 23.3374C50.4449 22.6664 50.2413 22.0156 49.8745 21.4699V20.0829H50.0547V19H47.8753V20.0829H48.0995V21.4516C47.7256 21.9946 47.5158 22.646 47.4979 23.3191C47.4947 23.5581 47.5177 23.7966 47.5664 24.0299C47.5876 24.1275 47.5741 24.23 47.5286 24.3176L47.1422 25.0581L45.9715 25.7861C45.8953 25.8333 45.8321 25.9009 45.7882 25.9821C45.7443 26.0634 45.7211 26.1556 45.7211 26.2494V26.8882C45.7209 26.9716 45.7476 27.0525 45.7968 27.1174L46.0552 27.4598V34.0992L45.7986 34.3668C45.7702 34.3957 45.7476 34.4304 45.7321 34.4688C45.7167 34.5072 45.7086 34.5485 45.7085 34.5903V35.5216C45.7087 35.6029 45.7384 35.6809 45.7913 35.7394L46.2326 36.2238H51.5055L52.0593 35.7442C52.0928 35.7146 52.1198 35.6775 52.1383 35.6356C52.1569 35.5936 52.1665 35.5479 52.1665 35.5015V34.5884C52.1668 34.5066 52.1367 34.4279 52.0828 34.3697L51.836 34.1011V27.456L52.1305 27.1222Z" fill="#FFBBA5"/>
<path d="M45.9246 36.2239H51.1974L51.7504 35.7443C51.7842 35.7149 51.8114 35.6779 51.8301 35.6359C51.8487 35.5939 51.8585 35.5481 51.8585 35.5016V34.5885C51.8588 34.5067 51.8286 34.4281 51.7747 34.3698L51.528 34.1012V27.4561L51.8215 27.1185C51.8801 27.0509 51.9123 26.9621 51.9116 26.8701V26.2572C51.9117 26.1614 51.8877 26.0674 51.8421 25.9849C51.7965 25.9024 51.7309 25.8345 51.6522 25.7881L50.4185 25.0582C50.3122 24.8232 50.2068 24.5575 50.1015 24.3139C50.066 24.2337 50.0568 24.1432 50.0753 24.0568C50.1251 23.8208 50.149 23.5794 50.1465 23.3375C50.1316 22.6662 49.927 22.0154 49.5593 21.47V20.083H47.7915V21.4517C47.4172 21.9945 47.2073 22.646 47.1899 23.3192C47.1869 23.5581 47.2096 23.7966 47.2574 24.03C47.2794 24.1274 47.2662 24.2301 47.2205 24.3177L46.8342 25.0582L45.6634 25.7862C45.5873 25.8334 45.5241 25.901 45.4802 25.9823C45.4363 26.0635 45.4131 26.1557 45.4131 26.2495V26.8883C45.4132 26.9718 45.4402 27.0527 45.4896 27.1175L45.7481 27.46V34.0993L45.4914 34.3669C45.4631 34.3958 45.4406 34.4305 45.4251 34.4689C45.4096 34.5073 45.4016 34.5486 45.4014 34.5904V35.5218C45.4016 35.603 45.4312 35.681 45.4842 35.7395L45.9246 36.2239Z" stroke="#1D1D1B" stroke-width="1.3" stroke-miterlimit="10" stroke-linecap="round" stroke-linejoin="round"/>
<path d="M46.8649 25.0609H50.4491" stroke="#1D1D1B" stroke-width="1.3" stroke-miterlimit="10" stroke-linecap="round" stroke-linejoin="round"/>
<path d="M46.0391 27.362H51.275" stroke="#1D1D1B" stroke-width="1.3" stroke-miterlimit="10" stroke-linecap="round" stroke-linejoin="round"/>
<path d="M46.4281 33.3539H50.885" stroke="#1D1D1B" stroke-width="1.3" stroke-miterlimit="10" stroke-linecap="round" stroke-linejoin="round"/>
<path d="M49.7466 19H47.5673V20.0829H49.7466V19Z" stroke="#1D1D1B" stroke-width="1.3" stroke-miterlimit="10" stroke-linecap="round" stroke-linejoin="round"/>
<path d="M17.4999 36L14.7991 28.1395H23.981L24.8005 33.5V35.0869L17.4999 36Z" fill="#ABFFA9"/>
<path d="M31.23 28.1395H23.9811L24.4643 31.4729L24.9476 34.0698L25.4309 38.0698L34.1295 37.584L33.5496 31.4729V28.1395H31.23Z" fill="#E8E8E8"/>
<path d="M41.8618 37.1395L42.4769 28.1395H48.6275L47.3974 36.577L41.8618 37.1395Z" fill="#A9DBFF"/>
<path d="M47.6609 37.1395L48.2557 28.1395H53.6087L55.3931 29.3395V31.1395L54.7983 36.5395L47.6609 37.1395Z" fill="#FFBBA5"/>
<path d="M33.6463 33.0698L34.1296 37.5698L42.8283 37.0698V27.0698L32.6798 28.0698L33.6463 33.0698Z" fill="#E4FFA9"/>
<path d="M46.6944 41.5698L46.399 45.5698H53.4601L54.4266 44.0698L54.9099 36.5698L47.6609 37.0698L46.6944 41.5698Z" fill="#D4A9FF"/>
<path d="M42.345 42.0698V37.5698H47.9999L47.4999 42L47.1776 46L41.8617 47.0698L35.5793 47.5698L34.6128 43.0698L42.345 42.0698Z" fill="#FFFB94"/>
<path d="M22.0481 49.0698L20.5983 44L26.3974 43.0698L27.3639 48.5698L22.0481 49.0698Z" fill="#A9FFF5"/>
<path d="M25.9142 39.0698L27.364 48.0698L35.0962 47.5698L34.6129 43.0698L42.3451 42.0698V37.0698L37.5125 37.5698H34.1296L25.9142 39.0698Z" fill="#FFCDCD"/>
<path d="M26.3974 43.5698L24.9476 34.0698L17 34.5L18.6652 39.5698L20.5983 43.5698H26.3974Z" fill="#FFE7A9"/>
<path d="M17 34L55 32.5" stroke="#1D1D1B" stroke-width="1.5" stroke-linecap="round"/>
<path d="M18.6652 39.0698L54.9098 36.5698" stroke="#1D1D1B" stroke-width="1.5" stroke-linecap="round"/>
<path d="M20.785 44.0599L54.4266 41.0698" stroke="#1D1D1B" stroke-width="1.5" stroke-linecap="round"/>
<path d="M48.5487 27.7442L47.5 46" stroke="#1D1D1B" stroke-width="1.5" stroke-linecap="round"/>
<path d="M42.345 28.0697L41.8617 46.5698" stroke="#1D1D1B" stroke-width="1.5" stroke-linecap="round"/>
<path d="M32.607 27.8374L34.4999 47.5" stroke="#1D1D1B" stroke-width="1.5" stroke-linecap="round"/>
<path d="M23.9023 27.7442L27.3413 47.907" stroke="#1D1D1B" stroke-width="1.5" stroke-linecap="round"/>
<path d="M9 23H11.5685C12.4179 23 13.1747 23.5366 13.4558 24.3381L21.611 47.5921C21.9191 48.4708 22.7928 49.0205 23.7182 48.9181L52.6848 45.7137C53.6264 45.6095 54.3657 44.859 54.4558 43.9159L55.7909 29.9343C55.903 28.76 54.9796 27.7442 53.7999 27.7442H15.2172" stroke="#1D1D1B" stroke-width="1.5" stroke-linecap="round"/>
<path d="M22.5905 49.093V53.8372" stroke="#1D1D1B" stroke-width="1.5" stroke-linecap="round"/>
<path d="M20.3253 54.4302H53.735" stroke="#1D1D1B" stroke-width="1.5" stroke-linecap="round"/>
<ellipse rx="3.39759" ry="3.55814" transform="matrix(-1 0 0 1 24.8555 58.5814)" stroke="#1D1D1B" stroke-width="1.5" stroke-linecap="round"/>
<ellipse rx="3.39759" ry="3.55814" transform="matrix(-1 0 0 1 48.6387 58.5814)" stroke="#1D1D1B" stroke-width="1.5" stroke-linecap="round"/>
</g>
<defs>
<clipPath id="clip0">
<rect width="295" height="81" fill="white"/>
</clipPath>
</defs>
</svg>
