<svg width="268" height="43" viewBox="0 0 268 43" fill="none" xmlns="http://www.w3.org/2000/svg">
<path d="M69.1585 35.48C66.7051 35.48 64.6251 35.0667 62.9185 34.24C61.2118 33.3867 59.7585 32.2934 58.5585 30.96L62.5585 26.92C64.4518 29.0534 66.7851 30.12 69.5585 30.12C71.0518 30.12 72.1585 29.8134 72.8785 29.2C73.5985 28.5867 73.9585 27.7734 73.9585 26.76C73.9585 25.9867 73.7451 25.3467 73.3185 24.84C72.8918 24.3067 72.0251 23.9467 70.7185 23.76L67.9585 23.4C64.9985 23.0267 62.8251 22.1334 61.4385 20.72C60.0785 19.3067 59.3985 17.4267 59.3985 15.08C59.3985 13.8267 59.6385 12.68 60.1185 11.64C60.5985 10.6 61.2785 9.70671 62.1585 8.96004C63.0651 8.21337 64.1585 7.64004 65.4385 7.24004C66.7451 6.81337 68.2251 6.60004 69.8785 6.60004C71.9851 6.60004 73.8385 6.93337 75.4385 7.60004C77.0385 8.26671 78.4118 9.24004 79.5585 10.52L75.5185 14.6C74.8518 13.8267 74.0385 13.2 73.0785 12.72C72.1451 12.2134 70.9585 11.96 69.5185 11.96C68.1585 11.96 67.1451 12.2 66.4785 12.68C65.8118 13.16 65.4785 13.8267 65.4785 14.68C65.4785 15.64 65.7318 16.3334 66.2385 16.76C66.7718 17.1867 67.6251 17.4934 68.7985 17.68L71.5585 18.12C74.4385 18.5734 76.5718 19.4667 77.9585 20.8C79.3451 22.1067 80.0385 23.9734 80.0385 26.4C80.0385 27.7334 79.7985 28.96 79.3185 30.08C78.8385 31.2 78.1318 32.16 77.1985 32.96C76.2918 33.76 75.1585 34.3867 73.7985 34.84C72.4385 35.2667 70.8918 35.48 69.1585 35.48Z" fill="#1D1D1B"/>
<path d="M94.7594 31.48H94.5594C94.3727 32.0134 94.1194 32.52 93.7994 33C93.5061 33.48 93.1194 33.9067 92.6394 34.28C92.1594 34.6534 91.5861 34.9467 90.9194 35.16C90.2794 35.3734 89.5327 35.48 88.6794 35.48C86.5194 35.48 84.8794 34.7734 83.7594 33.36C82.6661 31.92 82.1194 29.8667 82.1194 27.2V14H88.0394V26.68C88.0394 27.96 88.2661 28.9467 88.7194 29.64C89.1727 30.3334 89.9461 30.68 91.0394 30.68C91.4927 30.68 91.9461 30.6134 92.3994 30.48C92.8527 30.3467 93.2527 30.16 93.5994 29.92C93.9461 29.6534 94.2261 29.3334 94.4394 28.96C94.6527 28.5867 94.7594 28.1467 94.7594 27.64V14H100.679V35H94.7594V31.48Z" fill="#1D1D1B"/>
<path d="M103.788 14H109.708V17.52H109.908C110.201 16.3467 110.868 15.3867 111.908 14.64C112.974 13.8934 114.188 13.52 115.548 13.52C118.214 13.52 120.228 14.4534 121.588 16.32C122.948 18.1867 123.628 20.9067 123.628 24.48C123.628 28.0534 122.948 30.7867 121.588 32.68C120.228 34.5467 118.214 35.48 115.548 35.48C114.854 35.48 114.201 35.3734 113.588 35.16C112.974 34.9734 112.414 34.7067 111.908 34.36C111.428 33.9867 111.014 33.56 110.668 33.08C110.321 32.5734 110.068 32.04 109.908 31.48H109.708V43H103.788V14ZM113.588 30.68C114.708 30.68 115.628 30.2934 116.348 29.52C117.094 28.72 117.468 27.6534 117.468 26.32V22.68C117.468 21.3467 117.094 20.2934 116.348 19.52C115.628 18.72 114.708 18.32 113.588 18.32C112.468 18.32 111.534 18.6 110.788 19.16C110.068 19.6934 109.708 20.44 109.708 21.4V27.6C109.708 28.56 110.068 29.32 110.788 29.88C111.534 30.4134 112.468 30.68 113.588 30.68Z" fill="#1D1D1B"/>
<path d="M134.483 35.48C132.883 35.48 131.457 35.2267 130.203 34.72C128.95 34.1867 127.883 33.4534 127.003 32.52C126.15 31.56 125.497 30.4 125.043 29.04C124.617 27.68 124.403 26.16 124.403 24.48C124.403 22.8267 124.617 21.3334 125.043 20C125.47 18.64 126.097 17.48 126.923 16.52C127.777 15.56 128.817 14.8267 130.043 14.32C131.27 13.7867 132.67 13.52 134.243 13.52C135.977 13.52 137.457 13.8134 138.683 14.4C139.937 14.9867 140.95 15.7734 141.723 16.76C142.523 17.7467 143.097 18.8934 143.443 20.2C143.817 21.48 144.003 22.8267 144.003 24.24V26H130.523V26.32C130.523 27.7067 130.897 28.8134 131.643 29.64C132.39 30.44 133.563 30.84 135.163 30.84C136.39 30.84 137.39 30.6 138.163 30.12C138.937 29.6134 139.657 29.0134 140.323 28.32L143.283 32C142.35 33.0934 141.123 33.9467 139.603 34.56C138.11 35.1734 136.403 35.48 134.483 35.48ZM134.363 17.88C133.163 17.88 132.217 18.28 131.523 19.08C130.857 19.8534 130.523 20.8934 130.523 22.2V22.52H137.883V22.16C137.883 20.88 137.59 19.8534 137.003 19.08C136.443 18.28 135.563 17.88 134.363 17.88Z" fill="#1D1D1B"/>
<path d="M145.784 35V14H151.704V18.56H151.904C152.011 17.9734 152.198 17.4134 152.464 16.88C152.731 16.32 153.078 15.8267 153.504 15.4C153.958 14.9734 154.491 14.64 155.104 14.4C155.718 14.1334 156.438 14 157.264 14H158.304V19.52H156.824C155.091 19.52 153.798 19.7467 152.944 20.2C152.118 20.6534 151.704 21.4934 151.704 22.72V35H145.784Z" fill="#1D1D1B"/>
<path d="M165.436 35C163.41 35 161.916 34.5067 160.956 33.52C160.023 32.5334 159.556 31.1067 159.556 29.24V5.40004H165.476V30.4H168.116V35H165.436Z" fill="#1D1D1B"/>
<path d="M172.226 11.76C171.026 11.76 170.146 11.4934 169.586 10.96C169.052 10.4 168.786 9.69337 168.786 8.84004V7.96004C168.786 7.10671 169.052 6.41337 169.586 5.88004C170.146 5.32004 171.026 5.04004 172.226 5.04004C173.426 5.04004 174.292 5.32004 174.826 5.88004C175.386 6.41337 175.666 7.10671 175.666 7.96004V8.84004C175.666 9.69337 175.386 10.4 174.826 10.96C174.292 11.4934 173.426 11.76 172.226 11.76ZM169.266 14H175.186V35H169.266V14Z" fill="#1D1D1B"/>
<path d="M185.431 35.48C183.404 35.48 181.698 35.16 180.311 34.52C178.924 33.8534 177.684 32.92 176.591 31.72L180.071 28.2C180.818 29.0267 181.644 29.68 182.551 30.16C183.458 30.64 184.484 30.88 185.631 30.88C186.804 30.88 187.618 30.7067 188.071 30.36C188.524 29.9867 188.751 29.4934 188.751 28.88C188.751 27.8934 188.044 27.3067 186.631 27.12L184.351 26.84C179.631 26.2534 177.271 24.0934 177.271 20.36C177.271 19.3467 177.458 18.4267 177.831 17.6C178.231 16.7467 178.778 16.0267 179.471 15.44C180.191 14.8267 181.044 14.36 182.031 14.04C183.044 13.6934 184.178 13.52 185.431 13.52C186.524 13.52 187.484 13.6 188.311 13.76C189.164 13.8934 189.911 14.1067 190.551 14.4C191.218 14.6667 191.818 15.0134 192.351 15.44C192.911 15.84 193.458 16.2934 193.991 16.8L190.591 20.28C189.924 19.6134 189.164 19.0934 188.311 18.72C187.484 18.32 186.631 18.12 185.751 18.12C184.738 18.12 184.018 18.28 183.591 18.6C183.164 18.92 182.951 19.3467 182.951 19.88C182.951 20.44 183.098 20.88 183.391 21.2C183.711 21.4934 184.298 21.7067 185.151 21.84L187.511 22.16C192.124 22.7734 194.431 24.88 194.431 28.48C194.431 29.4934 194.218 30.4267 193.791 31.28C193.364 32.1334 192.751 32.88 191.951 33.52C191.178 34.1334 190.231 34.6134 189.111 34.96C188.018 35.3067 186.791 35.48 185.431 35.48Z" fill="#1D1D1B"/>
<path d="M203.115 35C201.061 35 199.501 34.48 198.435 33.44C197.395 32.4 196.875 30.88 196.875 28.88V18.6H193.915V14H195.395C196.195 14 196.741 13.8134 197.035 13.44C197.328 13.04 197.475 12.48 197.475 11.76V8.32004H202.795V14H206.955V18.6H202.795V30.4H206.635V35H203.115Z" fill="#1D1D1B"/>
<path d="M224.187 35C223.121 35 222.227 34.6667 221.507 34C220.814 33.3334 220.374 32.44 220.187 31.32H219.947C219.627 32.68 218.921 33.72 217.827 34.44C216.734 35.1334 215.387 35.48 213.787 35.48C211.681 35.48 210.067 34.92 208.947 33.8C207.827 32.68 207.267 31.2 207.267 29.36C207.267 27.1467 208.067 25.5067 209.667 24.44C211.294 23.3467 213.494 22.8 216.267 22.8H219.587V21.48C219.587 20.4667 219.321 19.6667 218.787 19.08C218.254 18.4667 217.361 18.16 216.107 18.16C214.934 18.16 214.001 18.4134 213.307 18.92C212.614 19.4267 212.041 20 211.587 20.64L208.067 17.52C208.921 16.2667 209.987 15.2934 211.267 14.6C212.574 13.88 214.334 13.52 216.547 13.52C219.534 13.52 221.774 14.1734 223.267 15.48C224.761 16.7867 225.507 18.6934 225.507 21.2V30.4H227.467V35H224.187ZM215.987 31.36C216.974 31.36 217.814 31.1467 218.507 30.72C219.227 30.2934 219.587 29.6 219.587 28.64V26.16H216.707C214.387 26.16 213.227 26.9467 213.227 28.52V29.12C213.227 29.8934 213.467 30.4667 213.947 30.84C214.427 31.1867 215.107 31.36 215.987 31.36Z" fill="#1D1D1B"/>
<path d="M231.721 35.48C230.867 35.48 230.241 35.2667 229.841 34.84C229.467 34.4134 229.281 33.8534 229.281 33.16V32.64C229.281 31.9467 229.467 31.3867 229.841 30.96C230.241 30.5334 230.867 30.32 231.721 30.32C232.574 30.32 233.187 30.5334 233.561 30.96C233.961 31.3867 234.161 31.9467 234.161 32.64V33.16C234.161 33.8534 233.961 34.4134 233.561 34.84C233.187 35.2667 232.574 35.48 231.721 35.48Z" fill="#1D1D1B"/>
<path d="M253.374 35C252.174 35 251.308 34.68 250.774 34.04C250.268 33.4 249.948 32.6 249.814 31.64H249.614C249.161 32.92 248.414 33.88 247.374 34.52C246.334 35.16 245.094 35.48 243.654 35.48C241.468 35.48 239.761 34.92 238.534 33.8C237.334 32.68 236.734 31.16 236.734 29.24C236.734 27.2934 237.441 25.8 238.854 24.76C240.294 23.72 242.521 23.2 245.534 23.2H249.614V21.16C249.614 19.6934 249.214 18.5734 248.414 17.8C247.614 17.0267 246.388 16.64 244.734 16.64C243.481 16.64 242.428 16.92 241.574 17.48C240.748 18.04 240.054 18.7867 239.494 19.72L237.574 17.92C238.134 16.8 239.028 15.8534 240.254 15.08C241.481 14.28 243.028 13.88 244.894 13.88C247.401 13.88 249.348 14.4934 250.734 15.72C252.121 16.9467 252.814 18.6534 252.814 20.84V32.2H255.174V35H253.374ZM244.174 32.76C244.974 32.76 245.708 32.6667 246.374 32.48C247.041 32.2934 247.614 32.0267 248.094 31.68C248.574 31.3334 248.948 30.9334 249.214 30.48C249.481 30.0267 249.614 29.5334 249.614 29V25.6H245.374C243.534 25.6 242.188 25.8667 241.334 26.4C240.508 26.9334 240.094 27.7067 240.094 28.72V29.56C240.094 30.5734 240.454 31.36 241.174 31.92C241.921 32.48 242.921 32.76 244.174 32.76Z" fill="#1D1D1B"/>
<path d="M257.342 35V14.36H260.542V18.16H260.742C261.115 17.1734 261.782 16.2934 262.742 15.52C263.702 14.7467 265.022 14.36 266.702 14.36H267.942V17.56H266.062C264.328 17.56 262.968 17.8934 261.982 18.56C261.022 19.2 260.542 20.0134 260.542 21V35H257.342Z" fill="#1D1D1B"/>
<path d="M22.217 11.872C22.3538 11.4992 22.5054 11.1305 22.6716 10.7668C22.7333 10.4961 22.7463 10.2184 22.7102 9.944C22.6951 9.83116 22.667 9.68307 22.4709 9.17177C22.169 8.3825 22.0409 8.22323 21.9572 7.80185C21.9131 7.57592 21.8953 7.34645 21.9043 7.11719H30.2184C30.2277 7.34645 30.21 7.57595 30.1655 7.80185C30.0825 8.22323 29.9537 8.3825 29.6518 9.17177C29.4557 9.68307 29.4276 9.83116 29.4126 9.944C29.3768 10.2184 29.3899 10.4961 29.4511 10.7668C29.6402 11.1804 29.8104 11.6004 29.9614 12.0256" stroke="#232323" stroke-width="1.3" stroke-miterlimit="10"/>
<path d="M30.1119 5.95644C30.0418 5.57494 29.936 5.19945 29.7956 4.83394C29.7122 4.73226 29.6053 4.64807 29.4822 4.58719C29.3591 4.52631 29.2227 4.49019 29.0826 4.48132H23.0442C22.9115 4.48969 22.7822 4.52208 22.6638 4.57653C22.5323 4.63773 22.4179 4.72493 22.3292 4.83159C22.0565 5.53948 21.915 6.2828 21.9102 7.03192C22.0148 7.06189 22.1194 7.11361 22.2233 7.14358C23.5017 7.15769 24.7794 7.12948 26.0578 7.14358H26.0754C27.3506 7.12948 28.6244 7.15769 29.9008 7.14358C30.0054 7.11361 30.11 7.06189 30.2139 7.03192C30.2114 6.67157 30.1773 6.31196 30.1119 5.95644V5.95644Z" stroke="#232323" stroke-width="1.3" stroke-miterlimit="10"/>
<path d="M34.9206 10.1324C33.3533 9.18382 31.1038 9.44343 30.1673 11.0162C29.8661 11.5228 29.7055 11.7175 29.7021 12.3068" stroke="#232323" stroke-width="1.3" stroke-miterlimit="10" stroke-linecap="round" stroke-linejoin="round"/>
<path d="M35.6704 9.91496L34.364 4.74878H33.444H32.5239C32.446 4.90161 32.3552 5.06413 32.25 5.23311C32.2069 5.30235 32.1635 5.36872 32.1204 5.43258C32.0697 5.50762 32.0381 5.59393 32.0284 5.68398C32.0187 5.77403 32.0312 5.86509 32.0648 5.9492C32.1898 6.26112 32.2894 6.58267 32.3624 6.91068C32.4991 7.52668 32.5892 7.93316 32.4341 8.41282C32.3175 8.76907 32.1057 9.04137 31.9775 9.20605C31.7772 9.46328 31.574 9.68679 31.4225 9.80769" stroke="#232323" stroke-width="1.3" stroke-miterlimit="10" stroke-linecap="round" stroke-linejoin="round"/>
<path d="M34.3641 4.61016V3.182C34.3641 3.04764 34.4175 2.91879 34.5126 2.82379C34.6076 2.72879 34.7366 2.67542 34.871 2.67542H35.5394C35.5667 2.67545 35.5936 2.66911 35.618 2.65689C35.6424 2.64468 35.6635 2.62693 35.6798 2.60507C35.6961 2.58321 35.7071 2.55785 35.7118 2.531C35.7165 2.50416 35.7149 2.47658 35.7071 2.45048C35.6625 2.30229 35.5983 2.16075 35.5161 2.02965C35.2289 1.57366 34.8035 1.38388 34.5142 1.25293C34.1972 1.11146 33.8581 1.02589 33.5119 1H31.3706C31.3325 1 31.296 1.01512 31.269 1.04203C31.2421 1.06895 31.227 1.10545 31.227 1.14351V1.8761C31.227 1.90715 31.2371 1.93736 31.2557 1.9622C31.2744 1.98704 31.3005 2.00517 31.3304 2.01386L32.0282 2.21656C32.0969 2.23648 32.1588 2.27501 32.2069 2.32788C32.2551 2.38075 32.2877 2.44591 32.3011 2.51613C32.3675 2.867 32.44 4.27184 32.5028 4.61051" stroke="#232323" stroke-width="1.3" stroke-miterlimit="10" stroke-linecap="round" stroke-linejoin="round"/>
<path d="M31.2873 1.99268L31.227 2.54481C31.1759 2.6891 31.0989 2.82284 30.9997 2.93945C30.9318 3.01917 30.854 3.08993 30.7682 3.15004C30.7323 3.31938 30.6903 3.50056 30.6347 3.6907C30.584 3.86291 30.5291 4.02435 30.472 4.17431C30.469 4.18163 30.4687 4.18983 30.4714 4.19731C30.474 4.2048 30.4794 4.21103 30.4863 4.21479C30.4933 4.21856 30.5015 4.21958 30.5092 4.21767C30.5169 4.21576 30.5236 4.21104 30.528 4.20445C30.747 3.91206 30.9362 3.65841 31.1193 3.40979C31.2212 3.27131 31.3347 3.11525 31.5475 3.00259C31.7231 2.91216 31.9191 2.86865 32.1165 2.87631H32.3696" stroke="#232323" stroke-width="1.3" stroke-miterlimit="10" stroke-linecap="round" stroke-linejoin="round"/>
<path d="M31.227 1.9549L30.4089 1.91902C30.377 1.91755 30.3469 1.90387 30.3249 1.88082C30.3028 1.85778 30.2905 1.82714 30.2904 1.79525V1.14947C30.2905 1.11696 30.3034 1.08578 30.3263 1.06269C30.3492 1.03959 30.3803 1.02644 30.4128 1.02606L31.227 1.01709V1.9549Z" stroke="#232323" stroke-width="1.3" stroke-miterlimit="10" stroke-linecap="round" stroke-linejoin="round"/>
<path d="M5.83246 11.1273C6.03832 10.8463 6.30432 10.6193 6.60932 10.4642C6.35936 9.90414 6.30628 9.27054 6.45935 8.67392C6.61242 8.07731 6.96191 7.55557 7.44684 7.19972C7.93178 6.84388 8.52139 6.67653 9.11277 6.72687C9.70416 6.77721 10.2598 7.04205 10.6827 7.47517C11.08 6.94073 11.6281 6.54903 12.25 6.35495C12.8719 6.16087 13.5367 6.17413 14.151 6.39287C14.4243 6.49018 14.6815 6.62599 14.9161 6.7952" stroke="#232323" stroke-width="1.3" stroke-linecap="round" stroke-linejoin="round"/>
<path d="M14.8961 11.872V7.67175C14.8961 7.36231 15.1466 7.11145 15.4556 7.11145H19.9365C20.2456 7.11145 20.4961 7.36231 20.4961 7.67175V11.872" stroke="#232323" stroke-width="1.3" stroke-miterlimit="10" stroke-linecap="round" stroke-linejoin="round"/>
<path d="M19.3469 2.73962H16.0451C15.8217 2.73962 15.6074 2.82902 15.4494 2.98814C15.2914 3.14726 15.2026 3.36307 15.2026 3.5881L14.9943 6.6839C14.9943 6.79733 15.039 6.90611 15.1187 6.98632C15.1983 7.06652 15.3063 7.11158 15.4189 7.11158H19.9731C20.0858 7.11158 20.1938 7.06652 20.2734 6.98632C20.3531 6.90611 20.3978 6.79733 20.3978 6.6839L20.1895 3.5881C20.1895 3.36307 20.1007 3.14726 19.9427 2.98814C19.7847 2.82902 19.5704 2.73962 19.3469 2.73962V2.73962Z" stroke="#232323" stroke-width="1.3" stroke-miterlimit="10" stroke-linecap="round" stroke-linejoin="round"/>
<path d="M17.7206 4.01652C18.0055 4.01652 18.2364 3.79659 18.2364 3.52529C18.2364 3.25399 18.0055 3.03406 17.7206 3.03406C17.4358 3.03406 17.2048 3.25399 17.2048 3.52529C17.2048 3.79659 17.4358 4.01652 17.7206 4.01652Z" fill="#232323"/>
<path d="M16.1868 2.73962C16.1457 2.82424 16.1115 2.91194 16.0845 3.00189C16.0461 3.1386 16.027 3.27987 16.0275 3.42175C15.9961 4.46506 16.4611 5.0011 16.4611 5.0011C16.5805 5.19332 16.7388 5.359 16.926 5.48767C17.1477 5.64222 17.4105 5.72865 17.6816 5.73613C17.9805 5.73171 18.2695 5.62937 18.5034 5.44511C18.6589 5.32193 18.7902 5.1714 18.8905 5.0011C19.2392 4.46276 19.3229 3.79214 19.3554 3.42175C19.3745 3.28186 19.3686 3.13976 19.338 3.00189C19.3188 2.91411 19.2825 2.83088 19.2311 2.75688" stroke="#232323" stroke-width="1.3" stroke-miterlimit="10" stroke-linecap="round" stroke-linejoin="round"/>
<path d="M40.8756 11.8337L41.1474 11.5401C41.2017 11.4813 41.2315 11.404 41.2308 11.324V10.7909C41.2309 10.7077 41.2087 10.6259 41.1664 10.5541C41.1242 10.4824 41.0635 10.4233 40.9907 10.383L39.8485 9.74812C39.7501 9.54373 39.6525 9.31265 39.555 9.10075C39.5222 9.03103 39.5137 8.95231 39.5308 8.87717C39.5769 8.67186 39.599 8.4619 39.5967 8.25149C39.5829 7.66767 39.3935 7.10159 39.0531 6.62722V5.4209H37.4165V6.61137C37.0699 7.08344 36.8756 7.65011 36.8595 8.23564C36.8568 8.44341 36.8777 8.65082 36.9221 8.85381C36.9424 8.93858 36.9302 9.0279 36.8879 9.10409L36.5302 9.74812L35.4464 10.3813C35.3759 10.4223 35.3174 10.4811 35.2767 10.5518C35.2361 10.6225 35.2146 10.7027 35.2146 10.7843V11.3399" stroke="#232323" stroke-width="1.3" stroke-miterlimit="10" stroke-linecap="round" stroke-linejoin="round"/>
<path d="M36.5586 9.75061H39.8768" stroke="#232323" stroke-width="1.3" stroke-miterlimit="10" stroke-linecap="round" stroke-linejoin="round"/>
<path d="M39.2265 4.479H37.2089V5.42087H39.2265V4.479Z" stroke="#232323" stroke-width="1.3" stroke-miterlimit="10" stroke-linecap="round" stroke-linejoin="round"/>
<path d="M7.95801 17.5254L41.0089 16.2208" stroke="#232323" stroke-width="1.5" stroke-linecap="round"/>
<path d="M9.40631 21.9348L40.9304 19.7604" stroke="#232323" stroke-width="1.5" stroke-linecap="round"/>
<path d="M11.2501 26.2753L40.5101 23.6745" stroke="#232323" stroke-width="1.5" stroke-linecap="round"/>
<path d="M35.3977 12.0845L34.4856 27.9627" stroke="#232323" stroke-width="1.5" stroke-linecap="round"/>
<path d="M30.0021 12.3676L29.5818 28.4582" stroke="#232323" stroke-width="1.5" stroke-linecap="round"/>
<path d="M21.5323 12.1655L23.1787 29.2672" stroke="#232323" stroke-width="1.5" stroke-linecap="round"/>
<path d="M13.9614 12.0845L16.9525 29.6213" stroke="#232323" stroke-width="1.5" stroke-linecap="round"/>
<path d="M0.999963 7.95813H3.04924C3.89867 7.95813 4.65543 8.49469 4.93654 9.29625L11.8999 29.1519C12.2081 30.0305 13.0817 30.5803 14.0072 30.4779L38.7847 27.7369C39.7263 27.6327 40.4657 26.8822 40.5557 25.9391L41.6695 14.2745C41.7817 13.1002 40.8583 12.0844 39.6786 12.0844H6.40741" stroke="#232323" stroke-width="1.5" stroke-linecap="round"/>
<path d="M12.8204 30.6528V34.7791" stroke="#232323" stroke-width="1.5" stroke-linecap="round"/>
<path d="M10.8503 35.2948H39.9087" stroke="#232323" stroke-width="1.5" stroke-linecap="round"/>
<ellipse rx="2.95509" ry="3.09473" transform="matrix(-1 0 0 1 14.7903 38.9053)" stroke="#232323" stroke-width="1.5" stroke-linecap="round"/>
<ellipse rx="2.95509" ry="3.09473" transform="matrix(-1 0 0 1 35.476 38.9053)" stroke="#232323" stroke-width="1.5" stroke-linecap="round"/>
</svg>
