<?xml version="1.0" standalone="no"?>
<!DOCTYPE svg PUBLIC "-//W3C//DTD SVG 20010904//EN"
 "http://www.w3.org/TR/2001/REC-SVG-20010904/DTD/svg10.dtd">
<svg version="1.0" xmlns="http://www.w3.org/2000/svg"
 width="870.000000pt" height="870.000000pt" viewBox="0 0 870.000000 870.000000"
 preserveAspectRatio="xMidYMid meet">
<metadata>
Created by potrace 1.14, written by Peter Selinger 2001-2017
</metadata>
<g transform="translate(0.000000,870.000000) scale(0.100000,-0.100000)"
fill="#000000" stroke="none">
<path d="M4109 8696 c-2 -2 -47 -6 -99 -10 -100 -7 -153 -12 -204 -20 -17 -2
-53 -8 -81 -11 -125 -17 -291 -49 -420 -82 -55 -13 -107 -26 -115 -28 -8 -2
-87 -27 -175 -55 -266 -86 -541 -204 -748 -321 -50 -29 -105 -60 -122 -69
-377 -213 -797 -568 -1125 -950 -312 -364 -605 -876 -768 -1340 -89 -254 -174
-583 -196 -760 -3 -19 -9 -66 -15 -105 -29 -200 -36 -313 -36 -600 1 -251 11
-436 30 -554 2 -13 7 -45 10 -70 4 -25 10 -68 15 -96 5 -27 12 -61 14 -75 32
-181 94 -419 163 -620 27 -78 116 -307 132 -338 5 -9 41 -82 80 -162 216 -443
475 -803 826 -1155 260 -259 502 -449 831 -652 383 -236 863 -426 1334 -527
132 -28 278 -52 365 -61 33 -4 71 -8 85 -11 163 -25 806 -25 935 1 11 2 45 7
76 10 31 3 67 8 80 10 13 3 41 7 64 11 22 3 96 17 165 31 69 13 134 26 146 29
41 8 311 86 384 111 214 73 322 119 555 235 187 93 193 96 340 187 343 211
704 514 957 801 31 36 71 81 88 100 67 76 261 342 337 460 154 244 276 482
382 748 72 181 194 582 206 677 1 11 9 56 18 100 14 68 23 130 52 340 20 147
27 646 12 820 -12 139 -16 178 -22 210 -2 17 -7 48 -10 70 -5 37 -10 68 -21
135 -19 111 -70 337 -94 415 -48 156 -92 294 -100 310 -5 11 -28 70 -51 130
-40 107 -186 414 -249 525 -77 135 -310 485 -340 510 -3 3 -21 25 -40 50 -154
201 -476 529 -660 670 -25 19 -47 37 -50 40 -3 4 -32 26 -65 51 -33 24 -62 47
-65 50 -11 14 -309 209 -319 209 -6 0 -11 5 -11 10 0 6 -5 10 -10 10 -6 0 -28
11 -50 25 -78 49 -327 174 -466 233 -336 144 -792 273 -1089 307 -33 4 -68 9
-77 11 -9 1 -48 6 -85 9 -37 4 -81 9 -98 11 -35 6 -601 14 -606 10z"/>
</g>
</svg>
