<svg width="142" height="142" viewBox="0 0 142 142" fill="none" xmlns="http://www.w3.org/2000/svg">
<path d="M129.374 122.093V49.9301C129.374 42.6148 124.023 36.5961 117.227 35.8182C116.905 35.7833 116.609 35.6447 116.394 35.4286C116.178 35.2125 116.059 34.9337 116.057 34.6444V16.8203H117.227V9H104.774V16.8203H105.936V34.6444C105.937 34.933 105.819 35.2118 105.605 35.4281C105.391 35.6444 105.095 35.7831 104.774 35.8182C97.9403 36.5961 92.6275 42.6421 92.6275 49.9301V122.093C91.0367 122.379 89.6052 123.147 88.5746 124.265C87.544 125.384 86.9775 126.786 86.9707 128.235V132.705H135.031V128.235C135.024 126.786 134.457 125.384 133.427 124.265C132.396 123.147 130.965 122.379 129.374 122.093V122.093Z" fill="#FFAD93"/>
<path d="M116.359 9H103.906V16.8271H116.359V9Z" stroke="#232323" stroke-miterlimit="10"/>
<path d="M128.507 122.094V49.9302C128.507 42.6149 123.156 36.5961 116.36 35.8182C116.038 35.7833 115.742 35.6448 115.527 35.4287C115.311 35.2126 115.192 34.9337 115.19 34.6445V16.8203H105.069V34.6445C105.07 34.9331 104.952 35.2119 104.738 35.4281C104.524 35.6444 104.228 35.7832 103.907 35.8182C97.0808 36.5961 91.7604 42.6422 91.7604 49.9302V122.094C90.1696 122.379 88.738 123.147 87.7075 124.266C86.6769 125.384 86.1103 126.787 86.1035 128.235V132.705H134.164V128.235C134.157 126.787 133.59 125.384 132.56 124.266C131.529 123.147 130.098 122.379 128.507 122.094V122.094Z" stroke="#232323" stroke-miterlimit="10"/>
<path d="M105.068 31.7031H115.19" stroke="#232323" stroke-miterlimit="10"/>
<path d="M95.2012 117.603C97.3098 119.481 100.166 120.536 103.144 120.538H117.072C120.05 120.538 122.907 119.483 125.014 117.603L125.068 117.556" stroke="#232323" stroke-miterlimit="10"/>
<path d="M123.011 46.4695C122.172 45.5634 121.122 44.8314 119.934 44.3246C118.745 43.8179 117.448 43.5485 116.131 43.5352H104.152C102.835 43.5475 101.537 43.8165 100.349 44.3234C99.1607 44.8302 98.1107 45.5627 97.2724 46.4695L97.2266 46.5172" stroke="#232323" stroke-miterlimit="10"/>
<path d="M6.00088 51.2427C6.00045 50.648 6.10812 50.0591 6.31785 49.5096C6.52759 48.9601 6.83526 48.4608 7.22317 48.0403C7.61107 47.6198 8.07183 47.2863 8.57873 47.059C9.08564 46.8316 9.62883 46.7148 10.1774 46.7153H29.9087L17.5208 46.6084C11.1541 43.5319 7.16514 39.8351 7.84587 37.1187C8.79955 33.3364 18.4842 32.9086 29.4745 36.1597C38.5049 38.8334 45.6049 43.1576 47.3281 46.7153H62.6594C63.7671 46.7153 64.8294 47.1923 65.6127 48.0413C66.3959 48.8904 66.8359 50.0419 66.8359 51.2427V51.2427C66.8351 52.4431 66.3948 53.5941 65.6117 54.443C64.8287 55.2918 63.7668 55.7691 62.6594 55.77V124.215C63.7671 124.215 64.8294 124.692 65.6127 125.541C66.3959 126.39 66.8359 127.542 66.8359 128.743C66.8359 129.943 66.3959 131.095 65.6127 131.944C64.8294 132.793 63.7671 133.27 62.6594 133.27H10.1874C9.0797 133.27 8.01733 132.793 7.23409 131.944C6.45085 131.095 6.01083 129.943 6.01083 128.743C6.01083 127.542 6.45085 126.39 7.23409 125.541C8.01733 124.692 9.0797 124.215 10.1874 124.215V55.77C9.63807 55.7715 9.09365 55.6554 8.5858 55.4285C8.07795 55.2016 7.61653 54.8683 7.22766 54.4478C6.8388 54.0273 6.53028 53.5277 6.31978 52.9777C6.10928 52.4277 6.00088 51.8381 6.00088 51.2427V51.2427Z" fill="#E4FFA9"/>
<path d="M10.9979 124.198H63.4703C65.7769 124.198 67.6465 126.225 67.6465 128.725C67.6465 131.226 65.7769 133.253 63.4703 133.253H10.9979C8.69131 133.253 6.82138 131.226 6.82138 128.725C6.82138 126.225 8.69131 124.198 10.9979 124.198Z" stroke="black" stroke-miterlimit="10"/>
<path d="M10.9979 46.7148H63.4703C65.7769 46.7148 67.6465 48.7418 67.6465 51.2422C67.6465 53.7426 65.7769 55.7696 63.4703 55.7696H10.9979C8.69131 55.7696 6.82138 53.7426 6.82138 51.2422C6.82138 48.7418 8.69131 46.7148 10.9979 46.7148Z" stroke="black" stroke-miterlimit="10"/>
<path d="M63.4704 55.7695H10.998V124.201H63.4704V55.7695Z" stroke="black" stroke-miterlimit="10"/>
<path d="M10.7857 65.4976H37.3472C37.6571 65.4976 37.964 65.5638 38.2503 65.6925C38.5366 65.8211 38.7966 66.0097 39.0156 66.2475C39.2346 66.4852 39.4082 66.7674 39.5265 67.0779C39.6448 67.3884 39.7055 67.7212 39.7051 68.0571V115.876C39.7051 116.212 39.644 116.544 39.5256 116.854C39.4071 117.164 39.2336 117.446 39.0146 117.684C38.7957 117.921 38.5357 118.109 38.2496 118.238C37.9636 118.366 37.6569 118.432 37.3472 118.432H11.0979" stroke="black" stroke-miterlimit="10"/>
<path d="M48.1973 46.868C46.6089 43.2817 39.4301 38.872 30.2714 36.1734C19.2778 32.9223 9.59283 33.35 8.64243 37.1324C7.95841 39.8452 11.9507 43.5491 18.3173 46.622" stroke="black" stroke-miterlimit="10"/>
<path d="M72.6247 28.9434C66.6756 28.9434 60.97 31.3534 56.7633 35.6434C52.5567 39.9333 50.1934 45.7518 50.1934 51.8187V107.888C50.1934 108.912 50.5923 109.894 51.3024 110.619C52.0125 111.343 52.9757 111.75 53.9799 111.75H67.0096V127.509C67.0096 129.025 67.6004 130.48 68.6521 131.552C69.7038 132.625 71.1301 133.228 72.6174 133.228C74.1047 133.228 75.5311 132.625 76.5827 131.552C77.6344 130.48 78.2252 129.025 78.2252 127.509V111.75H91.2525C92.2567 111.75 93.2199 111.343 93.93 110.619C94.6401 109.894 95.039 108.912 95.039 107.888V51.8087C95.0364 45.7466 92.6743 39.9333 88.4716 35.646C84.2689 31.3587 78.5692 28.948 72.6247 28.9434V28.9434Z" fill="#D4A9FF"/>
<path d="M72.1848 28.9435C78.134 28.9435 83.8394 31.3536 88.0461 35.6436C92.2528 39.9335 94.6161 45.7519 94.6161 51.8189V107.888C94.6161 108.912 94.2172 109.895 93.5071 110.619C92.797 111.343 91.8339 111.75 90.8296 111.75H53.5521C52.5479 111.75 51.5848 111.343 50.8747 110.619C50.1646 109.895 49.7656 108.912 49.7656 107.888V51.8089C49.7656 45.742 52.1289 39.9236 56.3356 35.6336C60.5423 31.3437 66.2478 28.9336 72.197 28.9336L72.1848 28.9435Z" stroke="#232323" stroke-miterlimit="10"/>
<path d="M66.582 111.712H77.7977V127.509C77.7977 129.026 77.2069 130.48 76.1552 131.553C75.1035 132.625 73.6772 133.228 72.1899 133.228C70.7026 133.228 69.2762 132.625 68.2245 131.553C67.1729 130.48 66.582 129.026 66.582 127.509V111.712Z" stroke="#232323" stroke-miterlimit="10"/>
<path d="M79.1024 89.8113V57.398C79.1024 52.6041 76.0034 48.7178 72.1828 48.7178C68.3622 48.7178 65.2656 52.6041 65.2656 57.398V89.8113" stroke="#232323" stroke-miterlimit="10"/>
</svg>
