<svg width="142" height="142" viewBox="0 0 142 142" fill="none" xmlns="http://www.w3.org/2000/svg">
<path d="M133.86 77.3267C133.722 74.2638 133.528 69.8226 130.967 66.0552C128.78 62.8697 125.957 61.7211 123.05 60.5572C119.738 59.197 116.151 58.8737 112.683 59.623V59.7149C109.934 57.5127 106.673 56.2267 103.285 56.0088V48.3514C103.294 47.7709 103.2 47.1942 103.007 46.6542C102.814 46.1142 102.527 45.6216 102.162 45.2047C101.797 44.7878 101.361 44.4548 100.879 44.2248C100.397 43.9947 99.879 43.8722 99.3543 43.8643H97.375V47.2182H99.3543C99.6503 47.1965 99.9424 47.3024 100.169 47.5137C100.396 47.7249 100.541 48.0251 100.572 48.3514V56.1007C97.0114 56.4861 93.6366 58.0438 90.8836 60.5725V60.1284C87.8467 59.2585 84.6549 59.3008 81.6377 60.2509C78.7787 61.3446 76.2942 63.3875 74.5233 66.1011C71.9489 69.8685 71.7552 74.3404 71.6306 77.3727C71.6306 78.6132 71.5061 81.6149 73.3885 90.0226C73.6791 91.2937 74.4127 94.5098 76.8487 102.948C80.5028 115.521 80.0044 112.29 82.1498 119.886C83.0348 122.661 84.0749 125.371 85.264 128.003C85.746 129.433 86.5178 130.722 87.5201 131.77C88.9163 133.01 90.6925 133.603 92.4754 133.424C93.9366 133.278 95.3293 132.673 96.4891 131.678C97.1033 132.772 97.9568 133.676 98.9705 134.308C99.9841 134.939 101.125 135.278 102.289 135.293C103.572 135.278 104.826 134.87 105.911 134.113C106.996 133.355 107.87 132.279 108.434 131.005V131.219C109.782 132.393 111.377 133.168 113.071 133.47C114.849 133.645 116.619 133.052 118.012 131.816C119.019 130.769 119.796 129.48 120.282 128.049C121.464 125.416 122.5 122.705 123.382 119.932C125.542 112.275 125.043 115.567 128.684 102.994C131.133 94.5557 131.867 91.3397 132.144 90.0685C133.971 81.5689 133.915 78.5672 133.86 77.3267Z" fill="#ABFFA9"/>
<path d="M119.739 77.8839C119.739 65.7538 111.485 55.9087 101.195 55.9087C90.9045 55.9087 82.6504 65.7538 82.6504 77.8839C82.6502 79.236 82.7561 80.5855 82.9668 81.917C83.2144 84.3706 83.6546 87.1003 84.3425 90.6733C85.8695 99.123 87.0939 98.9083 88.8135 108.109C90.1892 115.439 90.1891 119.074 92.5553 125.346C93.2523 127.172 94.0565 128.944 94.9628 130.652C95.4693 131.995 96.3126 133.148 97.3917 133.97C98.4709 134.793 99.7401 135.251 101.047 135.29C102.354 135.329 103.643 134.947 104.76 134.189C105.877 133.432 106.774 132.331 107.344 131.02C108.32 129.196 109.184 127.3 109.93 125.346C112.338 119.074 112.269 115.439 113.672 108.109C115.447 98.9083 116.616 99.123 118.157 90.6733C118.859 86.7169 119.326 83.8032 119.533 81.1656C119.671 80.0785 119.74 78.9818 119.739 77.8839V77.8839Z" stroke="#1D1D1B" stroke-linecap="round" stroke-linejoin="round"/>
<path d="M111.753 59.7687C115.201 59.0221 118.768 59.3442 122.061 60.6995C124.951 61.8591 127.759 63.0035 129.934 66.1774C132.48 69.9311 132.686 74.3866 132.81 77.4079C132.81 78.6439 132.92 81.6346 131.048 90.0117C130.773 91.2782 130.044 94.4826 127.608 102.89C123.988 115.418 124.483 112.198 122.336 119.767C121.459 122.529 120.429 125.23 119.254 127.854C118.77 129.28 117.998 130.564 116.996 131.607C115.612 132.839 113.851 133.429 112.083 133.255C110.402 132.958 108.819 132.186 107.486 131.012" stroke="#1D1D1B" stroke-linecap="round" stroke-linejoin="round"/>
<path d="M89.7846 59.9983C86.7525 59.1289 83.5657 59.1711 80.5532 60.1207C77.7008 61.2182 75.2213 63.2592 73.45 65.9678C70.8934 69.7332 70.6862 74.2027 70.5618 77.2334C70.5618 78.4732 70.4513 81.4733 72.3169 89.8766C72.6071 91.147 73.3395 94.3614 75.7856 102.795C79.4201 115.362 78.9225 112.132 81.0783 119.724C81.9599 122.496 82.9936 125.205 84.1739 127.837C84.6595 129.267 85.4349 130.555 86.4403 131.602C87.8307 132.837 89.5983 133.43 91.3737 133.255C92.8373 133.111 94.233 132.506 95.3952 131.51" stroke="#1D1D1B" stroke-linecap="round" stroke-linejoin="round"/>
<path d="M102.095 55.9089H99.3717V47.2886C99.3375 46.9604 99.1946 46.6592 98.972 46.4465C98.7494 46.2337 98.464 46.1253 98.1736 46.1434H96.2129V42.7695H98.1736C99.2112 42.7899 100.199 43.277 100.922 44.1241C101.644 44.9711 102.041 46.1091 102.027 47.2886L102.095 55.9089Z" stroke="#1D1D1B" stroke-linecap="round" stroke-linejoin="round"/>
<path d="M57.5529 84.5135C57.73 82.5718 57.9053 80.6291 58.0786 78.6855L47.568 37.0774V24.462C47.568 23.38 47.9976 22.3422 48.7625 21.5771C49.5273 20.812 50.5646 20.3821 51.6463 20.3821H57.0185C57.238 20.3824 57.4544 20.3313 57.6506 20.2329C57.8467 20.1345 58.0171 19.9916 58.1482 19.8155C58.2793 19.6395 58.3674 19.4352 58.4054 19.219C58.4435 19.0028 58.4305 18.7807 58.3674 18.5704C58.0092 17.3769 57.4923 16.237 56.8308 15.1811C54.5201 11.5086 51.0946 9.9801 48.7666 8.92545C46.2165 7.7906 43.489 7.10628 40.7053 6.90283H23.4765C23.1701 6.90283 22.8763 7.0246 22.6596 7.24135C22.443 7.4581 22.3212 7.75208 22.3212 8.05861V7.0502L15.7705 7.12243C15.5082 7.12548 15.2577 7.23185 15.0734 7.41847C14.889 7.60509 14.7856 7.8569 14.7856 8.1193V13.3203C14.7854 13.5774 14.8844 13.8245 15.062 14.0103C15.2396 14.196 15.482 14.306 15.7387 14.3172L22.3212 14.6061V13.9675C22.3211 14.1519 22.3651 14.3336 22.4496 14.4974C22.534 14.6613 22.6564 14.8026 22.8065 14.9095L22.327 19.3304C21.9163 20.4924 21.2967 21.5696 20.4987 22.5088C19.952 23.1508 19.326 23.7207 18.6357 24.2049C18.3469 25.5716 18.009 27.0279 17.5613 28.5593C17.154 29.9462 16.7121 31.2465 16.2529 32.4543C16.2281 32.5132 16.2262 32.5792 16.2475 32.6395C16.2688 32.6998 16.3117 32.75 16.368 32.7803C16.4242 32.8106 16.4898 32.8189 16.5518 32.8035C16.6138 32.7881 16.6679 32.7501 16.7035 32.697C18.4653 30.3421 19.9875 28.2992 21.4605 26.2968C22.2808 25.1815 23.1935 23.9275 24.9062 23.0173C26.3195 22.2902 27.8962 21.9399 29.4842 22.0002H31.5061C31.8729 23.9188 32.2426 25.8432 32.5776 27.6549V37.0947H32.748C32.1213 38.3256 31.3905 39.6345 30.5442 40.9955C30.1976 41.5531 29.8482 42.0877 29.5016 42.602C29.0932 43.2064 28.839 43.9015 28.7609 44.6268C28.6829 45.352 28.7835 46.0854 29.0539 46.7628C30.0603 49.275 30.861 51.8647 31.4483 54.5066C32.5487 59.4677 33.2737 62.7415 32.0259 66.6047C31.0872 69.4739 29.3831 71.667 28.352 72.9933C26.7403 75.065 25.1056 76.8651 23.8867 77.8389C20.7678 79.5425 18.0215 81.8538 15.8099 84.6363C13.5982 87.4188 11.966 90.6162 11.0095 94.04C10.053 97.4637 9.79163 101.044 10.2408 104.571C10.6899 108.097 11.8404 111.498 13.6245 114.572C15.1231 117.133 15.9201 120.043 15.9352 123.01V129.696C15.9352 131.255 16.5544 132.751 17.6567 133.854C18.759 134.956 20.254 135.576 21.8129 135.576H52.5416C54.1005 135.576 55.5955 134.956 56.6978 133.854C57.8001 132.751 58.4194 131.255 58.4194 129.696V118.473C58.425 117.369 58.7402 116.289 59.3292 115.356V115.356C62.2659 110.665 63.6726 105.177 63.3543 99.6513C63.0361 94.1257 61.0087 88.8357 57.5529 84.5135V84.5135Z" fill="#A9DBFF"/>
<path d="M49.5634 77.5422C36.9279 69.8949 20.3014 74.0714 12.7507 86.7514C10.3225 90.8354 9.02792 95.4926 9.00045 100.243C8.97298 104.994 10.2136 109.666 12.5944 113.777C14.096 116.34 14.8946 119.253 14.9097 122.223V128.916C14.9097 130.477 15.5302 131.974 16.6347 133.078C17.7391 134.182 19.2372 134.802 20.7991 134.802H51.5951C53.1571 134.802 54.6551 134.182 55.7596 133.078C56.8641 131.974 57.4845 130.477 57.4845 128.916V117.682C57.4901 116.577 57.806 115.496 58.3962 114.561V114.561C60.2749 111.558 61.5374 108.212 62.1102 104.717C62.683 101.223 62.5548 97.6488 61.7328 94.204C60.9109 90.7592 59.4117 87.5121 57.3225 84.6517C55.2333 81.7912 52.5958 79.3745 49.5634 77.5422V77.5422Z" stroke="black" stroke-miterlimit="10"/>
<path d="M56.5901 83.7056C56.7676 81.7619 56.9431 79.8173 57.1168 77.8717L46.5852 36.2222H31.7501C31.1221 37.4543 30.3899 38.7645 29.5419 40.1268C29.1946 40.685 28.8445 41.2201 28.4972 41.735C28.088 42.3399 27.8333 43.0357 27.7551 43.7617C27.6769 44.4877 27.7777 45.2218 28.0486 45.8999C29.057 48.4146 29.8593 51.0069 30.4478 53.6514C31.5504 58.6175 32.2768 61.8945 31.0266 65.7616C30.086 68.6336 28.3785 70.8289 27.3453 72.1565C25.7304 74.2303 24.0924 76.0322 22.8711 77.0069" stroke="black" stroke-miterlimit="10"/>
<path d="M46.5859 26.7725H31.5801V36.2217H46.5859V26.7725Z" stroke="black" stroke-miterlimit="10"/>
<path d="M46.5844 26.7727V23.5912C46.5844 22.508 47.0149 21.4693 47.7813 20.7034C48.5476 19.9375 49.587 19.5072 50.6708 19.5072H56.0596C56.2795 19.5075 56.4964 19.4563 56.6929 19.3578C56.8895 19.2593 57.0602 19.1162 57.1916 18.94C57.3229 18.7638 57.4112 18.5593 57.4493 18.3429C57.4874 18.1265 57.4743 17.9042 57.4111 17.6937C57.0522 16.499 56.5344 15.3579 55.8715 14.301C53.5562 10.6249 50.1267 9.0948 47.7941 8.0391C45.2386 6.89859 42.5048 6.20871 39.7138 6H22.4506C22.1436 6 21.8491 6.1219 21.632 6.33887C21.415 6.55583 21.293 6.8501 21.293 7.15694V13.0631C21.293 13.3134 21.3742 13.557 21.5245 13.7572C21.6748 13.9575 21.886 14.1036 22.1265 14.1737L27.7526 15.8079C28.3065 15.9685 28.8051 16.2791 29.1933 16.7053C29.5815 17.1316 29.8441 17.6568 29.9521 18.223C30.4875 21.0517 31.0721 24.0453 31.5786 26.7756" stroke="black" stroke-miterlimit="10"/>
<path d="M21.7801 14.0029L21.2938 18.4542C20.8823 19.6175 20.2614 20.6957 19.4619 21.6358C18.9141 22.2785 18.2869 22.849 17.5952 23.3336C17.3058 24.6988 16.9672 26.1594 16.5186 27.6923C16.1105 29.0807 15.6678 30.3822 15.2076 31.5912C15.1828 31.6502 15.1809 31.7163 15.2022 31.7766C15.2235 31.837 15.2666 31.8872 15.323 31.9176C15.3793 31.9479 15.445 31.9562 15.5071 31.9408C15.5693 31.9253 15.6234 31.8873 15.6591 31.8342C17.4245 29.4769 18.9496 27.432 20.4256 25.4276C21.2475 24.3112 22.1621 23.053 23.8783 22.1449C25.2939 21.4158 26.8741 21.065 28.4654 21.1267H30.5057" stroke="black" stroke-miterlimit="10"/>
<path d="M21.2948 13.6992L14.6992 13.41C14.4422 13.3981 14.1997 13.2878 14.0219 13.1021C13.8441 12.9163 13.7446 12.6692 13.7441 12.4121V7.20594C13.7449 6.94379 13.8488 6.69245 14.0335 6.50627C14.2182 6.32009 14.4687 6.21402 14.731 6.21098L21.2948 6.13867V13.6992Z" stroke="black" stroke-miterlimit="10"/>
<path d="M94.3591 110.465V69.5135L97.2721 66.5718V48.469L91.8629 43.0631L80.7395 40.8225V35.3759H82.2647C82.2647 34.7102 82.0001 34.0718 81.5291 33.6011C81.0581 33.1304 80.4193 32.866 79.7533 32.866H79.9465C80.6853 32.866 81.394 32.5727 81.9164 32.0505C82.4389 31.5284 82.7324 30.8202 82.7324 30.0817V17.4662C82.7324 17.1008 82.6603 16.739 82.5202 16.4015C82.3802 16.064 82.1749 15.7574 81.9161 15.4992C81.6573 15.2411 81.3502 15.0365 81.0122 14.8971C80.6742 14.7577 80.3121 14.6863 79.9465 14.687H66.3422C65.9766 14.6863 65.6144 14.7577 65.2765 14.8971C64.9385 15.0365 64.6313 15.2411 64.3726 15.4992C64.1138 15.7574 63.9085 16.064 63.7684 16.4015C63.6284 16.739 63.5563 17.1008 63.5563 17.4662V30.0767C63.5563 30.8151 63.8498 31.5233 64.3722 32.0454C64.8947 32.5676 65.6033 32.8609 66.3422 32.8609H66.5354C66.2056 32.8616 65.8791 32.9272 65.5747 33.0539C65.2703 33.1807 64.9938 33.3661 64.761 33.5996C64.5283 33.8332 64.3439 34.1102 64.2183 34.415C64.0927 34.7198 64.0284 35.0463 64.0291 35.3759H65.3153V40.8276L54.4613 42.6414L48.8691 48.469V66.5718L51.8483 69.5135V110.465L49.0572 113.406H48.9657V129.639L54.4207 135.284H91.685L97.3331 129.639V113.406H97.4246L94.3591 110.465Z" fill="#E8E8E8"/>
<path d="M94.3584 110.004V69.1198L97.2721 66.1778V48.1097L91.8618 42.7075L80.7361 40.4756V35.0278H65.3085V40.4756L54.4523 42.2865L48.8691 48.1097V66.1778L51.8489 69.1198V110.004L49.1437 112.941H48.9658V129.147L54.4218 134.778H91.6838L97.3331 129.147V112.941H96.9124L94.3584 110.004Z" stroke="#1E1E1E" stroke-miterlimit="10"/>
<path d="M79.8502 14.1807H66.1793C64.6348 14.1807 63.3828 15.4292 63.3828 16.9694V29.6002C63.3828 31.1404 64.6348 32.389 66.1793 32.389H79.8502C81.3947 32.389 82.6467 31.1404 82.6467 29.6002V16.9694C82.6467 15.4292 81.3947 14.1807 79.8502 14.1807Z" stroke="#1E1E1E" stroke-miterlimit="10"/>
<path d="M50.4512 65.4495L50.7508 65.6925C50.939 65.8418 51.164 65.9606 51.4125 66.042C51.6609 66.1234 51.9279 66.1658 52.1979 66.1667H93.9968C94.2667 66.1658 94.5338 66.1234 94.7822 66.042C95.0307 65.9606 95.2557 65.8418 95.4439 65.6925L95.84 65.375" stroke="#1E1E1E" stroke-miterlimit="10"/>
<path d="M53.8809 47.6943C60.2378 47.3424 66.8702 47.1665 73.778 47.1665C80.1349 47.1665 86.2572 47.3424 92.1447 47.6943" stroke="#1E1E1E" stroke-miterlimit="10"/>
<path d="M53.3535 68.8057H92.9368" stroke="#1E1E1E" stroke-miterlimit="10"/>
<path d="M53.3535 109.972H92.9368" stroke="#1E1E1E" stroke-miterlimit="10"/>
<path d="M82.1172 35.0278H63.9089C63.9089 34.328 64.1723 33.6568 64.6413 33.1619C65.1102 32.667 65.7462 32.389 66.4094 32.389H79.5964C79.9265 32.3862 80.2538 32.4524 80.5595 32.5837C80.8653 32.7151 81.1433 32.909 81.3777 33.1543C81.612 33.3996 81.798 33.6915 81.9249 34.013C82.0519 34.3346 82.1172 34.6795 82.1172 35.0278V35.0278Z" stroke="#1E1E1E" stroke-miterlimit="10"/>
<path d="M53.3535 131.611C57.5896 132.037 62.0495 132.359 66.7178 132.527C75.2869 132.84 83.8678 132.625 92.409 131.883" stroke="#1E1E1E" stroke-miterlimit="10"/>
</svg>
