<svg width="142" height="142" viewBox="0 0 142 142" fill="none" xmlns="http://www.w3.org/2000/svg">
<path d="M61.008 45.8856C58.8662 41.407 56.7244 34.6252 49.5851 28.867C45.0459 25.2586 40.1685 22.0879 35.0193 19.398V17.0947H34.9288C35.1346 17.0947 35.332 17.0138 35.4775 16.8698C35.6231 16.7258 35.7048 16.5306 35.7048 16.327V13.7678C35.7048 13.5641 35.6231 13.3688 35.4775 13.2249C35.332 13.0809 35.1346 13 34.9288 13H22.4868C22.2809 13 22.0836 13.0809 21.938 13.2249C21.7925 13.3688 21.7107 13.5641 21.7107 13.7678V16.327C21.7107 16.5306 21.7925 16.7258 21.938 16.8698C22.0836 17.0138 22.2809 17.0947 22.4868 17.0947H22.5928V19.398L20.8804 21.0615C19.7371 22.684 17.1374 27.3315 15.8829 32.9617C14.3102 39.9995 13.8834 49.2126 14.0256 53.9471L14.5973 60.3451V124.164C14.5973 125.521 15.1424 126.823 16.1126 127.783C17.0828 128.743 18.3986 129.282 19.7707 129.282H57.9764C59.3484 129.282 60.6643 128.743 61.6345 127.783C62.6047 126.823 63.1498 125.521 63.1498 124.164V60.2171C63.1498 56.9337 62.7204 49.4685 61.008 45.8856ZM54.9836 56.6342C53.9851 58.6816 51.1035 57.9778 50.2732 57.6579C49.2721 57.274 48.7004 56.8902 43.7029 50.1083C39.1115 43.8792 36.6593 37.1844 35.9919 34.6252C35.8988 34.4563 35.7643 33.8574 35.9919 32.8337C36.2196 31.8101 36.4938 31.5362 36.7059 31.2982C37.2775 30.6584 39.1633 29.6859 42.138 31.4262C45.8499 33.6015 50.2783 39.1038 53.5609 45.5018C56.8434 51.8997 55.9846 54.5869 54.9836 56.6342V56.6342Z" fill="#A9DBFF"/>
<path d="M60.4113 46.0061C58.2961 41.5293 56.1861 34.75 49.1441 28.9941C44.6676 25.3862 39.8565 22.2166 34.777 19.5288V17.2264H34.6877C34.8907 17.2264 35.0854 17.1456 35.229 17.0016C35.3725 16.8577 35.4532 16.6625 35.4532 16.459V13.9008C35.4532 13.6972 35.3725 13.502 35.229 13.3581C35.0854 13.2142 34.8907 13.1333 34.6877 13.1333H22.4179C22.2149 13.1333 22.0202 13.2142 21.8767 13.3581C21.7331 13.502 21.6525 13.6972 21.6525 13.9008V16.459C21.6525 16.6625 21.7331 16.8577 21.8767 17.0016C22.0202 17.1456 22.2149 17.2264 22.4179 17.2264H22.5225V19.5288L20.8335 21.1916C19.7057 22.811 17.1415 27.4592 15.9041 33.0872C14.3528 40.1223 13.9318 49.3318 14.0722 54.0644L14.636 60.4599V124.254C14.636 125.611 15.1737 126.912 16.1306 127.871C17.0876 128.831 18.3855 129.37 19.7389 129.37H57.421C58.7743 129.37 60.0723 128.831 61.0292 127.871C61.9862 126.912 62.5238 125.611 62.5238 124.254V60.332C62.5238 57.0396 62.1003 49.5876 60.4113 46.0061ZM54.469 56.7505C53.4841 58.7971 50.6418 58.0936 49.8228 57.7738C48.8354 57.3901 48.2715 57.0063 43.3422 50.2271C38.8134 43.9979 36.3946 37.3082 35.7364 34.75C35.6445 34.5812 35.5118 33.9826 35.7364 32.9593C35.9609 31.936 36.2313 31.6623 36.4406 31.4244C37.0044 30.7848 38.8644 29.8127 41.7986 31.5523C45.4599 33.7268 49.8279 39.2269 53.0657 45.6224C56.3035 52.0179 55.4564 54.704 54.469 56.7505Z" stroke="#232323" stroke-miterlimit="10" stroke-linecap="round" stroke-linejoin="round"/>
<path d="M127.753 68.2918C128.155 67.8365 128.376 67.2415 128.374 66.6247V62.486C128.374 61.843 128.207 61.2119 127.891 60.6584C127.576 60.1048 127.123 59.649 126.58 59.3385L118.098 54.4402C117.371 52.8633 116.645 51.0803 115.912 49.4454C115.674 48.9058 115.61 48.3005 115.732 47.7204C116.077 46.1366 116.244 44.5166 116.229 42.893C116.132 38.3906 114.727 34.0231 112.199 30.3609V21.0535H113.441V13.7866H98.4142V21.0535H99.9604V30.2386C97.3822 33.8824 95.9355 38.2536 95.8125 42.7707C95.7905 44.3741 95.9488 45.9748 96.2844 47.5402C96.4305 48.1951 96.3376 48.8829 96.0237 49.4712L93.3598 54.4402L85.2877 59.3256C84.7628 59.642 84.3272 60.0956 84.0243 60.6412C83.7214 61.1867 83.5618 61.805 83.5615 62.4345V66.7213C83.56 67.2809 83.7442 67.824 84.0831 68.2596L85.8652 70.5575V115.112L84.0955 116.907C83.9001 117.101 83.7444 117.334 83.6377 117.592C83.531 117.849 83.4755 118.127 83.4746 118.407V124.657C83.4759 125.202 83.6806 125.726 84.0459 126.118L87.0884 129.369H123.444L127.263 126.15C127.494 125.952 127.68 125.703 127.807 125.422C127.935 125.14 128.001 124.833 128.002 124.522V118.394C128.004 117.845 127.796 117.318 127.424 116.927L125.723 115.125V70.5317L127.753 68.2918Z" fill="#FFAD93"/>
<path d="M86.1369 129.369H122.492L126.305 126.151C126.538 125.953 126.725 125.705 126.854 125.423C126.983 125.142 127.05 124.834 127.05 124.522V118.394C127.052 117.845 126.845 117.318 126.473 116.927L124.771 115.125V70.5319L126.796 68.2662C127.2 67.8126 127.422 67.2165 127.416 66.5991V62.4861C127.417 61.8437 127.252 61.2127 126.937 60.6591C126.623 60.1055 126.171 59.6495 125.628 59.3386L117.121 54.4404C116.389 52.8634 115.662 51.0805 114.936 49.4456C114.691 48.9076 114.628 48.3003 114.756 47.7206C115.099 46.1365 115.263 44.5165 115.246 42.8931C115.144 38.3887 113.733 34.0211 111.198 30.361V21.0537H99.0088V30.2388C96.4279 33.8811 94.9808 38.2532 94.861 42.7708C94.8402 44.3739 94.9965 45.9741 95.3267 47.5403C95.4782 48.1943 95.3874 48.8835 95.0721 49.4713L92.4083 54.4404L84.3362 59.3258C83.8113 59.6422 83.3756 60.0958 83.0727 60.6413C82.7698 61.1869 82.6103 61.8052 82.61 62.4347V66.7214C82.6108 67.2817 82.7971 67.8248 83.1378 68.2598L84.9199 70.5576V115.112L83.1502 116.908C82.9551 117.102 82.7995 117.335 82.6928 117.592C82.5862 117.85 82.5306 118.127 82.5293 118.407V124.657C82.5306 125.203 82.7353 125.726 83.1005 126.118L86.1369 129.369Z" stroke="#232323" stroke-miterlimit="10" stroke-linecap="round" stroke-linejoin="round"/>
<path d="M92.6172 54.4556H117.33" stroke="#232323" stroke-miterlimit="10" stroke-linecap="round" stroke-linejoin="round"/>
<path d="M86.9258 69.8979H123.027" stroke="#232323" stroke-miterlimit="10" stroke-linecap="round" stroke-linejoin="round"/>
<path d="M89.6074 110.112H120.337" stroke="#232323" stroke-miterlimit="10" stroke-linecap="round" stroke-linejoin="round"/>
<path d="M112.489 13.7866H97.4629V21.0535H112.489V13.7866Z" stroke="#232323" stroke-miterlimit="10" stroke-linecap="round" stroke-linejoin="round"/>
<path d="M92.5051 51.2851C92.3648 50.5376 92.1154 49.8107 91.7685 48.6497C91.3787 47.3165 90.3459 44.2919 87.3993 39.9065C84.6604 35.9015 81.3891 32.2006 77.6553 28.8826V26.7709H79.2143V22.5715H79.152V19.3608C79.152 18.8336 78.915 18.328 78.4933 17.9552C78.0715 17.5825 77.4995 17.373 76.903 17.373H64.5593C63.9629 17.373 63.3909 17.5825 62.9691 17.9552C62.5474 18.328 62.3104 18.8336 62.3104 19.3608V22.6679V26.764C62.86 26.764 63.3121 26.764 63.9357 26.764V28.8964C58.5694 32.8412 54.2502 37.7808 51.2841 43.3652C49.9333 45.8672 48.9032 48.4947 48.2128 51.199L48.1738 51.4918V120.391L49.0742 124.683C49.0742 125.926 49.6326 127.117 50.6267 127.996C51.6208 128.875 52.9691 129.368 54.3749 129.368H86.3586C87.7645 129.368 89.1127 128.875 90.1068 127.996C91.1009 127.117 91.6594 125.926 91.6594 124.683L92.5285 120.391V51.4918L92.5051 51.2851Z" fill="#E4FFA9"/>
<path d="M61.5409 22.5684H78.476V26.7609H76.917V28.8726C80.6439 32.1916 83.9086 35.8924 86.6415 39.8965C89.588 44.2819 90.6092 47.3065 91.0107 48.6397C91.3614 49.8007 91.607 50.5276 91.7473 51.2751L91.7707 51.4715V120.371L90.9015 124.663C90.9015 125.278 90.7644 125.887 90.498 126.456C90.2317 127.024 89.8412 127.541 89.349 127.976C88.8568 128.411 88.2724 128.756 87.6293 128.991C86.9862 129.227 86.2969 129.348 85.6008 129.348H53.6171C52.921 129.348 52.2317 129.227 51.5886 128.991C50.9455 128.756 50.3611 128.411 49.8689 127.976C49.3767 127.541 48.9862 127.024 48.7198 126.456C48.4535 125.887 48.3164 125.278 48.3164 124.663L47.416 120.371V51.4715L47.455 51.1787C48.1454 48.4744 49.1755 45.8468 50.5263 43.3449C53.4923 37.7604 57.8116 32.8208 63.1779 28.8761V26.7436C62.5543 26.7436 62.1022 26.7436 61.5526 26.7436L61.5409 22.5684Z" stroke="#232323" stroke-miterlimit="10" stroke-linecap="round" stroke-linejoin="round"/>
<path d="M63.7919 17.2754H76.1668C76.7632 17.2754 77.3352 17.4848 77.757 17.8576C78.1787 18.2304 78.4157 18.736 78.4157 19.2631V22.5703H61.5391V19.2631C61.5391 19.0018 61.5974 18.7431 61.7106 18.5017C61.8239 18.2603 61.9899 18.041 62.1991 17.8564C62.4084 17.6717 62.6568 17.5254 62.9301 17.4257C63.2034 17.326 63.4962 17.2749 63.7919 17.2754V17.2754Z" stroke="#232323" stroke-miterlimit="10" stroke-linecap="round" stroke-linejoin="round"/>
<path d="M58.1991 72.8353L86.5308 94.883V114.671C86.5297 115.964 85.9478 117.204 84.9129 118.118C83.878 119.032 82.4748 119.545 81.0118 119.545H58.3238C56.8635 119.545 55.4626 119.034 54.4282 118.123C53.3937 117.212 52.81 115.975 52.8048 114.685L52.6801 75.0883C52.6701 74.5194 52.8471 73.9601 53.1898 73.4785C53.5324 72.9968 54.0259 72.6134 54.6103 72.3748C55.1947 72.1362 55.8449 72.0527 56.482 72.1345C57.119 72.2162 57.7156 72.4597 58.1991 72.8353Z" stroke="#232323" stroke-miterlimit="10" stroke-linecap="round" stroke-linejoin="round"/>
<path d="M74.1298 53.8067H68.4861C68.4032 53.8057 68.3205 53.815 68.2406 53.8343C66.891 54.1347 65.6711 54.7792 64.7327 55.6877C62.7839 57.6306 62.9515 60.0938 63.0295 61.0928C63.2049 63.4009 64.3663 65.0131 65.103 66.0294C66.245 67.6106 67.5117 68.5925 69.7801 70.3563C70.8753 71.2072 71.8497 71.8858 72.5825 72.3785C72.7 72.4583 72.8366 72.5134 72.9819 72.5393C73.1272 72.5653 73.2772 72.5615 73.4206 72.5282C73.564 72.495 73.6968 72.4331 73.8089 72.3475C73.9211 72.2618 74.0095 72.1545 74.0675 72.034C76.5285 66.8392 77.3372 61.1488 76.406 55.5774C76.3265 55.0914 76.0537 54.6463 75.6366 54.3218C75.2195 53.9974 74.6854 53.8148 74.1298 53.8067V53.8067Z" stroke="#232323" stroke-miterlimit="10" stroke-linecap="round" stroke-linejoin="round"/>
</svg>
