<svg width="142" height="142" viewBox="0 0 142 142" fill="none" xmlns="http://www.w3.org/2000/svg">
<path d="M82.3885 47.0768C82.3917 43.0993 81.1508 39.2205 78.8398 35.9837C76.5287 32.7469 73.2633 30.3144 69.5009 29.0268C65.7386 27.7393 61.6678 27.6612 57.8589 28.8036C54.05 29.946 50.6938 32.2517 48.2605 35.3975C45.6674 32.8562 42.2659 31.3044 38.6475 31.0119C35.029 30.7194 31.4226 31.7047 28.4552 33.7966C25.4879 35.8884 23.3474 38.9544 22.406 42.4613C21.4645 45.9683 21.7818 49.6943 23.3025 52.9916C21.6829 53.7424 20.2301 54.81 19.0295 56.1314C17.8289 57.4527 16.9049 59.0011 16.312 60.6853C15.7191 62.3694 15.4693 64.1553 15.5772 65.9375C15.6851 67.7198 16.1487 69.4624 16.9405 71.0626C17.7323 72.6629 18.8364 74.0884 20.1877 75.2551C21.5389 76.4218 23.11 77.3062 24.8083 77.856C26.5066 78.4059 28.2978 78.6101 30.0763 78.4566C31.8548 78.3031 33.5845 77.7951 35.1636 76.9624C36.8391 79.0761 38.3123 81.3426 39.5638 83.732C41.6675 87.744 43.1067 92.0706 43.8255 96.5435C44.5096 100.974 44.4472 105.488 43.6408 109.898H54.0351C53.8211 107.635 53.8211 105.357 54.0351 103.094C54.9739 94.5763 58.5101 86.5542 64.1637 80.1162C66.7579 81.108 69.6135 81.1809 72.2548 80.3228C74.8962 79.4647 77.164 77.7273 78.6804 75.4001C80.1968 73.0729 80.8704 70.2962 80.5889 67.5326C80.3075 64.769 79.088 62.1853 77.1336 60.2117C80.5131 56.6751 82.3958 51.9691 82.3885 47.0768V47.0768ZM42.3126 74.8946C41.7467 73.8433 41.1576 72.8845 40.5571 71.995L40.6264 71.8795C42.5473 74.1874 45.1655 75.809 48.0872 76.5004C47.3827 79.1574 46.6666 81.8259 45.9621 84.4945C45.1959 81.1409 43.9677 77.9101 42.3126 74.8946V74.8946ZM52.7069 89.1847L52.3489 76.7892C54.3566 76.6165 56.3011 76.0011 58.0427 74.987C58.3007 75.4206 58.5862 75.8374 58.8973 76.2347L52.7069 89.1847Z" fill="#ABFFA9"/>
<path d="M82.0861 46.9931C82.0893 43.033 80.8505 39.1711 78.5433 35.9484C76.2361 32.7257 72.9761 30.3038 69.22 29.0219C65.4639 27.7399 61.3998 27.6622 57.5972 28.7996C53.7946 29.9371 50.444 32.2326 48.0148 35.3648C45.4289 32.8264 42.0318 31.2743 38.416 30.9793C34.8003 30.6843 31.1954 31.6651 28.2305 33.7505C25.2655 35.8359 23.1287 38.8936 22.1929 42.3901C21.257 45.8866 21.5815 49.5999 23.1098 52.8821C21.245 53.7912 19.6187 55.1218 18.36 56.768C17.1013 58.4143 16.2451 60.3308 15.8593 62.3652C15.4736 64.3996 15.5691 66.4957 16.1381 68.4868C16.7071 70.4779 17.734 72.3091 19.1372 73.8347C20.5403 75.3604 22.2809 76.5384 24.2205 77.2751C26.1602 78.0118 28.2455 78.2868 30.3104 78.0784C32.3754 77.8699 34.3631 77.1837 36.1155 76.0742C37.8679 74.9648 39.3366 73.4628 40.4049 71.6876C42.4755 74.1791 45.3648 75.8573 48.559 76.4238C51.7532 76.9903 55.0452 76.4084 57.8499 74.7816C58.7265 76.2582 59.908 77.5318 61.3158 78.5179C62.7236 79.5041 64.3256 80.1803 66.0154 80.5016C67.7053 80.8229 69.4442 80.7819 71.117 80.3815C72.7897 79.981 74.358 79.2302 75.7176 78.1789C77.0772 77.1276 78.1971 75.7998 79.0029 74.2837C79.8088 72.7675 80.2821 71.0978 80.3915 69.3852C80.5009 67.6726 80.2439 65.9564 79.6376 64.3505C79.0312 62.7446 78.0893 61.2858 76.8745 60.0708C80.2357 56.5441 82.1027 51.8593 82.0861 46.9931Z" stroke="#1D1D1B" stroke-linecap="round" stroke-linejoin="round"/>
<path d="M47.8187 76.6236L45.6234 84.67C44.8286 81.3402 43.5739 78.1307 41.8937 75.1293C41.3035 74.0833 40.7134 73.1292 40.0996 72.2441" stroke="#1D1D1B" stroke-linecap="round" stroke-linejoin="round"/>
<path d="M58.741 76.3857L52.6898 89.1881L52.3398 76.9339" stroke="#1D1D1B" stroke-linecap="round" stroke-linejoin="round"/>
<path d="M34.8281 77.1392C36.512 79.2413 37.9923 81.4949 39.2496 83.8701C41.3707 87.8594 42.8245 92.161 43.5548 96.6084C44.179 100.632 44.179 104.726 43.5548 108.749C43.5328 108.893 43.5426 109.039 43.5836 109.178C43.6246 109.317 43.6957 109.445 43.792 109.555C43.8882 109.664 44.0074 109.751 44.1412 109.811C44.2751 109.87 44.4204 109.9 44.567 109.898H52.7119C52.8499 109.898 52.9865 109.871 53.1132 109.817C53.24 109.763 53.3543 109.684 53.4491 109.585C53.5439 109.486 53.6172 109.369 53.6645 109.241C53.7118 109.113 53.7321 108.977 53.7242 108.841C53.6058 106.928 53.633 105.008 53.8057 103.098C54.7566 94.6308 58.3186 86.656 64.01 80.252" stroke="#1D1D1B" stroke-linecap="round" stroke-linejoin="round"/>
<path d="M35.2053 36.2847C33.0017 36.6502 30.9723 37.723 29.4163 39.3448C27.7051 41.1748 26.688 43.5586 26.5449 46.0747" stroke="#1D1D1B" stroke-linecap="round" stroke-linejoin="round"/>
<path d="M5 128.84H39.461L74.7672 92.4907H41.5268L5 128.84Z" fill="#A9FFF5"/>
<path d="M77.4317 128.841L39.0059 128.751L74.2918 93.6641C74.9791 94.9203 78.2752 97.5774 80.5245 108.202C82.7739 118.826 78.9625 127.285 77.4317 128.841Z" fill="#A9FFF5"/>
<ellipse cx="44.5884" cy="102.254" rx="3.09555" ry="3.28316" transform="rotate(22.8899 44.5884 102.254)" fill="#A9FFF5"/>
<ellipse cx="46.4157" cy="109.666" rx="1.65422" ry="1.75447" transform="rotate(22.8899 46.4157 109.666)" fill="#A9FFF5"/>
<path d="M5 128.982H39.4263L74.6968 92.4922H41.49L5 128.982Z" stroke="black" stroke-linejoin="round"/>
<path d="M77.8452 129.075L39.334 128.981L74.6983 92.4907C75.3871 93.7973 78.6906 96.5606 80.9449 107.61C83.1992 118.66 79.3794 127.457 77.8452 129.075Z" stroke="black" stroke-linejoin="round"/>
<ellipse cx="42.9927" cy="101.316" rx="3.09555" ry="3.28316" transform="rotate(22.8899 42.9927 101.316)" stroke="black" stroke-linejoin="round"/>
<ellipse cx="44.822" cy="108.728" rx="1.65422" ry="1.75447" transform="rotate(22.8899 44.822 108.728)" stroke="black" stroke-linejoin="round"/>
<path d="M134.681 86.9562H134.327C134.181 85.2396 133.591 83.598 132.621 82.2102C131.652 80.8224 130.34 79.7415 128.827 79.0853C129.395 77.7312 129.651 76.2552 129.574 74.7773C129.498 73.2993 129.092 71.8612 128.389 70.5799C127.686 69.2985 126.706 68.2102 125.529 67.4034C124.352 66.5965 123.01 66.094 121.614 65.9366C121.614 65.8853 121.614 65.8368 121.614 65.7855C121.617 64.1145 121.197 62.4729 120.398 61.0296C119.599 59.5863 118.45 58.3934 117.068 57.5738C115.687 56.7541 114.123 56.3372 112.538 56.3661C110.953 56.3949 109.403 56.8684 108.049 57.7379C107.341 56.2805 106.283 55.0435 104.981 54.1494C103.679 53.2552 102.179 52.7349 100.627 52.6399C99.0762 52.5449 97.5282 52.8785 96.1369 53.6077C94.7457 54.3369 93.5592 55.4364 92.695 56.7975C91.3461 55.9346 89.8041 55.4643 88.2264 55.4343C86.6488 55.4044 85.0921 55.816 83.7146 56.6271C82.3371 57.4382 81.1883 58.6198 80.3854 60.0515C79.5824 61.4832 79.154 63.1137 79.1439 64.7767C77.6821 64.8191 76.2527 65.2395 74.9813 66.001C73.71 66.7624 72.6358 67.8415 71.853 69.1434C71.0703 70.4452 70.603 71.9299 70.4925 73.4667C70.382 75.0035 70.6317 76.5455 71.2194 77.9568C69.674 78.7106 68.3654 79.9148 67.4484 81.4272C66.5314 82.9395 66.0442 84.6969 66.0443 86.4917C66.0443 86.6485 66.0443 86.8052 66.0443 86.9591H65.6738C65.2091 86.9626 64.7505 87.0714 64.3291 87.278C63.9077 87.4846 63.5332 87.7842 63.2312 88.1566C62.9292 88.529 62.7069 88.9654 62.5788 89.4363C62.4507 89.9072 62.4201 90.4016 62.489 90.886C62.8746 93.6169 63.5175 96.3004 64.4086 98.8966C68.675 111.313 77.465 118.209 81.3908 120.908H81.4962V127.2C81.4969 127.758 81.7074 128.292 82.0815 128.686C82.4557 129.079 82.9628 129.3 83.4915 129.3H116.869C117.131 129.301 117.39 129.247 117.632 129.141C117.874 129.036 118.094 128.881 118.28 128.686C118.465 128.491 118.612 128.26 118.712 128.005C118.813 127.75 118.864 127.476 118.864 127.2V120.905H118.594C122.304 118.585 132.797 111.307 136.647 97.5886C137.279 95.3288 137.701 93.0096 137.907 90.6637C137.948 90.1919 137.896 89.7162 137.752 89.2671C137.609 88.818 137.377 88.4056 137.074 88.0563C136.77 87.7071 136.4 87.4288 135.988 87.2393C135.576 87.0498 135.131 86.9534 134.681 86.9562V86.9562Z" fill="#E4FFA9"/>
<path d="M134.311 86.9557C134.165 85.2392 133.575 83.5977 132.606 82.21C131.636 80.8222 130.324 79.7413 128.812 79.0848C129.379 77.7309 129.635 76.2551 129.559 74.7774C129.483 73.2996 129.077 71.8617 128.374 70.5804C127.672 69.2992 126.692 68.2108 125.515 67.4037C124.338 66.5967 122.997 66.0939 121.601 65.9361C121.601 65.8848 121.601 65.8363 121.601 65.785C121.604 64.114 121.184 62.4724 120.385 61.0291C119.586 59.5858 118.437 58.3929 117.055 57.5733C115.674 56.7536 114.11 56.3367 112.525 56.3656C110.94 56.3944 109.39 56.8679 108.036 57.7374C107.328 56.28 106.27 55.043 104.968 54.1489C103.666 53.2547 102.166 52.7344 100.614 52.6394C99.0632 52.5444 97.5152 52.878 96.1239 53.6072C94.7326 54.3364 93.5462 55.436 92.682 56.797C91.3331 55.9341 89.7911 55.4638 88.2134 55.4339C86.6358 55.4039 85.0791 55.8155 83.7016 56.6266C82.3241 57.4377 81.1753 58.6194 80.3724 60.051C79.5694 61.4827 79.141 63.1132 79.1309 64.7762C77.6694 64.8191 76.2401 65.2398 74.9691 66.0014C73.6981 66.7631 72.6243 67.8422 71.8419 69.144C71.0594 70.4458 70.5925 71.9303 70.4821 73.4669C70.3717 75.0035 70.6214 76.5452 71.209 77.9563C69.6631 78.7097 68.3539 79.9137 67.4364 81.4261C66.519 82.9385 66.0314 84.6961 66.0313 86.4912C66.0313 86.6594 66.0312 86.8247 66.0447 86.9899" stroke="#232323" stroke-miterlimit="10"/>
<path d="M65.6737 86.9561H134.662C135.11 86.9557 135.553 87.0538 135.963 87.2441C136.373 87.4345 136.741 87.7128 137.043 88.0614C137.346 88.41 137.576 88.8212 137.719 89.2688C137.862 89.7163 137.915 90.1904 137.874 90.6607C137.668 93.0069 137.245 95.3262 136.611 97.5856C132.764 111.304 122.268 118.582 118.561 120.902H81.3904C77.4619 118.203 68.6828 111.307 64.4082 98.8908C63.516 96.2949 62.873 93.6112 62.4887 90.8801C62.4201 90.3959 62.4509 89.9018 62.5792 89.4313C62.7075 88.9607 62.9302 88.5247 63.2322 88.1526C63.5341 87.7806 63.9083 87.4812 64.3295 87.2748C64.7507 87.0684 65.2092 86.9597 65.6737 86.9561V86.9561Z" stroke="#232323" stroke-miterlimit="10"/>
<path d="M81.4961 120.905H118.843V127.198C118.843 127.755 118.633 128.29 118.258 128.685C117.884 129.079 117.377 129.301 116.847 129.301H83.4941C82.9649 129.301 82.4575 129.079 82.0833 128.685C81.7091 128.29 81.4987 127.755 81.4987 127.198V120.905H81.4961Z" stroke="#232323" stroke-miterlimit="10"/>
<path d="M104.643 66.4207C107.222 65.5914 109.812 66.1357 111.256 67.8883C111.845 68.6191 112.233 69.5062 112.378 70.4531C114.438 69.4956 116.704 69.8489 118.001 71.288C118.716 72.1119 119.131 73.1761 119.172 74.2917" stroke="#232323" stroke-miterlimit="10"/>
<path d="M80.2559 77.3524C80.556 77.0675 82.5784 75.1923 85.2118 75.6768C86.0363 75.8324 86.8145 76.1907 87.483 76.7226C88.2463 75.8376 89.2613 75.2375 90.3758 75.0128C92.8741 74.5397 94.718 76.2923 94.937 76.5089" stroke="#232323" stroke-miterlimit="10"/>
</svg>
