<svg width="142" height="142" viewBox="0 0 142 142" fill="none" xmlns="http://www.w3.org/2000/svg">
<path d="M126.642 53.3211L126.797 53.2884C126.751 51.3923 126.705 49.495 126.659 47.5965C126.646 46.9888 126.37 46.4063 125.884 45.9582C125.398 45.5101 124.736 45.2273 124.021 45.1628L122.929 45.0502C117.12 44.594 111.277 44.543 105.458 44.8976C103.971 44.9884 102.785 45.3771 101.87 46.3506C101.87 46.3506 101.41 47.0771 101.406 47.0771C99.8411 50.1887 98.4798 53.3706 97.3278 56.6084C96.4684 58.9186 95.7851 61.1488 95.1793 63.2738C93.2806 70.1497 92.0433 77.1443 91.4795 84.189C90.9912 90.0698 90.9912 95.9723 91.4795 101.853C92.3024 111.111 94.411 120.255 97.7618 129.096C98.0181 129.761 98.5164 130.34 99.1855 130.751C99.8546 131.162 100.66 131.384 101.487 131.384C108.681 131.413 115.874 131.326 123.067 131.344C123.582 131.346 124.092 131.261 124.568 131.096C125.044 130.931 125.477 130.687 125.842 130.38C126.207 130.073 126.496 129.708 126.694 129.307C126.892 128.905 126.994 128.474 126.994 128.039V53.7897C126.994 53.6915 126.96 53.5955 126.898 53.5126C126.836 53.4297 126.747 53.3634 126.642 53.3211V53.3211Z" fill="#E8E8E8"/>
<path d="M126.512 128.042V53.7794C126.51 53.7069 126.489 53.6355 126.452 53.57C126.416 53.5045 126.363 53.4462 126.298 53.399C126.232 53.3518 126.156 53.3166 126.074 53.2958C125.992 53.2749 125.905 53.2689 125.82 53.2781C121.22 53.7726 116.684 54.6239 112.268 55.8211C107.216 57.2452 102.335 59.0697 97.6893 61.2704C96.9242 61.6336 96.2924 61.9388 95.854 62.1568L94.6978 63.2939C92.7987 70.1707 91.5611 77.1662 90.9972 84.2118C90.5088 90.0934 90.5088 95.9968 90.9972 101.878C91.816 111.138 93.9252 120.283 97.2809 129.125C97.5428 129.783 98.0425 130.355 98.7095 130.761C99.3765 131.166 100.177 131.384 100.999 131.384C108.194 131.414 115.389 131.326 122.584 131.344C123.098 131.346 123.608 131.262 124.084 131.096C124.56 130.931 124.993 130.688 125.358 130.382C125.722 130.075 126.012 129.71 126.21 129.309C126.408 128.908 126.511 128.477 126.512 128.042V128.042Z" stroke="#232323" stroke-miterlimit="10"/>
<path d="M126.322 53.3086C126.279 51.4081 126.234 49.5063 126.188 47.6033C126.175 46.9942 125.898 46.4103 125.41 45.9612C124.923 45.5121 124.257 45.2286 123.54 45.164L122.439 45.0511C116.606 44.5938 110.737 44.5427 104.894 44.8982C103.405 44.9892 102.21 45.3788 101.296 46.3545C101.296 46.3545 100.834 47.0827 100.825 47.0827C99.2584 50.2029 97.8917 53.3921 96.7312 56.6363C95.89 58.9519 95.1867 61.1874 94.5957 63.3173" stroke="#232323" stroke-miterlimit="10"/>
<path d="M60.6225 92.7534C59.5781 85.319 57.6068 78.045 54.7548 71.1016C54.4576 69.6333 54.3953 68.1271 54.5701 66.6393C54.6434 66.0273 54.7803 65.2241 55.7354 62.4511C57.2063 58.1705 57.8304 57.3067 58.2347 55.0213C58.4522 53.7963 58.5397 52.5516 58.4957 51.3081H57.3337C57.7125 51.1519 58.0913 50.967 58.4702 50.8459C58.4417 46.7838 57.7536 42.7533 56.4327 38.9124C56.0254 38.3613 55.5037 37.905 54.9036 37.5749C54.3035 37.2448 53.6391 37.0487 52.956 37H23.5415C22.8898 37.0497 22.255 37.2319 21.6759 37.5355C21.0334 37.8661 20.4748 38.3392 20.0427 38.9188C19.3606 40.9016 18.845 42.9379 18.5017 45.0067C18.1815 46.939 18.0144 48.8936 18.0019 50.8523C18.3807 50.9734 18.7596 51.171 19.1384 51.3145H17.9764C17.9294 52.5579 18.0159 53.8028 18.2343 55.0277C18.6386 57.3131 19.2658 58.1768 20.7367 62.4575C21.6918 65.2305 21.8287 66.0337 21.9019 66.6457C22.076 68.1337 22.0126 69.6399 21.7142 71.108C18.8636 78.0519 16.8924 85.3257 15.8465 92.7597C14.9006 99.7449 14.7469 106.815 15.3881 113.835C15.8273 118.79 16.6532 123.702 17.8586 128.528C18.0608 129.333 18.5261 130.047 19.1802 130.557C19.8344 131.067 20.64 131.344 21.469 131.343H54.9905C55.819 131.343 56.6238 131.066 57.2772 130.556C57.9307 130.046 58.3955 129.333 58.5977 128.528C59.8026 123.702 60.6297 118.789 61.0714 113.835C61.7168 106.813 61.5662 99.741 60.6225 92.7534V92.7534Z" fill="#E4FFA9"/>
<path d="M60.6056 92.7529C59.5597 85.3188 57.5887 78.045 54.7381 71.1011C54.4396 69.6331 54.3761 68.1268 54.5502 66.6388C54.6234 66.0269 54.7603 65.2237 55.7155 62.4506C57.1863 58.17 57.8135 57.3062 58.2178 55.0209C58.4346 53.7957 58.5211 52.551 58.4757 51.3076H17.9755C17.9318 52.551 18.0182 53.7955 18.2334 55.0209C18.641 57.3062 19.2649 58.17 20.7358 62.4506C21.6909 65.2237 21.8279 66.0269 21.9011 66.6388C22.077 68.1268 22.0136 69.6333 21.7133 71.1011C18.864 78.0452 16.8937 85.319 15.8488 92.7529C14.9013 99.7379 14.7465 106.808 15.3872 113.828C15.8289 118.783 16.656 123.695 17.861 128.522C18.0626 129.326 18.5272 130.04 19.1808 130.55C19.8344 131.06 20.6395 131.337 21.4682 131.336H54.9895C55.8185 131.337 56.6241 131.06 57.2783 130.55C57.9324 130.041 58.3976 129.326 58.5999 128.522C59.8052 123.696 60.6312 118.783 61.0704 113.828C61.7095 106.808 61.5536 99.7379 60.6056 92.7529V92.7529Z" stroke="#232323" stroke-miterlimit="10"/>
<path d="M57.9507 45.013C57.6089 42.9439 57.0935 40.9074 56.4098 38.9251C56.0037 38.3736 55.4827 37.917 54.883 37.5869C54.2833 37.2567 53.6191 37.0608 52.9364 37.0127H23.5218C22.8758 37.0581 22.2456 37.2337 21.669 37.5291C21.0282 37.861 20.4709 38.3339 20.0389 38.9124C18.7109 42.7516 18.0214 46.783 17.998 50.8459C18.5074 51.0084 19.0169 51.2889 19.5231 51.4515C25.7504 51.528 31.9746 51.375 38.202 51.4515H38.2879C44.4994 51.375 50.7046 51.528 56.9224 51.4515C57.4318 51.2889 57.9412 51.0084 58.4474 50.8459C58.4354 48.8915 58.2693 46.9412 57.9507 45.013V45.013Z" stroke="#232323" stroke-miterlimit="10"/>
<path d="M50.0095 53.9098L50.7559 54.3401C51.0594 54.5144 51.4003 54.5999 51.7443 54.5879C52.0884 54.576 52.4234 54.467 52.7158 54.272L55.7393 52.251C56.0432 52.0478 56.3932 51.9379 56.7512 51.9331C57.1093 51.9283 57.4617 52.0288 57.7703 52.2238L60.7913 54.1304C61.0805 54.3131 61.4087 54.4131 61.7443 54.4208C62.0799 54.4284 62.4117 54.3434 62.708 54.1739C64.254 53.2887 67.1253 51.6572 67.3055 51.6572C67.4857 51.6572 70.3519 53.2915 71.903 54.1739C72.1992 54.3434 72.5311 54.4284 72.8667 54.4208C73.2023 54.4131 73.5305 54.3131 73.8197 54.1304L76.9067 52.1747C77.1984 51.99 77.5297 51.8896 77.8684 51.8834C78.207 51.8772 78.5413 51.9654 78.8387 52.1393L82.2963 54.1631C82.5913 54.3363 82.923 54.4247 83.2593 54.42C83.5955 54.4152 83.9249 54.3173 84.2156 54.1358L87.4067 52.1502C87.6937 51.9695 88.0188 51.8702 88.3515 51.8616C88.6842 51.8531 89.0134 51.9355 89.3081 52.1012L92.8191 54.0705C93.1273 54.2426 93.4727 54.3237 93.8197 54.3055C94.1668 54.2874 94.5031 54.1705 94.7942 53.967L94.9846 53.8335C95.2753 53.6299 95.6112 53.5129 95.9579 53.4946C96.3047 53.4762 96.6497 53.5571 96.9577 53.729C97.2656 53.9008 97.5255 54.1575 97.7105 54.4726C97.8956 54.7877 97.9992 55.15 98.0107 55.5222C98.0513 56.7261 98.0776 57.9536 98.0894 59.2047C98.1148 61.5652 98.0902 63.835 98.0158 66.014C98.0112 66.1581 98.0205 66.3023 98.0437 66.4444C98.6251 70.0015 99.2699 74.6428 99.7268 80.1038C100.128 84.9003 100.661 91.5735 100.217 100.21C99.9024 106.339 99.1504 112.432 97.9675 118.438C97.9401 118.579 97.9265 118.723 97.9269 118.868V128.581C97.9266 128.965 97.8282 129.341 97.6423 129.669C97.4565 129.997 97.1904 130.265 96.8729 130.442C96.5554 130.619 96.1988 130.699 95.8417 130.674C95.4846 130.649 95.1407 130.52 94.8475 130.299V130.299C94.544 130.072 94.1868 129.942 93.8171 129.923C93.4475 129.904 93.0804 129.998 92.7582 130.193L89.3056 132.296C89.0132 132.472 88.6836 132.564 88.3485 132.564C88.0134 132.564 87.6839 132.472 87.3915 132.296L83.9744 130.264C83.6851 130.093 83.3603 130.003 83.03 130.003C82.6998 130.003 82.3749 130.093 82.0856 130.264L78.7397 132.228C78.4504 132.399 78.1255 132.488 77.7953 132.488C77.465 132.488 77.1402 132.399 76.8509 132.228L73.4364 130.199C73.1421 130.025 72.8111 129.935 72.4751 129.937C72.1391 129.939 71.8093 130.034 71.5171 130.212L68.2676 132.206C67.9776 132.384 67.6499 132.48 67.3158 132.484C66.9816 132.487 66.652 132.399 66.3586 132.228L62.8654 130.182C62.5756 130.01 62.2497 129.92 61.9184 129.92C61.5872 129.92 61.2613 130.01 60.9715 130.182L57.5164 132.261C57.2127 132.443 56.8692 132.535 56.5211 132.528C56.1731 132.521 55.8332 132.415 55.5362 132.22L52.4898 130.215C52.1763 130.008 51.8148 129.901 51.4469 129.906C51.0791 129.91 50.7199 130.026 50.4107 130.24L49.7481 130.694C49.4552 130.896 49.1177 131.009 48.7703 131.024C48.4229 131.039 48.0779 130.955 47.771 130.78C47.464 130.605 47.206 130.345 47.0234 130.027C46.8408 129.71 46.7403 129.346 46.7321 128.973C46.7067 127.749 46.6949 126.499 46.6966 125.222C46.6966 122.96 46.7474 120.781 46.8489 118.685C46.8566 118.539 46.8489 118.392 46.826 118.247C44.0839 100.661 44.2687 82.6922 47.3719 65.1751C47.4027 65.0029 47.4121 64.827 47.3998 64.6521C47.2475 62.1626 47.1459 59.5533 47.1307 56.8378C47.1307 56.4728 47.1307 56.1078 47.1307 55.7483C47.133 55.3868 47.2222 55.032 47.3897 54.7184C47.5572 54.4047 47.7973 54.1428 48.0868 53.9579C48.3763 53.773 48.7055 53.6714 49.0423 53.663C49.3791 53.6545 49.7123 53.7396 50.0095 53.9098V53.9098Z" fill="#D4A9FF"/>
<path d="M60.8711 89.498C61.5423 86.7408 63.0366 84.2962 65.125 82.5389C67.2134 80.7816 69.7806 79.8085 72.4331 79.7688C75.0856 79.7292 77.677 80.6252 79.8101 82.3194C81.9432 84.0136 83.5003 86.4126 84.2426 89.1486" stroke="#232323" stroke-miterlimit="10"/>
<path d="M83.7377 97.6064C82.832 99.9855 81.2945 102.024 79.3178 103.466C77.3411 104.908 75.0132 105.691 72.6255 105.715C70.2379 105.739 67.8968 105.003 65.8955 103.601C63.8942 102.198 62.3217 100.191 61.375 97.8308" stroke="#232323" stroke-miterlimit="10"/>
<path d="M57.6777 90.062V99.7442C57.6779 99.784 57.6889 99.8228 57.7093 99.856C57.7298 99.8892 57.7588 99.9155 57.793 99.9315C57.8271 99.9475 57.8649 99.9527 57.9017 99.9463C57.9386 99.94 57.9729 99.9224 58.0005 99.8958C59.0162 98.9102 60.2516 98.2172 61.5894 97.8825C62.5877 97.6293 63.6192 97.5597 64.6395 97.6768H86.9861C87.1064 97.6761 87.2214 97.6248 87.3062 97.534C87.391 97.4432 87.4386 97.3204 87.4386 97.1924V87.18C87.4384 87.1383 87.4264 87.0976 87.404 87.0634C87.3817 87.0291 87.3501 87.0029 87.3134 86.9883C87.2767 86.9736 87.2367 86.9711 87.1987 86.9812C87.1607 86.9913 87.1264 87.0134 87.1005 87.0447C86.5844 87.5877 86.0152 88.0704 85.4027 88.4844L85.2171 88.6169C84.2414 89.2636 83.113 89.6015 81.9637 89.5911H58.1327C58.073 89.5911 58.0138 89.6037 57.9586 89.628C57.9034 89.6523 57.8532 89.688 57.811 89.733C57.7687 89.778 57.7352 89.8314 57.7124 89.8901C57.6895 89.9489 57.6777 90.0119 57.6777 90.0755V90.062Z" stroke="#232323" stroke-linecap="round" stroke-linejoin="round"/>
<path d="M50.0139 53.9095L50.7628 54.3397C51.0663 54.514 51.4072 54.5995 51.7512 54.5875C52.0952 54.5756 52.4303 54.4666 52.7226 54.2717L55.7461 52.2509C56.0498 52.0472 56.3998 51.9369 56.7579 51.9321C57.1161 51.9273 57.4686 52.0282 57.7769 52.2237L60.8004 54.13C61.0892 54.3128 61.4169 54.4128 61.7521 54.4204C62.0873 54.4281 62.4188 54.3431 62.7145 54.1736C64.2605 53.2885 67.1342 51.6572 67.3119 51.6572C67.4896 51.6572 70.3582 53.2912 71.9093 54.1736C72.2055 54.343 72.5373 54.428 72.8729 54.4204C73.2085 54.4128 73.5367 54.3128 73.826 54.13L76.9129 52.1747C77.2045 51.99 77.5358 51.8896 77.8745 51.8834C78.2131 51.8772 78.5474 51.9654 78.8448 52.1393L82.3049 54.1627C82.5999 54.3359 82.9315 54.4244 83.2678 54.4196C83.604 54.4148 83.9334 54.317 84.224 54.1355L87.4125 52.1502C87.6986 51.9709 88.0224 51.8724 88.3535 51.8639C88.6847 51.8553 89.0125 51.9369 89.3063 52.1011L92.8172 54.0701C93.1259 54.2422 93.4716 54.3233 93.819 54.3051C94.1665 54.2869 94.5032 54.1701 94.7948 53.9666L94.9826 53.8332C95.2733 53.6296 95.6092 53.5127 95.9559 53.4943C96.3026 53.476 96.6477 53.5568 96.9556 53.7287C97.2636 53.9005 97.5234 54.1571 97.7084 54.4722C97.8935 54.7873 97.9971 55.1495 98.0086 55.5217C98.0493 56.7254 98.0763 57.9527 98.0899 59.2037C98.1119 61.5639 98.0865 63.8334 98.0137 66.0121C98.0104 66.1561 98.0197 66.3002 98.0416 66.4424C98.6255 69.9991 99.2703 74.6397 99.7273 80.1C100.126 84.8959 100.661 91.5681 100.217 100.204C99.9015 106.331 99.1496 112.424 97.968 118.429C97.9397 118.57 97.9253 118.714 97.9249 118.859V128.57C97.9245 128.954 97.8261 129.331 97.6403 129.659C97.4544 129.987 97.1883 130.254 96.8709 130.431C96.5534 130.608 96.1967 130.689 95.8397 130.664C95.4826 130.639 95.1387 130.509 94.8455 130.289V130.289C94.5426 130.062 94.1858 129.931 93.8165 129.912C93.4472 129.893 93.0805 129.987 92.7588 130.183L89.3063 132.296C89.0139 132.472 88.6844 132.564 88.3493 132.564C88.0142 132.564 87.6847 132.472 87.3922 132.296L83.9753 130.275C83.6865 130.104 83.362 130.015 83.0322 130.015C82.7023 130.015 82.3779 130.104 82.0891 130.275L78.7407 132.239C78.4519 132.41 78.1274 132.499 77.7976 132.499C77.4677 132.499 77.1433 132.41 76.8545 132.239L73.4401 130.21C73.1458 130.036 72.8148 129.946 72.4788 129.948C72.1428 129.951 71.813 130.045 71.5209 130.223L68.269 132.217C67.979 132.395 67.6513 132.491 67.3171 132.495C66.9829 132.498 66.6534 132.41 66.3599 132.239L62.8694 130.194C62.5796 130.021 62.2537 129.931 61.9225 129.931C61.5912 129.931 61.2654 130.021 60.9756 130.194L57.518 132.271C57.2143 132.454 56.8708 132.546 56.5228 132.539C56.1748 132.532 55.8348 132.425 55.5379 132.231L52.4916 130.226C52.1776 130.02 51.8157 129.913 51.4475 129.917C51.0792 129.921 50.7196 130.037 50.4099 130.251L49.7499 130.706C49.4572 130.908 49.1196 131.022 48.7719 131.038C48.4241 131.053 48.0789 130.969 47.7716 130.793C47.4643 130.618 47.2062 130.358 47.0239 130.04C46.8415 129.722 46.7414 129.358 46.734 128.984C46.707 127.761 46.6943 126.511 46.696 125.234C46.696 122.971 46.7569 120.79 46.8508 118.698C46.8564 118.552 46.8478 118.405 46.8254 118.26C44.0827 100.668 44.2692 82.6947 47.3763 65.1733C47.4067 65.001 47.4169 64.8254 47.4068 64.6504C47.2519 62.1612 47.1529 59.5523 47.1377 56.8371C47.1377 56.4721 47.1377 56.1072 47.1377 55.7477C47.1402 55.3867 47.2294 55.0324 47.3968 54.7192C47.5641 54.4059 47.804 54.1442 48.0931 53.9595C48.3823 53.7747 48.7109 53.673 49.0474 53.6642C49.3839 53.6554 49.7167 53.7399 50.0139 53.9095V53.9095Z" stroke="#232323" stroke-miterlimit="10"/>
<path d="M46.748 118.509L97.8627 118.689" stroke="#232323" stroke-miterlimit="10"/>
<path d="M46.582 123.734H97.8648" stroke="#232323" stroke-miterlimit="10"/>
<path d="M47.252 61.748L98.0303 61.9282" stroke="#232323" stroke-miterlimit="10"/>
<path d="M47.4199 66.2529H98.0302" stroke="#232323" stroke-miterlimit="10"/>
</svg>
