<svg width="142" height="142" viewBox="0 0 142 142" fill="none" xmlns="http://www.w3.org/2000/svg">
<path d="M125.275 70.1055H113.818V68.4091C113.818 67.9816 113.661 67.5717 113.381 67.2694C113.101 66.9671 112.722 66.7973 112.326 66.7973H110.417V64.3072C110.417 64.0688 110.329 63.8403 110.173 63.6718C110.017 63.5033 109.806 63.4086 109.585 63.4086H106.229V61.8331H107.377C107.416 61.8331 107.454 61.8248 107.49 61.8088C107.525 61.7928 107.557 61.7692 107.584 61.7396C107.612 61.71 107.633 61.6749 107.647 61.6363C107.662 61.5977 107.669 61.5564 107.668 61.5148V55.9139C107.668 55.8305 107.638 55.7506 107.583 55.6917C107.529 55.6327 107.455 55.5996 107.377 55.5996H104.092C104.015 55.5996 103.941 55.6327 103.886 55.6917C103.832 55.7506 103.801 55.8305 103.801 55.9139V61.5108C103.801 61.5524 103.808 61.5937 103.822 61.6323C103.837 61.6709 103.858 61.706 103.885 61.7356C103.912 61.7652 103.944 61.7887 103.98 61.8048C104.015 61.8208 104.053 61.8291 104.092 61.8291H105.244V63.3965H101.888C101.667 63.3965 101.456 63.4912 101.3 63.6597C101.144 63.8282 101.056 64.0568 101.056 64.2951V66.7852H99.1469C98.7513 66.7852 98.3718 66.9551 98.0921 67.2573C97.8123 67.5596 97.6552 67.9695 97.6552 68.397V70.0934H86.1987C85.3985 70.0934 84.6311 70.4368 84.0653 71.0482C83.4995 71.6595 83.1816 72.4886 83.1816 73.3532V128.556C83.1816 129.421 83.4995 130.25 84.0653 130.861C84.6311 131.472 85.3985 131.816 86.1987 131.816H125.308C126.108 131.816 126.876 131.472 127.441 130.861C128.007 130.25 128.325 129.421 128.325 128.556V73.3653C128.325 72.9341 128.246 72.5072 128.092 72.1094C127.939 71.7115 127.713 71.3505 127.43 71.0473C127.146 70.7442 126.809 70.5048 126.439 70.3431C126.069 70.1815 125.674 70.1007 125.275 70.1055Z" fill="#E8E8E8"/>
<rect x="82.5098" y="70.5176" width="45.3403" height="60.49" rx="2.5" stroke="#232323"/>
<rect x="86.3281" y="75.6069" width="37.7037" height="50.3124" rx="6.5" stroke="#232323"/>
<path d="M98 66.5H113C113.276 66.5 113.5 66.7239 113.5 67V70C113.5 70.2761 113.276 70.5 113 70.5H98C97.7239 70.5 97.5 70.2761 97.5 70V67C97.5 66.7239 97.7239 66.5 98 66.5Z" stroke="#232323"/>
<path d="M102 63.5H110C110.276 63.5 110.5 63.7239 110.5 64V66C110.5 66.2761 110.276 66.5 110 66.5H102C101.724 66.5 101.5 66.2761 101.5 66V64C101.5 63.7239 101.724 63.5 102 63.5Z" stroke="#232323"/>
<path d="M105 56.0996H106.818C107.094 56.0996 107.318 56.3235 107.318 56.5996V60.9255C107.318 61.2017 107.094 61.4255 106.818 61.4255H105C104.724 61.4255 104.5 61.2017 104.5 60.9255V56.5996C104.5 56.3235 104.724 56.0996 105 56.0996Z" stroke="#232323"/>
<path d="M106.75 57.4979C106.75 57.6508 106.716 57.7709 106.678 57.8446C106.661 57.8304 106.641 57.8127 106.622 57.7913C106.545 57.7048 106.5 57.5985 106.5 57.5C106.5 57.4011 106.545 57.2934 106.623 57.2054C106.642 57.1841 106.661 57.1664 106.679 57.1522C106.716 57.2259 106.75 57.3457 106.75 57.4979ZM106.636 57.9078C106.636 57.9076 106.637 57.906 106.64 57.9039C106.637 57.9069 106.636 57.908 106.636 57.9078ZM106.636 57.0881C106.636 57.0879 106.637 57.089 106.64 57.092C106.637 57.0898 106.636 57.0883 106.636 57.0881Z" stroke="#232323"/>
<rect x="105.5" y="61.5" width="1" height="1" stroke="#232323"/>
<path d="M51.137 90.3218V85.2378C51.1375 84.8782 51.0643 84.5224 50.9219 84.1924C50.7795 83.8624 50.571 83.5652 50.3092 83.3192V73.6115C50.1343 72.2316 49.8065 70.8756 49.3319 69.5684C48.5269 67.346 47.3031 65.2993 45.7271 63.5399L39.4147 56.0076V51.4989H40.2959C40.3874 51.4989 40.4781 51.4808 40.5626 51.4457C40.6472 51.4106 40.724 51.3592 40.7887 51.2943C40.8534 51.2295 40.9047 51.1525 40.9397 51.0678C40.9747 50.983 40.9927 50.8922 40.9927 50.8005V41.8045C40.9927 41.4206 40.8406 41.0524 40.5697 40.7809C40.2987 40.5094 39.9314 40.3569 39.5482 40.3569H25.5695C25.1864 40.3569 24.8189 40.5094 24.548 40.7809C24.277 41.0524 24.1249 41.4206 24.1249 41.8045V50.8005C24.1249 50.8922 24.1429 50.983 24.1779 51.0678C24.213 51.1525 24.2643 51.2295 24.329 51.2943C24.3938 51.3592 24.4706 51.4106 24.5551 51.4457C24.6397 51.4808 24.7302 51.4989 24.8218 51.4989H26.1757V56.0076C24.0003 58.2254 21.9719 60.5833 20.1035 63.0663C17.9165 65.9775 17.2224 67.3743 16.8726 68.1503C15.9191 70.259 15.3105 72.5077 15.0702 74.8103V83.4878C14.6347 83.9714 14.3938 84.5998 14.3945 85.2512V90.3351C14.3949 90.8911 14.5704 91.4327 14.896 91.8829C15.2215 92.3331 15.6805 92.6689 16.2076 92.8423C15.6805 93.0158 15.2215 93.3516 14.896 93.8018C14.5704 94.2519 14.3949 94.7936 14.3945 95.3495V100.434C14.3943 101.039 14.602 101.627 14.9827 102.097C15.3634 102.568 15.8939 102.893 16.4854 103.018C15.8941 103.143 15.3636 103.468 14.983 103.938C14.6023 104.408 14.3945 104.995 14.3945 105.6V110.684C14.3949 111.307 14.6145 111.909 15.0146 112.385C15.4147 112.86 15.9696 113.179 16.5814 113.285C15.9467 113.487 15.3925 113.885 14.9992 114.424C14.606 114.962 14.3941 115.612 14.3945 116.279V128.195C14.3988 129.025 14.731 129.819 15.3186 130.405C15.9061 130.99 16.7011 131.318 17.5295 131.317H48.0021C48.8331 131.317 49.63 130.987 50.2178 130.398C50.8057 129.81 51.1363 129.011 51.137 128.179V116.261C51.1374 115.594 50.9256 114.944 50.5323 114.405C50.1391 113.867 49.5849 113.468 48.9501 113.267C49.562 113.161 50.1168 112.842 50.5169 112.366C50.917 111.89 51.1367 111.288 51.137 110.666V105.582C51.137 104.976 50.9288 104.389 50.5476 103.918C50.1664 103.448 49.6354 103.124 49.0436 103C49.6356 102.875 50.1667 102.55 50.5478 102.079C50.929 101.609 51.1371 101.021 51.137 100.415V95.3308C51.1366 94.7749 50.9611 94.2332 50.6356 93.783C50.31 93.3329 49.851 92.9971 49.3239 92.8236C49.8502 92.6504 50.3086 92.3155 50.634 91.8664C50.9595 91.4172 51.1355 90.8768 51.137 90.3218V90.3218Z" fill="#FFAD93"/>
<path d="M47.6076 113.377H17.1349C15.4036 113.377 14 114.776 14 116.501V128.347C14 130.072 15.4036 131.47 17.1349 131.47H47.6076C49.3389 131.47 50.7425 130.072 50.7425 128.347V116.501C50.7425 114.776 49.3389 113.377 47.6076 113.377Z" stroke="#232323" stroke-miterlimit="10"/>
<path d="M48.1097 103.037H16.6328C15.1787 103.037 14 104.211 14 105.66V110.715C14 112.163 15.1787 113.338 16.6328 113.338H48.1097C49.5638 113.338 50.7425 112.163 50.7425 110.715V105.66C50.7425 104.211 49.5638 103.037 48.1097 103.037Z" stroke="#232323" stroke-miterlimit="10"/>
<path d="M48.1097 92.6963H16.6328C15.1787 92.6963 14 93.8707 14 95.3193V100.374C14 101.823 15.1787 102.997 16.6328 102.997H48.1097C49.5638 102.997 50.7425 101.823 50.7425 100.374V95.3193C50.7425 93.8707 49.5638 92.6963 48.1097 92.6963Z" stroke="#232323" stroke-miterlimit="10"/>
<path d="M48.1097 82.3555H16.6328C15.1787 82.3555 14 83.5298 14 84.9785V90.033C14 91.4817 15.1787 92.6561 16.6328 92.6561H48.1097C49.5638 92.6561 50.7425 91.4817 50.7425 90.033V84.9785C50.7425 83.5298 49.5638 82.3555 48.1097 82.3555Z" stroke="#232323" stroke-miterlimit="10"/>
<path d="M49.9185 83.1938V73.42C49.7423 72.0483 49.4145 70.7002 48.9412 69.4003C48.1362 67.1907 46.9124 65.1559 45.3364 63.4067L39.0266 55.918H25.7875C23.6068 58.1218 21.5739 60.4662 19.7021 62.9358C17.5125 65.8302 16.8208 67.2189 16.471 67.9903C15.5182 70.0873 14.9089 72.3227 14.666 74.6118V83.2524" stroke="#232323" stroke-miterlimit="10"/>
<path d="M39.0234 55.9177V51.5229" stroke="#232323" stroke-miterlimit="10"/>
<path d="M25.7832 55.9177V51.5229" stroke="#232323" stroke-miterlimit="10"/>
<path d="M25.1786 40.5089H39.1574C39.5405 40.5089 39.908 40.6605 40.1789 40.9304C40.4498 41.2003 40.602 41.5664 40.602 41.9481V50.8893C40.602 51.0734 40.5285 51.25 40.3978 51.3802C40.2671 51.5105 40.09 51.5836 39.9051 51.5836H24.4177C24.2329 51.5836 24.0556 51.5105 23.9249 51.3802C23.7942 51.25 23.7207 51.0734 23.7207 50.8893V41.9374C23.7221 41.7482 23.761 41.5611 23.835 41.3868C23.9091 41.2126 24.017 41.0546 24.1524 40.9219C24.2878 40.7892 24.4481 40.6844 24.6243 40.6136C24.8004 40.5427 24.9887 40.5071 25.1786 40.5089V40.5089Z" stroke="#232323" stroke-miterlimit="10"/>
<path d="M95.0153 98.0493C91.7826 92.1208 89.6329 85.6617 88.6675 78.9763C87.987 73.7177 88.0382 68.39 88.8198 63.1456V63.1456C88.9473 62.3637 89.011 61.5728 89.0103 60.7806C88.9369 57.1331 87.6735 53.61 85.4132 50.7492C83.1528 47.8883 80.0199 45.8471 76.4925 44.9372C76.567 44.4569 76.567 43.9679 76.4925 43.4876C76.278 42.5128 75.7733 41.6261 75.0452 40.9446C75.0272 40.4031 75.0958 39.8622 75.2483 39.3424C75.2979 39.1738 75.3571 39.0082 75.4259 38.8465C75.4974 38.6732 75.5335 38.4873 75.5318 38.2997C75.5301 38.1122 75.4908 37.9269 75.4162 37.7549C75.3415 37.5829 75.2333 37.4277 75.0975 37.2985C74.9618 37.1693 74.8014 37.0687 74.6261 37.0028L72.2014 36.0873C71.9116 35.9807 71.5952 35.9715 71.2997 36.0609C71.0043 36.1504 70.7458 36.3337 70.5636 36.5832C70.1794 37.1213 69.8276 37.6817 69.5099 38.2616C68.8898 39.3937 68.3877 40.5868 68.0117 41.8219C67.4322 42.0373 66.9408 42.44 66.6153 42.9663C66.3649 43.5661 66.2395 44.2108 66.247 44.8609V45.0644C62.7136 45.8948 59.5708 47.9124 57.3417 50.7812C55.1126 53.65 53.9317 57.1969 53.9958 60.8314C53.9961 61.7949 54.0812 62.7565 54.2498 63.7051C54.8465 68.7777 54.7868 73.9062 54.072 78.9635C53.0815 85.2268 50.9651 91.2582 47.8257 96.7651C45.6197 100.218 44.4599 104.237 44.4868 108.336C44.5883 117.466 47.9908 128.108 59.6073 131.3C61.7988 131.597 64.024 131.537 66.1964 131.122V131.122C70.005 130.524 70.3732 130.41 71.2746 130.537C72.7854 130.753 72.8869 130.766 74.8801 131.122C76.3666 131.382 77.8675 131.551 79.3744 131.631C92.7809 130.537 98.3035 119.729 98.4178 109.277C98.5447 105.564 96.7038 101.152 95.0153 98.0493Z" fill="#ABFFA9"/>
<path d="M94.638 97.8497C91.4303 91.9504 89.2972 85.5231 88.3392 78.8706C87.6639 73.638 87.7148 68.3365 88.4904 63.1179V63.1179C88.6126 62.3395 88.6716 61.5525 88.6668 60.7645C88.6668 51.6798 80.894 44.3159 71.2946 44.3159C61.6952 44.3159 53.9225 51.6798 53.9225 60.7645C53.9229 61.7233 54.0071 62.6801 54.1744 63.624C54.7666 68.6717 54.7073 73.775 53.9981 78.8073C53.0152 85.0397 50.9151 91.0414 47.8 96.5212C45.6109 99.957 44.4601 103.956 44.4868 108.035C44.5876 117.12 47.9638 127.71 59.4906 130.886C61.6653 131.181 63.8732 131.122 66.0289 130.709C69.8081 130.114 70.1735 130 71.0679 130.127C72.567 130.342 72.6678 130.355 74.6456 130.709C76.1206 130.968 77.6099 131.137 79.1052 131.215C92.4083 130.127 97.8883 119.372 98.0017 108.971C98.1402 105.328 96.3135 100.937 94.638 97.8497Z" stroke="#232323" stroke-miterlimit="10"/>
<path d="M76.3504 45.1473C76.4608 44.5735 76.4608 43.9844 76.3504 43.4106C76.135 42.4458 75.6282 41.5682 74.8969 40.8937C74.8789 40.3578 74.9478 39.8225 75.1009 39.308C75.1507 39.1411 75.2101 38.9773 75.2793 38.8172C75.3511 38.6457 75.3873 38.4617 75.3856 38.2761C75.3839 38.0905 75.3444 37.9071 75.2695 37.7368C75.1945 37.5666 75.0858 37.413 74.9495 37.2851C74.8132 37.1572 74.6521 37.0577 74.476 36.9925L72.0408 36.0864C71.7498 35.9809 71.432 35.9718 71.1353 36.0603C70.8386 36.1488 70.579 36.3303 70.396 36.5772C70.0102 37.1097 69.6569 37.6644 69.3378 38.2384C68.715 39.3588 68.2108 40.5396 67.8332 41.762C67.2511 41.9752 66.7576 42.3737 66.4307 42.8946C66.1792 43.4883 66.0533 44.1264 66.0609 44.7697" stroke="#232323" stroke-miterlimit="10"/>
<path d="M64.4018 50.5522C62.7773 51.797 61.5161 53.4016 60.7344 55.2181C59.9527 57.0347 59.6757 59.0048 59.9289 60.9469" stroke="#232323" stroke-miterlimit="10"/>
</svg>
