<svg width="262" height="52" viewBox="0 0 262 52" fill="none" xmlns="http://www.w3.org/2000/svg">
<rect width="262" height="52" rx="20" fill="#F5F5F5"/>
<path d="M27.476 33V20.436H35.756V22.542H29.852V25.584H35.072V27.69H29.852V30.894H35.756V33H27.476ZM37.135 33L40.339 28.23L37.207 23.604H39.835L41.779 26.718H41.851L43.777 23.604H46.225L43.039 28.266L46.243 33H43.615L41.635 29.76H41.563L39.583 33H37.135ZM47.916 23.604H50.22V25.152H50.292C50.46 24.612 50.778 24.186 51.246 23.874C51.714 23.55 52.26 23.388 52.884 23.388C54.084 23.388 54.996 23.814 55.62 24.666C56.256 25.506 56.574 26.712 56.574 28.284C56.574 29.868 56.256 31.086 55.62 31.938C54.996 32.79 54.084 33.216 52.884 33.216C52.26 33.216 51.714 33.054 51.246 32.73C50.79 32.406 50.472 31.974 50.292 31.434H50.22V36.6H47.916V23.604ZM52.146 31.308C52.746 31.308 53.232 31.11 53.604 30.714C53.976 30.318 54.162 29.784 54.162 29.112V27.492C54.162 26.82 53.976 26.286 53.604 25.89C53.232 25.482 52.746 25.278 52.146 25.278C51.594 25.278 51.132 25.416 50.76 25.692C50.4 25.968 50.22 26.334 50.22 26.79V29.778C50.22 30.27 50.4 30.648 50.76 30.912C51.132 31.176 51.594 31.308 52.146 31.308ZM62.435 33.216C61.763 33.216 61.157 33.102 60.617 32.874C60.089 32.646 59.633 32.316 59.249 31.884C58.877 31.452 58.589 30.936 58.385 30.336C58.181 29.724 58.079 29.04 58.079 28.284C58.079 27.528 58.181 26.85 58.385 26.25C58.589 25.65 58.877 25.14 59.249 24.72C59.633 24.288 60.089 23.958 60.617 23.73C61.157 23.502 61.763 23.388 62.435 23.388C63.107 23.388 63.713 23.502 64.253 23.73C64.793 23.958 65.249 24.288 65.621 24.72C66.005 25.14 66.299 25.65 66.503 26.25C66.707 26.85 66.809 27.528 66.809 28.284C66.809 29.04 66.707 29.724 66.503 30.336C66.299 30.936 66.005 31.452 65.621 31.884C65.249 32.316 64.793 32.646 64.253 32.874C63.713 33.102 63.107 33.216 62.435 33.216ZM62.435 31.362C63.047 31.362 63.527 31.176 63.875 30.804C64.223 30.432 64.397 29.886 64.397 29.166V27.42C64.397 26.712 64.223 26.172 63.875 25.8C63.527 25.428 63.047 25.242 62.435 25.242C61.835 25.242 61.361 25.428 61.013 25.8C60.665 26.172 60.491 26.712 60.491 27.42V29.166C60.491 29.886 60.665 30.432 61.013 30.804C61.361 31.176 61.835 31.362 62.435 31.362ZM68.8515 33V23.604H71.1555V25.548H71.2455C71.3055 25.296 71.3955 25.056 71.5155 24.828C71.6475 24.588 71.8155 24.378 72.0195 24.198C72.2235 24.018 72.4635 23.874 72.7395 23.766C73.0275 23.658 73.3575 23.604 73.7295 23.604H74.2335V25.782H73.5135C72.7335 25.782 72.1455 25.896 71.7495 26.124C71.3535 26.352 71.1555 26.724 71.1555 27.24V33H68.8515ZM78.9223 33C78.1303 33 77.5243 32.796 77.1043 32.388C76.6963 31.968 76.4923 31.374 76.4923 30.606V25.44H75.1063V23.604H75.8263C76.1743 23.604 76.4083 23.526 76.5283 23.37C76.6603 23.202 76.7263 22.956 76.7263 22.632V21.03H78.7963V23.604H80.7223V25.44H78.7963V31.164H80.5783V33H78.9223ZM89.6327 33C89.1287 33 88.7267 32.856 88.4267 32.568C88.1387 32.268 87.9587 31.872 87.8867 31.38H87.7787C87.6227 31.992 87.3047 32.454 86.8247 32.766C86.3447 33.066 85.7507 33.216 85.0427 33.216C84.0827 33.216 83.3447 32.964 82.8287 32.46C82.3127 31.956 82.0547 31.284 82.0547 30.444C82.0547 29.472 82.4027 28.752 83.0987 28.284C83.7947 27.804 84.7847 27.564 86.0687 27.564H87.6707V26.88C87.6707 26.352 87.5327 25.944 87.2567 25.656C86.9807 25.368 86.5367 25.224 85.9247 25.224C85.3847 25.224 84.9467 25.344 84.6107 25.584C84.2867 25.812 84.0107 26.088 83.7827 26.412L82.4147 25.188C82.7627 24.648 83.2247 24.216 83.8007 23.892C84.3767 23.556 85.1387 23.388 86.0867 23.388C87.3587 23.388 88.3247 23.676 88.9847 24.252C89.6447 24.828 89.9747 25.656 89.9747 26.736V31.164H90.9107V33H89.6327ZM85.8167 31.542C86.3327 31.542 86.7707 31.428 87.1307 31.2C87.4907 30.972 87.6707 30.636 87.6707 30.192V28.95H86.1947C84.9947 28.95 84.3947 29.334 84.3947 30.102V30.408C84.3947 30.792 84.5147 31.08 84.7547 31.272C85.0067 31.452 85.3607 31.542 85.8167 31.542ZM92.7754 33V23.604H95.0794V25.548H95.1694C95.2294 25.296 95.3194 25.056 95.4394 24.828C95.5714 24.588 95.7394 24.378 95.9434 24.198C96.1474 24.018 96.3874 23.874 96.6634 23.766C96.9514 23.658 97.2814 23.604 97.6534 23.604H98.1574V25.782H97.4374C96.6574 25.782 96.0694 25.896 95.6734 26.124C95.2774 26.352 95.0794 26.724 95.0794 27.24V33H92.7754ZM106.4 33C105.608 33 105.026 32.802 104.654 32.406C104.282 32.01 104.096 31.452 104.096 30.732V19.68H106.4V31.164H107.642V33H106.4ZM110.539 22.236C110.059 22.236 109.711 22.128 109.495 21.912C109.291 21.696 109.189 21.42 109.189 21.084V20.724C109.189 20.388 109.291 20.112 109.495 19.896C109.711 19.68 110.059 19.572 110.539 19.572C111.007 19.572 111.349 19.68 111.565 19.896C111.781 20.112 111.889 20.388 111.889 20.724V21.084C111.889 21.42 111.781 21.696 111.565 21.912C111.349 22.128 111.007 22.236 110.539 22.236ZM109.387 23.604H111.691V33H109.387V23.604ZM117.439 33.216C116.539 33.216 115.783 33.066 115.171 32.766C114.559 32.454 114.019 32.028 113.551 31.488L114.955 30.12C115.303 30.516 115.681 30.828 116.089 31.056C116.509 31.284 116.989 31.398 117.529 31.398C118.081 31.398 118.477 31.302 118.717 31.11C118.969 30.918 119.095 30.654 119.095 30.318C119.095 30.042 119.005 29.826 118.825 29.67C118.657 29.502 118.363 29.388 117.943 29.328L117.007 29.202C115.987 29.07 115.207 28.782 114.667 28.338C114.139 27.882 113.875 27.222 113.875 26.358C113.875 25.902 113.959 25.494 114.127 25.134C114.295 24.762 114.535 24.45 114.847 24.198C115.159 23.934 115.531 23.736 115.963 23.604C116.407 23.46 116.899 23.388 117.439 23.388C117.895 23.388 118.297 23.424 118.645 23.496C119.005 23.556 119.329 23.652 119.617 23.784C119.905 23.904 120.169 24.06 120.409 24.252C120.649 24.432 120.883 24.636 121.111 24.864L119.761 26.214C119.485 25.926 119.155 25.686 118.771 25.494C118.387 25.302 117.967 25.206 117.511 25.206C117.007 25.206 116.641 25.296 116.413 25.476C116.197 25.656 116.089 25.89 116.089 26.178C116.089 26.49 116.179 26.73 116.359 26.898C116.551 27.054 116.869 27.168 117.313 27.24L118.267 27.366C120.295 27.654 121.309 28.578 121.309 30.138C121.309 30.594 121.213 31.014 121.021 31.398C120.841 31.77 120.583 32.094 120.247 32.37C119.911 32.634 119.503 32.844 119.023 33C118.555 33.144 118.027 33.216 117.439 33.216ZM126.137 33C125.345 33 124.739 32.796 124.319 32.388C123.911 31.968 123.707 31.374 123.707 30.606V25.44H122.321V23.604H123.041C123.389 23.604 123.623 23.526 123.743 23.37C123.875 23.202 123.941 22.956 123.941 22.632V21.03H126.011V23.604H127.937V25.44H126.011V31.164H127.793V33H126.137ZM136.848 33C136.344 33 135.942 32.856 135.642 32.568C135.354 32.268 135.174 31.872 135.102 31.38H134.994C134.838 31.992 134.52 32.454 134.04 32.766C133.56 33.066 132.966 33.216 132.258 33.216C131.298 33.216 130.56 32.964 130.044 32.46C129.528 31.956 129.27 31.284 129.27 30.444C129.27 29.472 129.618 28.752 130.314 28.284C131.01 27.804 132 27.564 133.284 27.564H134.886V26.88C134.886 26.352 134.748 25.944 134.472 25.656C134.196 25.368 133.752 25.224 133.14 25.224C132.6 25.224 132.162 25.344 131.826 25.584C131.502 25.812 131.226 26.088 130.998 26.412L129.63 25.188C129.978 24.648 130.44 24.216 131.016 23.892C131.592 23.556 132.354 23.388 133.302 23.388C134.574 23.388 135.54 23.676 136.2 24.252C136.86 24.828 137.19 25.656 137.19 26.736V31.164H138.126V33H136.848ZM133.032 31.542C133.548 31.542 133.986 31.428 134.346 31.2C134.706 30.972 134.886 30.636 134.886 30.192V28.95H133.41C132.21 28.95 131.61 29.334 131.61 30.102V30.408C131.61 30.792 131.73 31.08 131.97 31.272C132.222 31.452 132.576 31.542 133.032 31.542Z" fill="#232323"/>
<path d="M219.744 21.7988H218C215.239 21.7988 213 24.0374 213 26.7988V33.999C213 36.7604 215.239 38.999 218 38.999H230.286C233.047 38.999 235.286 36.7604 235.286 33.9989V26.7988C235.286 24.0374 233.047 21.7988 230.286 21.7988H228.835" stroke="#232323" stroke-width="2" stroke-linecap="round"/>
<path d="M224.344 32.0098L224.344 13.2409" stroke="#232323" stroke-width="2" stroke-linecap="round"/>
<path d="M229.713 17.7539L224.348 12.9993L218.57 17.7539" stroke="#232323" stroke-width="2" stroke-linecap="round" stroke-linejoin="round"/>
</svg>
