<svg width="245" height="85" viewBox="0 0 245 85" fill="none" xmlns="http://www.w3.org/2000/svg">
<path d="M0 0H245V63.913C245 75.3522 235.727 84.6256 224.287 84.6256H20.7126C9.27332 84.6256 0 75.3523 0 63.913V0Z" fill="#F7F7F7"/>
<path d="M169.317 60.4327H169.282L168.678 61.64L167.069 64.5634L165.494 61.6518L164.867 60.3499H164.832V65.8535H163.139V57.5922H165.045L167.069 61.4625H167.092L169.092 57.5922H171.01V65.8535H169.317V60.4327ZM172.517 65.8535V64.4214H173.582V59.0243H172.517V57.5922H176.446V59.0243H175.381V64.4214H176.446V65.8535H172.517ZM180.742 65.8535V57.5922H182.541V64.2557H185.69V65.8535H180.742ZM186.699 65.8535V64.4214H187.764V59.0243H186.699V57.5922H190.628V59.0243H189.563V64.4214H190.628V65.8535H186.699ZM194.802 65.9955C194.076 65.9955 193.461 65.8732 192.956 65.6286C192.451 65.3761 192.021 65.0526 191.666 64.6581L192.849 63.4627C193.41 64.0939 194.1 64.4096 194.921 64.4096C195.362 64.4096 195.69 64.3188 195.903 64.1373C196.116 63.9559 196.223 63.7152 196.223 63.4154C196.223 63.1865 196.159 62.9972 196.033 62.8472C195.907 62.6894 195.65 62.5829 195.264 62.5277L194.447 62.4211C193.571 62.3107 192.928 62.0463 192.518 61.6282C192.116 61.21 191.914 60.6537 191.914 59.9593C191.914 59.5885 191.985 59.2492 192.127 58.9414C192.269 58.6337 192.471 58.3694 192.731 58.1484C192.999 57.9275 193.323 57.7579 193.702 57.6395C194.088 57.5133 194.526 57.4501 195.015 57.4501C195.639 57.4501 196.187 57.5488 196.66 57.746C197.134 57.9433 197.54 58.2313 197.88 58.61L196.684 59.8173C196.487 59.5885 196.246 59.403 195.962 59.261C195.686 59.1111 195.335 59.0361 194.909 59.0361C194.506 59.0361 194.207 59.1071 194.009 59.2492C193.812 59.3912 193.713 59.5885 193.713 59.841C193.713 60.125 193.788 60.3302 193.938 60.4564C194.096 60.5827 194.349 60.6734 194.696 60.7286L195.512 60.8588C196.365 60.993 196.996 61.2573 197.406 61.6518C197.816 62.0385 198.022 62.5908 198.022 63.3088C198.022 63.7034 197.951 64.0663 197.809 64.3977C197.667 64.7291 197.457 65.0132 197.181 65.2499C196.913 65.4866 196.578 65.672 196.175 65.8062C195.773 65.9324 195.315 65.9955 194.802 65.9955ZM202.68 59.19V65.8535H200.881V59.19H198.644V57.5922H204.917V59.19H202.68ZM210.463 65.8535L209.871 63.8888H207.113L206.521 65.8535H204.699L207.421 57.5922H209.646L212.333 65.8535H210.463ZM208.51 59.2255H208.451L207.539 62.362H209.433L208.51 59.2255Z" fill="#232323"/>
<path d="M122.5 46.8945V70.9141" stroke="#232323" stroke-width="0.591787" stroke-linecap="round"/>
<path d="M25.3312 65.8535V57.5922H29.237C29.6236 57.5922 29.9708 57.6592 30.2785 57.7934C30.5863 57.9196 30.8467 58.0972 31.0597 58.326C31.2806 58.5548 31.4503 58.8349 31.5686 59.1663C31.687 59.4898 31.7462 59.8449 31.7462 60.2315C31.7462 60.6261 31.687 60.9851 31.5686 61.3086C31.4503 61.6321 31.2806 61.9083 31.0597 62.1371C30.8467 62.3659 30.5863 62.5474 30.2785 62.6815C29.9708 62.8078 29.6236 62.8709 29.237 62.8709H27.1302V65.8535H25.3312ZM27.1302 61.3086H29.0239C29.2922 61.3086 29.5013 61.2415 29.6512 61.1074C29.8091 60.9654 29.888 60.7602 29.888 60.4919V59.9711C29.888 59.7029 29.8091 59.5017 29.6512 59.3675C29.5013 59.2255 29.2922 59.1545 29.0239 59.1545H27.1302V61.3086ZM34.8974 65.8535H33.0984V57.5922H37.016C37.3948 57.5922 37.738 57.6553 38.0457 57.7815C38.3535 57.9078 38.6139 58.0893 38.8269 58.326C39.0478 58.5548 39.2175 58.831 39.3358 59.1545C39.4542 59.478 39.5134 59.837 39.5134 60.2315C39.5134 60.7918 39.3871 61.281 39.1346 61.6992C38.89 62.1174 38.5152 62.4211 38.0102 62.6105L39.6317 65.8535H37.6315L36.1875 62.8236H34.8974V65.8535ZM36.7912 61.3086C37.0594 61.3086 37.2685 61.2415 37.4185 61.1074C37.5763 60.9654 37.6552 60.7602 37.6552 60.4919V59.9711C37.6552 59.7029 37.5763 59.5017 37.4185 59.3675C37.2685 59.2255 37.0594 59.1545 36.7912 59.1545H34.8974V61.3086H36.7912ZM44.2721 65.9955C43.7276 65.9955 43.2305 65.9048 42.7808 65.7233C42.331 65.5418 41.9483 65.2736 41.6327 64.9185C41.3171 64.5555 41.0725 64.1097 40.8989 63.5811C40.7253 63.0445 40.6385 62.4251 40.6385 61.7228C40.6385 61.0206 40.7253 60.4051 40.8989 59.8765C41.0725 59.3399 41.3171 58.8941 41.6327 58.539C41.9483 58.1761 42.331 57.9038 42.7808 57.7224C43.2305 57.5409 43.7276 57.4501 44.2721 57.4501C44.8165 57.4501 45.3136 57.5409 45.7634 57.7224C46.2132 57.9038 46.5958 58.1761 46.9115 58.539C47.2271 58.8941 47.4717 59.3399 47.6453 59.8765C47.8189 60.4051 47.9057 61.0206 47.9057 61.7228C47.9057 62.4251 47.8189 63.0445 47.6453 63.5811C47.4717 64.1097 47.2271 64.5555 46.9115 64.9185C46.5958 65.2736 46.2132 65.5418 45.7634 65.7233C45.3136 65.9048 44.8165 65.9955 44.2721 65.9955ZM44.2721 64.3977C44.8165 64.3977 45.2387 64.2202 45.5385 63.8651C45.8462 63.51 46.0001 63.0011 46.0001 62.3383V61.1074C46.0001 60.4446 45.8462 59.9356 45.5385 59.5806C45.2387 59.2255 44.8165 59.048 44.2721 59.048C43.7276 59.048 43.3016 59.2255 42.9938 59.5806C42.694 59.9356 42.5441 60.4446 42.5441 61.1074V62.3383C42.5441 63.0011 42.694 63.51 42.9938 63.8651C43.3016 64.2202 43.7276 64.3977 44.2721 64.3977ZM49.4072 57.5922H52.52C53.0645 57.5922 53.5616 57.679 54.0113 57.8525C54.4611 58.0261 54.8438 58.2865 55.1594 58.6337C55.475 58.973 55.7196 59.403 55.8932 59.9238C56.0668 60.4367 56.1536 61.0364 56.1536 61.7228C56.1536 62.4093 56.0668 63.0129 55.8932 63.5337C55.7196 64.0466 55.475 64.4766 55.1594 64.8238C54.8438 65.1631 54.4611 65.4195 54.0113 65.5931C53.5616 65.7667 53.0645 65.8535 52.52 65.8535H49.4072V57.5922ZM52.52 64.2557C53.0566 64.2557 53.4787 64.1058 53.7865 63.8059C54.0942 63.5061 54.2481 63.0248 54.2481 62.362V61.0837C54.2481 60.4209 54.0942 59.9396 53.7865 59.6397C53.4787 59.3399 53.0566 59.19 52.52 59.19H51.2063V64.2557H52.52ZM59.3642 57.5922V62.6579C59.3642 63.2418 59.4787 63.6797 59.7075 63.9716C59.9363 64.2557 60.319 64.3977 60.8555 64.3977C61.3921 64.3977 61.7748 64.2557 62.0036 63.9716C62.2324 63.6797 62.3469 63.2418 62.3469 62.6579V57.5922H64.0985V62.4685C64.0985 63.0761 64.0394 63.6047 63.921 64.0545C63.8105 64.4963 63.6251 64.8633 63.3647 65.1552C63.1043 65.4393 62.769 65.6523 62.3587 65.7943C61.9484 65.9285 61.4473 65.9955 60.8555 65.9955C60.2638 65.9955 59.7627 65.9285 59.3524 65.7943C58.9421 65.6523 58.6068 65.4393 58.3464 65.1552C58.086 64.8633 57.8966 64.4963 57.7783 64.0545C57.6678 63.6047 57.6126 63.0761 57.6126 62.4685V57.5922H59.3642ZM69.2156 65.9955C68.6553 65.9955 68.1503 65.9087 67.7006 65.7352C67.2508 65.5537 66.8681 65.2893 66.5525 64.9422C66.2369 64.5871 65.9923 64.1492 65.8187 63.6284C65.6451 63.0997 65.5583 62.4843 65.5583 61.782C65.5583 61.0877 65.6451 60.4722 65.8187 59.9356C65.9923 59.3912 66.2369 58.9375 66.5525 58.5745C66.8681 58.2037 67.2508 57.9236 67.7006 57.7342C68.1503 57.5448 68.6553 57.4501 69.2156 57.4501C69.9809 57.4501 70.6122 57.6079 71.1093 57.9236C71.6064 58.2313 72.0049 58.7205 72.3047 59.3912L70.7542 60.196C70.6437 59.8488 70.4702 59.5727 70.2334 59.3675C70.0046 59.1545 69.6653 59.048 69.2156 59.048C68.6869 59.048 68.2608 59.2216 67.9373 59.5687C67.6217 59.908 67.4639 60.4051 67.4639 61.06V62.3856C67.4639 63.0406 67.6217 63.5416 67.9373 63.8888C68.2608 64.2281 68.6869 64.3977 69.2156 64.3977C69.6574 64.3977 70.0086 64.2794 70.2689 64.0426C70.5372 63.798 70.7345 63.5061 70.8607 63.1668L72.3284 64.019C72.0206 64.6502 71.6143 65.1394 71.1093 65.4866C70.6122 65.8259 69.9809 65.9955 69.2156 65.9955ZM77.0315 59.19V65.8535H75.2325V59.19H72.9955V57.5922H79.2685V59.19H77.0315ZM83.5127 65.9955C82.9682 65.9955 82.4711 65.9048 82.0214 65.7233C81.5716 65.5418 81.1889 65.2736 80.8733 64.9185C80.5577 64.5555 80.3131 64.1097 80.1395 63.5811C79.9659 63.0445 79.8791 62.4251 79.8791 61.7228C79.8791 61.0206 79.9659 60.4051 80.1395 59.8765C80.3131 59.3399 80.5577 58.8941 80.8733 58.539C81.1889 58.1761 81.5716 57.9038 82.0214 57.7224C82.4711 57.5409 82.9682 57.4501 83.5127 57.4501C84.0571 57.4501 84.5542 57.5409 85.004 57.7224C85.4537 57.9038 85.8364 58.1761 86.1521 58.539C86.4677 58.8941 86.7123 59.3399 86.8859 59.8765C87.0595 60.4051 87.1463 61.0206 87.1463 61.7228C87.1463 62.4251 87.0595 63.0445 86.8859 63.5811C86.7123 64.1097 86.4677 64.5555 86.1521 64.9185C85.8364 65.2736 85.4537 65.5418 85.004 65.7233C84.5542 65.9048 84.0571 65.9955 83.5127 65.9955ZM83.5127 64.3977C84.0571 64.3977 84.4793 64.2202 84.7791 63.8651C85.0868 63.51 85.2407 63.0011 85.2407 62.3383V61.1074C85.2407 60.4446 85.0868 59.9356 84.7791 59.5806C84.4793 59.2255 84.0571 59.048 83.5127 59.048C82.9682 59.048 82.5422 59.2255 82.2344 59.5806C81.9346 59.9356 81.7847 60.4446 81.7847 61.1074V62.3383C81.7847 63.0011 81.9346 63.51 82.2344 63.8651C82.5422 64.2202 82.9682 64.3977 83.5127 64.3977ZM91.2765 65.9955C90.5506 65.9955 89.9351 65.8732 89.4301 65.6286C88.9251 65.3761 88.4951 65.0526 88.14 64.6581L89.3236 63.4627C89.8838 64.0939 90.5742 64.4096 91.3948 64.4096C91.8367 64.4096 92.1642 64.3188 92.3772 64.1373C92.5902 63.9559 92.6968 63.7152 92.6968 63.4154C92.6968 63.1865 92.6336 62.9972 92.5074 62.8472C92.3811 62.6894 92.1247 62.5829 91.7381 62.5277L90.9214 62.4211C90.0456 62.3107 89.4025 62.0463 88.9922 61.6282C88.5898 61.21 88.3886 60.6537 88.3886 59.9593C88.3886 59.5885 88.4596 59.2492 88.6016 58.9414C88.7436 58.6337 88.9448 58.3694 89.2052 58.1484C89.4735 57.9275 89.797 57.7579 90.1758 57.6395C90.5624 57.5133 91.0003 57.4501 91.4895 57.4501C92.1129 57.4501 92.6613 57.5488 93.1347 57.746C93.6081 57.9433 94.0145 58.2313 94.3538 58.61L93.1584 59.8173C92.9611 59.5885 92.7204 59.403 92.4364 59.261C92.1602 59.1111 91.8091 59.0361 91.383 59.0361C90.9806 59.0361 90.6807 59.1071 90.4835 59.2492C90.2862 59.3912 90.1876 59.5885 90.1876 59.841C90.1876 60.125 90.2625 60.3302 90.4125 60.4564C90.5703 60.5827 90.8228 60.6734 91.17 60.7286L91.9866 60.8588C92.8388 60.993 93.47 61.2573 93.8803 61.6518C94.2906 62.0385 94.4958 62.5908 94.4958 63.3088C94.4958 63.7034 94.4248 64.0663 94.2828 64.3977C94.1407 64.7291 93.9316 65.0132 93.6555 65.2499C93.3872 65.4866 93.0518 65.672 92.6494 65.8062C92.247 65.9324 91.7894 65.9955 91.2765 65.9955Z" fill="#232323"/>
<circle cx="20.628" cy="21.2198" r="6.4249" stroke="#232323" stroke-width="1.18357" stroke-linecap="round" stroke-linejoin="round"/>
<path d="M25.5781 25.5371L30.4231 30.3821" stroke="#232323" stroke-width="1.18357" stroke-linecap="round" stroke-linejoin="round"/>
<path d="M221.417 20.002H220.385C218.751 20.002 217.426 21.3267 217.426 22.9609V27.2218C217.426 28.856 218.751 30.1808 220.385 30.1808H227.655C229.289 30.1808 230.614 28.856 230.614 27.2218V22.9609C230.614 21.3267 229.289 20.002 227.655 20.002H226.796" stroke="#232323" stroke-width="1.18357" stroke-linecap="round"/>
<path d="M224.141 26.0449L224.141 14.9378" stroke="#232323" stroke-width="1.18357" stroke-linecap="round"/>
<path d="M227.317 17.6094L224.142 14.7956L220.723 17.6094" stroke="#232323" stroke-width="1.18357" stroke-linecap="round" stroke-linejoin="round"/>
<path d="M84.2347 29.5005C83.2293 29.5005 82.3769 29.3329 81.6774 28.9979C80.978 28.652 80.3824 28.2088 79.8906 27.6684L81.5299 26.0308C82.3058 26.8955 83.2621 27.3279 84.3986 27.3279C85.0106 27.3279 85.4642 27.2036 85.7592 26.955C86.0543 26.7064 86.2018 26.3767 86.2018 25.966C86.2018 25.6525 86.1144 25.3931 85.9396 25.1877C85.7647 24.9715 85.4095 24.8256 84.874 24.75L83.7429 24.604C82.5299 24.4527 81.6392 24.0906 81.0709 23.5177C80.5135 22.9449 80.2349 22.1828 80.2349 21.2317C80.2349 20.7236 80.3332 20.2589 80.5299 19.8373C80.7267 19.4158 81.0053 19.0537 81.366 18.751C81.7375 18.4484 82.1856 18.216 82.7102 18.0538C83.2457 17.8809 83.8522 17.7944 84.5298 17.7944C85.3931 17.7944 86.1527 17.9295 86.8084 18.1998C87.4641 18.47 88.0269 18.8645 88.4968 19.3833L86.8412 21.0371C86.5679 20.7236 86.2346 20.4696 85.8412 20.2751C85.4587 20.0697 84.9724 19.967 84.3822 19.967C83.8249 19.967 83.4096 20.0643 83.1364 20.2589C82.8632 20.4534 82.7266 20.7236 82.7266 21.0695C82.7266 21.4586 82.8304 21.7397 83.038 21.9126C83.2566 22.0856 83.6063 22.2099 84.0872 22.2855L85.2183 22.4639C86.3986 22.6476 87.2728 23.0097 87.8411 23.5502C88.4094 24.0798 88.6935 24.8364 88.6935 25.82C88.6935 26.3605 88.5952 26.8577 88.3985 27.3117C88.2018 27.7656 87.9121 28.1548 87.5297 28.479C87.1581 28.8033 86.6936 29.0573 86.1363 29.2411C85.5789 29.414 84.9451 29.5005 84.2347 29.5005Z" fill="#1D1D1B"/>
<path d="M94.7265 27.8791H94.6445C94.568 28.0953 94.4642 28.3007 94.333 28.4952C94.2128 28.6898 94.0544 28.8627 93.8576 29.0141C93.6609 29.1654 93.426 29.2843 93.1528 29.3708C92.8905 29.4572 92.5845 29.5005 92.2348 29.5005C91.3495 29.5005 90.6774 29.214 90.2184 28.6412C89.7704 28.0575 89.5463 27.2252 89.5463 26.1443V20.7939H91.9725V25.9335C91.9725 26.4524 92.0654 26.8523 92.2512 27.1333C92.4369 27.4144 92.7539 27.5549 93.2019 27.5549C93.3877 27.5549 93.5735 27.5278 93.7593 27.4738C93.9451 27.4198 94.109 27.3441 94.2511 27.2468C94.3931 27.1387 94.5079 27.009 94.5953 26.8577C94.6827 26.7064 94.7265 26.528 94.7265 26.3227V20.7939H97.1526V29.3059H94.7265V27.8791Z" fill="#1D1D1B"/>
<path d="M98.4264 20.7939H100.852V22.2207H100.934C101.055 21.7451 101.328 21.356 101.754 21.0533C102.191 20.7507 102.688 20.5993 103.246 20.5993C104.339 20.5993 105.164 20.9777 105.721 21.7343C106.278 22.4909 106.557 23.5934 106.557 25.0418C106.557 26.4902 106.278 27.5981 105.721 28.3655C105.164 29.1222 104.339 29.5005 103.246 29.5005C102.962 29.5005 102.694 29.4572 102.443 29.3708C102.191 29.2951 101.962 29.187 101.754 29.0465C101.557 28.8952 101.388 28.7222 101.246 28.5277C101.104 28.3223 101 28.1061 100.934 27.8791H100.852V32.5486H98.4264V20.7939ZM102.443 27.5549C102.902 27.5549 103.279 27.3981 103.574 27.0847C103.88 26.7604 104.033 26.3281 104.033 25.7876V24.3122C104.033 23.7718 103.88 23.3448 103.574 23.0313C103.279 22.7071 102.902 22.5449 102.443 22.5449C101.984 22.5449 101.601 22.6584 101.295 22.8854C101 23.1016 100.852 23.4043 100.852 23.7934V26.3064C100.852 26.6956 101 27.0036 101.295 27.2306C101.601 27.4468 101.984 27.5549 102.443 27.5549Z" fill="#1D1D1B"/>
<path d="M111.006 29.5005C110.35 29.5005 109.766 29.3978 109.252 29.1924C108.738 28.9762 108.301 28.679 107.941 28.3007C107.591 27.9116 107.323 27.4414 107.137 26.8901C106.963 26.3389 106.875 25.7228 106.875 25.0418C106.875 24.3716 106.963 23.7663 107.137 23.2259C107.312 22.6746 107.569 22.2045 107.908 21.8153C108.258 21.4262 108.684 21.129 109.187 20.9236C109.689 20.7074 110.263 20.5993 110.908 20.5993C111.618 20.5993 112.225 20.7182 112.727 20.956C113.241 21.1938 113.656 21.5127 113.973 21.9126C114.301 22.3126 114.536 22.7773 114.678 23.307C114.831 23.8258 114.908 24.3716 114.908 24.9445V25.6579H109.383V25.7876C109.383 26.3497 109.536 26.7982 109.842 27.1333C110.148 27.4576 110.629 27.6197 111.285 27.6197C111.788 27.6197 112.197 27.5224 112.514 27.3279C112.831 27.1225 113.126 26.8793 113.399 26.5983L114.613 28.0899C114.23 28.5331 113.727 28.879 113.104 29.1276C112.492 29.3762 111.793 29.5005 111.006 29.5005ZM110.957 22.3666C110.465 22.3666 110.077 22.5287 109.793 22.853C109.52 23.1665 109.383 23.588 109.383 24.1176V24.2473H112.4V24.1014C112.4 23.5826 112.279 23.1665 112.039 22.853C111.809 22.5287 111.449 22.3666 110.957 22.3666Z" fill="#1D1D1B"/>
<path d="M115.637 29.3059V20.7939H118.064V22.6422H118.146C118.189 22.4044 118.266 22.1774 118.375 21.9613C118.484 21.7343 118.626 21.5343 118.801 21.3614C118.987 21.1884 119.206 21.0533 119.457 20.956C119.708 20.8479 120.003 20.7939 120.342 20.7939H120.768V23.0313H120.162C119.452 23.0313 118.921 23.1232 118.572 23.307C118.233 23.4907 118.064 23.8312 118.064 24.3284V29.3059H115.637Z" fill="#1D1D1B"/>
<path d="M123.691 29.3059C122.861 29.3059 122.249 29.1059 121.855 28.706C121.473 28.3061 121.281 27.7278 121.281 26.9712V17.308H123.708V27.4414H124.79V29.3059H123.691Z" fill="#1D1D1B"/>
<path d="M126.474 19.886C125.982 19.886 125.621 19.7779 125.392 19.5617C125.173 19.3347 125.064 19.0483 125.064 18.7024V18.3457C125.064 17.9998 125.173 17.7188 125.392 17.5026C125.621 17.2756 125.982 17.1621 126.474 17.1621C126.965 17.1621 127.321 17.2756 127.539 17.5026C127.769 17.7188 127.883 17.9998 127.883 18.3457V18.7024C127.883 19.0483 127.769 19.3347 127.539 19.5617C127.321 19.7779 126.965 19.886 126.474 19.886ZM125.261 20.7939H127.687V29.3059H125.261V20.7939Z" fill="#1D1D1B"/>
<path d="M131.885 29.5005C131.055 29.5005 130.355 29.3708 129.787 29.1114C129.219 28.8411 128.711 28.4628 128.263 27.9764L129.689 26.5496C129.995 26.8847 130.334 27.1495 130.705 27.3441C131.077 27.5387 131.497 27.6359 131.967 27.6359C132.448 27.6359 132.782 27.5657 132.967 27.4252C133.153 27.2738 133.246 27.0739 133.246 26.8253C133.246 26.4253 132.956 26.1875 132.377 26.1119L131.443 25.9984C129.508 25.7606 128.541 24.8851 128.541 23.3718C128.541 22.9611 128.618 22.5882 128.771 22.2531C128.935 21.9072 129.159 21.6154 129.443 21.3776C129.738 21.129 130.088 20.9398 130.492 20.8101C130.907 20.6696 131.372 20.5993 131.885 20.5993C132.333 20.5993 132.727 20.6318 133.066 20.6966C133.415 20.7507 133.721 20.8371 133.984 20.956C134.257 21.0641 134.503 21.2046 134.721 21.3776C134.951 21.5397 135.175 21.7235 135.393 21.9288L134 23.3394C133.727 23.0692 133.415 22.8584 133.066 22.7071C132.727 22.5449 132.377 22.4639 132.017 22.4639C131.601 22.4639 131.306 22.5287 131.131 22.6584C130.956 22.7881 130.869 22.9611 130.869 23.1773C130.869 23.4043 130.929 23.5826 131.049 23.7123C131.181 23.8312 131.421 23.9177 131.771 23.9717L132.738 24.1014C134.628 24.35 135.574 25.2039 135.574 26.6631C135.574 27.0739 135.486 27.4522 135.311 27.7981C135.137 28.144 134.885 28.4466 134.557 28.706C134.24 28.9546 133.853 29.1492 133.394 29.2897C132.945 29.4302 132.443 29.5005 131.885 29.5005Z" fill="#1D1D1B"/>
<path d="M139.133 29.3059C138.291 29.3059 137.652 29.0951 137.215 28.6736C136.788 28.252 136.575 27.6359 136.575 26.8253V22.6584H135.362V20.7939H135.969C136.297 20.7939 136.521 20.7182 136.641 20.5669C136.761 20.4048 136.821 20.1778 136.821 19.886V18.4916H139.001V20.7939H140.706V22.6584H139.001V27.4414H140.575V29.3059H139.133Z" fill="#1D1D1B"/>
<path d="M147.768 29.3059C147.331 29.3059 146.965 29.1708 146.67 28.9006C146.386 28.6304 146.206 28.2683 146.129 27.8143H146.031C145.9 28.3655 145.61 28.7871 145.162 29.0789C144.714 29.36 144.162 29.5005 143.506 29.5005C142.643 29.5005 141.982 29.2735 141.523 28.8195C141.064 28.3655 140.834 27.7656 140.834 27.0198C140.834 26.1227 141.162 25.4579 141.818 25.0256C142.484 24.5824 143.386 24.3608 144.523 24.3608H145.883V23.8258C145.883 23.4151 145.774 23.0908 145.555 22.853C145.337 22.6044 144.971 22.4801 144.457 22.4801C143.976 22.4801 143.594 22.5828 143.31 22.7881C143.025 22.9935 142.79 23.2259 142.605 23.4853L141.162 22.2207C141.512 21.7127 141.949 21.3181 142.474 21.0371C143.009 20.7453 143.73 20.5993 144.637 20.5993C145.861 20.5993 146.779 20.8642 147.391 21.3938C148.003 21.9234 148.309 22.6963 148.309 23.7123V27.4414H149.113V29.3059H147.768ZM144.408 27.8305C144.812 27.8305 145.157 27.744 145.441 27.5711C145.736 27.3981 145.883 27.1171 145.883 26.728V25.7228H144.703C143.752 25.7228 143.277 26.0416 143.277 26.6793V26.9225C143.277 27.236 143.375 27.4684 143.572 27.6197C143.769 27.7602 144.047 27.8305 144.408 27.8305Z" fill="#1D1D1B"/>
<path d="M150.856 29.5005C150.506 29.5005 150.249 29.414 150.085 29.2411C149.932 29.0681 149.856 28.8411 149.856 28.5601V28.3493C149.856 28.0683 149.932 27.8413 150.085 27.6684C150.249 27.4954 150.506 27.409 150.856 27.409C151.205 27.409 151.457 27.4954 151.61 27.6684C151.774 27.8413 151.856 28.0683 151.856 28.3493V28.5601C151.856 28.8411 151.774 29.0681 151.61 29.2411C151.457 29.414 151.205 29.5005 150.856 29.5005Z" fill="#1D1D1B"/>
<path d="M159.73 29.3059C159.238 29.3059 158.883 29.1762 158.664 28.9168C158.457 28.6574 158.326 28.3331 158.271 27.944H158.189C158.003 28.4628 157.697 28.8519 157.271 29.1114C156.845 29.3708 156.337 29.5005 155.746 29.5005C154.85 29.5005 154.151 29.2735 153.648 28.8195C153.156 28.3655 152.911 27.7494 152.911 26.9712C152.911 26.1821 153.2 25.5768 153.779 25.1553C154.369 24.7337 155.282 24.523 156.517 24.523H158.189V23.6961C158.189 23.1016 158.025 22.6476 157.697 22.3342C157.369 22.0207 156.867 21.864 156.189 21.864C155.675 21.864 155.244 21.9775 154.894 22.2045C154.555 22.4315 154.271 22.7341 154.042 23.1124L153.255 22.3828C153.484 21.9288 153.85 21.5451 154.353 21.2317C154.856 20.9074 155.49 20.7453 156.255 20.7453C157.282 20.7453 158.08 20.9939 158.648 21.4911C159.216 21.9883 159.5 22.6801 159.5 23.5664V28.171H160.468V29.3059H159.73ZM155.96 28.398C156.287 28.398 156.588 28.3601 156.861 28.2845C157.134 28.2088 157.369 28.1007 157.566 27.9602C157.763 27.8197 157.916 27.6576 158.025 27.4738C158.134 27.2901 158.189 27.0901 158.189 26.8739V25.4958H156.451C155.697 25.4958 155.145 25.6039 154.796 25.82C154.457 26.0362 154.288 26.3497 154.288 26.7604V27.1009C154.288 27.5116 154.435 27.8305 154.73 28.0575C155.036 28.2845 155.446 28.398 155.96 28.398Z" fill="#1D1D1B"/>
<path d="M161.356 29.3059V20.9398H162.667V22.4801H162.749C162.902 22.0802 163.175 21.7235 163.569 21.41C163.962 21.0965 164.503 20.9398 165.192 20.9398H165.7V22.2369H164.929C164.219 22.2369 163.662 22.372 163.257 22.6422C162.864 22.9016 162.667 23.2313 162.667 23.6312V29.3059H161.356Z" fill="#1D1D1B"/>
</svg>
