<svg width="262" height="52" viewBox="0 0 262 52" fill="none" xmlns="http://www.w3.org/2000/svg">
<rect width="262" height="52" rx="20" fill="#F5F5F5"/>
<path d="M53.312 24V12.832H58.336C58.848 12.832 59.3067 12.9173 59.712 13.088C60.128 13.248 60.48 13.4827 60.768 13.792C61.056 14.0907 61.2747 14.4533 61.424 14.88C61.5733 15.3067 61.648 15.776 61.648 16.288C61.648 16.8107 61.5733 17.2853 61.424 17.712C61.2747 18.128 61.056 18.4907 60.768 18.8C60.48 19.0987 60.128 19.3333 59.712 19.504C59.3067 19.664 58.848 19.744 58.336 19.744H55.424V24H53.312ZM55.424 17.92H58.144C58.5493 17.92 58.8693 17.8133 59.104 17.6C59.3387 17.376 59.456 17.0613 59.456 16.656V15.92C59.456 15.5147 59.3387 15.2053 59.104 14.992C58.8693 14.7787 58.5493 14.672 58.144 14.672H55.424V17.92ZM63.2778 24V15.648H65.3258V17.376H65.4058C65.4591 17.152 65.5391 16.9387 65.6458 16.736C65.7631 16.5227 65.9124 16.336 66.0938 16.176C66.2751 16.016 66.4884 15.888 66.7338 15.792C66.9898 15.696 67.2831 15.648 67.6138 15.648H68.0618V17.584H67.4218C66.7284 17.584 66.2058 17.6853 65.8538 17.888C65.5018 18.0907 65.3258 18.4213 65.3258 18.88V24H63.2778ZM72.7929 24.192C72.1955 24.192 71.6569 24.0907 71.1769 23.888C70.7075 23.6853 70.3022 23.392 69.9609 23.008C69.6302 22.624 69.3742 22.1653 69.1929 21.632C69.0115 21.088 68.9209 20.48 68.9209 19.808C68.9209 19.136 69.0115 18.5333 69.1929 18C69.3742 17.4667 69.6302 17.0133 69.9609 16.64C70.3022 16.256 70.7075 15.9627 71.1769 15.76C71.6569 15.5573 72.1955 15.456 72.7929 15.456C73.3902 15.456 73.9289 15.5573 74.4089 15.76C74.8889 15.9627 75.2942 16.256 75.6249 16.64C75.9662 17.0133 76.2275 17.4667 76.4089 18C76.5902 18.5333 76.6809 19.136 76.6809 19.808C76.6809 20.48 76.5902 21.088 76.4089 21.632C76.2275 22.1653 75.9662 22.624 75.6249 23.008C75.2942 23.392 74.8889 23.6853 74.4089 23.888C73.9289 24.0907 73.3902 24.192 72.7929 24.192ZM72.7929 22.544C73.3369 22.544 73.7635 22.3787 74.0729 22.048C74.3822 21.7173 74.5369 21.232 74.5369 20.592V19.04C74.5369 18.4107 74.3822 17.9307 74.0729 17.6C73.7635 17.2693 73.3369 17.104 72.7929 17.104C72.2595 17.104 71.8382 17.2693 71.5289 17.6C71.2195 17.9307 71.0649 18.4107 71.0649 19.04V20.592C71.0649 21.232 71.2195 21.7173 71.5289 22.048C71.8382 22.3787 72.2595 22.544 72.7929 22.544ZM83.6805 22.608H83.6005C83.4512 23.088 83.1685 23.472 82.7525 23.76C82.3365 24.048 81.8512 24.192 81.2965 24.192C80.2405 24.192 79.4298 23.8133 78.8645 23.056C78.3098 22.2987 78.0325 21.216 78.0325 19.808C78.0325 18.4107 78.3098 17.3387 78.8645 16.592C79.4298 15.8347 80.2405 15.456 81.2965 15.456C81.8512 15.456 82.3365 15.6 82.7525 15.888C83.1685 16.1653 83.4512 16.544 83.6005 17.024H83.6805V12.16H85.7285V24H83.6805V22.608ZM81.9525 22.496C82.4432 22.496 82.8538 22.3787 83.1845 22.144C83.5152 21.9093 83.6805 21.5733 83.6805 21.136V18.48C83.6805 18.0747 83.5152 17.7493 83.1845 17.504C82.8538 17.2587 82.4432 17.136 81.9525 17.136C81.4192 17.136 80.9872 17.3173 80.6565 17.68C80.3365 18.032 80.1765 18.5067 80.1765 19.104V20.544C80.1765 21.1413 80.3365 21.616 80.6565 21.968C80.9872 22.32 81.4192 22.496 81.9525 22.496ZM93.0823 22.608H93.0023C92.9276 22.8213 92.8263 23.024 92.6983 23.216C92.5809 23.3973 92.4263 23.5627 92.2343 23.712C92.0529 23.8613 91.8289 23.9787 91.5623 24.064C91.3063 24.1493 91.0076 24.192 90.6663 24.192C89.8023 24.192 89.1409 23.9093 88.6823 23.344C88.2236 22.7787 87.9943 21.9733 87.9943 20.928V15.648H90.0423V20.72C90.0423 21.296 90.1543 21.7387 90.3783 22.048C90.6023 22.3467 90.9596 22.496 91.4503 22.496C91.6529 22.496 91.8503 22.4693 92.0423 22.416C92.2449 22.3627 92.4209 22.2827 92.5703 22.176C92.7196 22.0587 92.8423 21.92 92.9383 21.76C93.0343 21.5893 93.0823 21.392 93.0823 21.168V15.648H95.1302V24H93.0823V22.608ZM100.793 24.192C100.174 24.192 99.6245 24.0907 99.1445 23.888C98.6645 23.6853 98.2592 23.392 97.9285 23.008C97.6085 22.624 97.3632 22.1653 97.1925 21.632C97.0218 21.088 96.9365 20.48 96.9365 19.808C96.9365 19.136 97.0218 18.5333 97.1925 18C97.3632 17.4667 97.6085 17.0133 97.9285 16.64C98.2592 16.256 98.6645 15.9627 99.1445 15.76C99.6245 15.5573 100.174 15.456 100.793 15.456C101.635 15.456 102.329 15.6427 102.873 16.016C103.427 16.3893 103.827 16.9067 104.073 17.568L102.393 18.32C102.297 17.968 102.115 17.68 101.849 17.456C101.593 17.2213 101.241 17.104 100.793 17.104C100.217 17.104 99.7845 17.2853 99.4965 17.648C99.2192 18.0107 99.0805 18.4853 99.0805 19.072V20.592C99.0805 21.1787 99.2192 21.6533 99.4965 22.016C99.7845 22.368 100.217 22.544 100.793 22.544C101.283 22.544 101.662 22.4213 101.929 22.176C102.195 21.92 102.403 21.6053 102.553 21.232L104.121 21.984C103.843 22.72 103.422 23.2747 102.857 23.648C102.291 24.0107 101.603 24.192 100.793 24.192ZM108.308 24C107.604 24 107.065 23.8187 106.692 23.456C106.329 23.0827 106.148 22.5547 106.148 21.872V17.28H104.916V15.648H105.556C105.865 15.648 106.073 15.5787 106.18 15.44C106.297 15.2907 106.356 15.072 106.356 14.784V13.36H108.196V15.648H109.908V17.28H108.196V22.368H109.78V24H108.308ZM114.934 24.192C114.336 24.192 113.798 24.0907 113.318 23.888C112.848 23.6853 112.443 23.392 112.102 23.008C111.771 22.624 111.515 22.1653 111.334 21.632C111.152 21.088 111.062 20.48 111.062 19.808C111.062 19.136 111.152 18.5333 111.334 18C111.515 17.4667 111.771 17.0133 112.102 16.64C112.443 16.256 112.848 15.9627 113.318 15.76C113.798 15.5573 114.336 15.456 114.934 15.456C115.531 15.456 116.07 15.5573 116.55 15.76C117.03 15.9627 117.435 16.256 117.766 16.64C118.107 17.0133 118.368 17.4667 118.55 18C118.731 18.5333 118.822 19.136 118.822 19.808C118.822 20.48 118.731 21.088 118.55 21.632C118.368 22.1653 118.107 22.624 117.766 23.008C117.435 23.392 117.03 23.6853 116.55 23.888C116.07 24.0907 115.531 24.192 114.934 24.192ZM114.934 22.544C115.478 22.544 115.904 22.3787 116.214 22.048C116.523 21.7173 116.678 21.232 116.678 20.592V19.04C116.678 18.4107 116.523 17.9307 116.214 17.6C115.904 17.2693 115.478 17.104 114.934 17.104C114.4 17.104 113.979 17.2693 113.67 17.6C113.36 17.9307 113.206 18.4107 113.206 19.04V20.592C113.206 21.232 113.36 21.7173 113.67 22.048C113.979 22.3787 114.4 22.544 114.934 22.544Z" fill="#232323"/>
<path d="M53.302 30.228H56.578C57.1847 30.228 57.7353 30.3307 58.23 30.536C58.7247 30.7413 59.1447 31.0493 59.49 31.46C59.8447 31.8613 60.1153 32.37 60.302 32.986C60.4887 33.5927 60.582 34.302 60.582 35.114C60.582 35.926 60.4887 36.64 60.302 37.256C60.1153 37.8627 59.8447 38.3713 59.49 38.782C59.1447 39.1833 58.7247 39.4867 58.23 39.692C57.7353 39.8973 57.1847 40 56.578 40H53.302V30.228ZM56.578 38.964C56.9793 38.964 57.348 38.8987 57.684 38.768C58.02 38.628 58.3093 38.4273 58.552 38.166C58.7947 37.9047 58.9813 37.5873 59.112 37.214C59.252 36.8313 59.322 36.3973 59.322 35.912V34.316C59.322 33.8307 59.252 33.4013 59.112 33.028C58.9813 32.6453 58.7947 32.3233 58.552 32.062C58.3093 31.8007 58.02 31.6047 57.684 31.474C57.348 31.334 56.9793 31.264 56.578 31.264H54.478V38.964H56.578ZM65.2986 40.168C64.8039 40.168 64.3559 40.0793 63.9546 39.902C63.5626 39.7247 63.2219 39.4727 62.9326 39.146C62.6526 38.81 62.4332 38.4133 62.2746 37.956C62.1252 37.4893 62.0506 36.9667 62.0506 36.388C62.0506 35.8187 62.1252 35.3007 62.2746 34.834C62.4332 34.3673 62.6526 33.9707 62.9326 33.644C63.2219 33.308 63.5626 33.0513 63.9546 32.874C64.3559 32.6967 64.8039 32.608 65.2986 32.608C65.7839 32.608 66.2179 32.6967 66.6006 32.874C66.9832 33.0513 67.3099 33.2987 67.5806 33.616C67.8512 33.924 68.0566 34.2927 68.1966 34.722C68.3459 35.1513 68.4206 35.6227 68.4206 36.136V36.668H63.2266V37.004C63.2266 37.312 63.2732 37.6013 63.3666 37.872C63.4692 38.1333 63.6092 38.362 63.7866 38.558C63.9732 38.754 64.1972 38.908 64.4586 39.02C64.7292 39.132 65.0326 39.188 65.3686 39.188C65.8259 39.188 66.2226 39.0807 66.5586 38.866C66.9039 38.6513 67.1699 38.3433 67.3566 37.942L68.1546 38.516C67.9212 39.0107 67.5572 39.412 67.0626 39.72C66.5679 40.0187 65.9799 40.168 65.2986 40.168ZM65.2986 33.546C64.9906 33.546 64.7106 33.602 64.4586 33.714C64.2066 33.8167 63.9872 33.966 63.8006 34.162C63.6232 34.358 63.4832 34.5913 63.3806 34.862C63.2779 35.1233 63.2266 35.4127 63.2266 35.73V35.828H67.2166V35.674C67.2166 35.03 67.0392 34.5167 66.6846 34.134C66.3392 33.742 65.8772 33.546 65.2986 33.546ZM72.4362 40.168C71.7642 40.168 71.1995 40.042 70.7422 39.79C70.2942 39.5287 69.9068 39.1833 69.5802 38.754L70.3782 38.11C70.6582 38.4647 70.9708 38.74 71.3162 38.936C71.6615 39.1227 72.0628 39.216 72.5202 39.216C72.9962 39.216 73.3648 39.1133 73.6262 38.908C73.8968 38.7027 74.0322 38.4133 74.0322 38.04C74.0322 37.76 73.9388 37.522 73.7522 37.326C73.5748 37.1207 73.2482 36.9807 72.7722 36.906L72.1982 36.822C71.8622 36.7753 71.5542 36.7053 71.2742 36.612C70.9942 36.5093 70.7468 36.3787 70.5322 36.22C70.3268 36.052 70.1635 35.8467 70.0422 35.604C69.9302 35.3613 69.8742 35.072 69.8742 34.736C69.8742 34.3813 69.9395 34.0733 70.0702 33.812C70.2008 33.5413 70.3782 33.3173 70.6022 33.14C70.8355 32.9627 71.1108 32.832 71.4282 32.748C71.7455 32.6547 72.0862 32.608 72.4502 32.608C73.0382 32.608 73.5282 32.7107 73.9202 32.916C74.3215 33.1213 74.6715 33.406 74.9702 33.77L74.2282 34.442C74.0695 34.218 73.8362 34.0173 73.5282 33.84C73.2202 33.6533 72.8328 33.56 72.3662 33.56C71.8995 33.56 71.5448 33.6627 71.3022 33.868C71.0688 34.064 70.9522 34.3347 70.9522 34.68C70.9522 35.0347 71.0688 35.2913 71.3022 35.45C71.5448 35.6087 71.8902 35.7253 72.3382 35.8L72.8982 35.884C73.7008 36.0053 74.2702 36.2387 74.6062 36.584C74.9422 36.92 75.1102 37.3633 75.1102 37.914C75.1102 38.614 74.8722 39.1647 74.3962 39.566C73.9202 39.9673 73.2668 40.168 72.4362 40.168ZM79.7764 40.168C79.2724 40.168 78.8198 40.0793 78.4184 39.902C78.0171 39.7247 77.6764 39.4727 77.3964 39.146C77.1258 38.8193 76.9158 38.4227 76.7664 37.956C76.6264 37.4893 76.5564 36.9667 76.5564 36.388C76.5564 35.8093 76.6264 35.2867 76.7664 34.82C76.9158 34.3533 77.1258 33.9567 77.3964 33.63C77.6764 33.3033 78.0171 33.0513 78.4184 32.874C78.8198 32.6967 79.2724 32.608 79.7764 32.608C80.4951 32.608 81.0691 32.7667 81.4984 33.084C81.9371 33.392 82.2638 33.798 82.4784 34.302L81.5404 34.778C81.4098 34.4047 81.1951 34.1153 80.8964 33.91C80.5978 33.7047 80.2244 33.602 79.7764 33.602C79.4404 33.602 79.1464 33.658 78.8944 33.77C78.6424 33.8727 78.4324 34.022 78.2644 34.218C78.0964 34.4047 77.9704 34.6333 77.8864 34.904C77.8024 35.1653 77.7604 35.4547 77.7604 35.772V37.004C77.7604 37.6387 77.9284 38.1613 78.2644 38.572C78.6098 38.9733 79.1138 39.174 79.7764 39.174C80.6818 39.174 81.3351 38.754 81.7364 37.914L82.5484 38.46C82.3151 38.9827 81.9651 39.398 81.4984 39.706C81.0411 40.014 80.4671 40.168 79.7764 40.168ZM84.1295 40V32.776H85.2495V34.106H85.3195C85.4501 33.7607 85.6835 33.4527 86.0195 33.182C86.3555 32.9113 86.8175 32.776 87.4055 32.776H87.8395V33.896H87.1815C86.5748 33.896 86.0988 34.0127 85.7535 34.246C85.4175 34.47 85.2495 34.7547 85.2495 35.1V40H84.1295ZM89.8301 31.082C89.5874 31.082 89.4101 31.026 89.2981 30.914C89.1954 30.7927 89.1441 30.6387 89.1441 30.452V30.27C89.1441 30.0833 89.1954 29.934 89.2981 29.822C89.4101 29.7007 89.5874 29.64 89.8301 29.64C90.0727 29.64 90.2454 29.7007 90.3481 29.822C90.4601 29.934 90.5161 30.0833 90.5161 30.27V30.452C90.5161 30.6387 90.4601 30.7927 90.3481 30.914C90.2454 31.026 90.0727 31.082 89.8301 31.082ZM89.2701 32.776H90.3901V40H89.2701V32.776ZM92.7701 32.776H93.8901V33.952H93.9461C94.1327 33.4947 94.4034 33.1587 94.7581 32.944C95.1221 32.72 95.5561 32.608 96.0601 32.608C96.5081 32.608 96.9141 32.6967 97.2781 32.874C97.6421 33.0513 97.9501 33.3033 98.2021 33.63C98.4634 33.9567 98.6594 34.3533 98.7901 34.82C98.9301 35.2867 99.0001 35.8093 99.0001 36.388C99.0001 36.9667 98.9301 37.4893 98.7901 37.956C98.6594 38.4227 98.4634 38.8193 98.2021 39.146C97.9501 39.4727 97.6421 39.7247 97.2781 39.902C96.9141 40.0793 96.5081 40.168 96.0601 40.168C95.0801 40.168 94.3754 39.72 93.9461 38.824H93.8901V42.8H92.7701V32.776ZM95.7521 39.16C96.3867 39.16 96.8861 38.964 97.2501 38.572C97.6141 38.1707 97.7961 37.648 97.7961 37.004V35.772C97.7961 35.128 97.6141 34.61 97.2501 34.218C96.8861 33.8167 96.3867 33.616 95.7521 33.616C95.5001 33.616 95.2574 33.6533 95.0241 33.728C94.8001 33.7933 94.6041 33.8867 94.4361 34.008C94.2681 34.1293 94.1327 34.2787 94.0301 34.456C93.9367 34.624 93.8901 34.806 93.8901 35.002V37.69C93.8901 37.9233 93.9367 38.1333 94.0301 38.32C94.1327 38.4973 94.2681 38.6513 94.4361 38.782C94.6041 38.9033 94.8001 38.9967 95.0241 39.062C95.2574 39.1273 95.5001 39.16 95.7521 39.16ZM103.579 40.168C103.075 40.168 102.623 40.0793 102.221 39.902C101.82 39.7247 101.479 39.4727 101.199 39.146C100.929 38.8193 100.719 38.4227 100.569 37.956C100.429 37.4893 100.359 36.9667 100.359 36.388C100.359 35.8093 100.429 35.2867 100.569 34.82C100.719 34.3533 100.929 33.9567 101.199 33.63C101.479 33.3033 101.82 33.0513 102.221 32.874C102.623 32.6967 103.075 32.608 103.579 32.608C104.298 32.608 104.872 32.7667 105.301 33.084C105.74 33.392 106.067 33.798 106.281 34.302L105.343 34.778C105.213 34.4047 104.998 34.1153 104.699 33.91C104.401 33.7047 104.027 33.602 103.579 33.602C103.243 33.602 102.949 33.658 102.697 33.77C102.445 33.8727 102.235 34.022 102.067 34.218C101.899 34.4047 101.773 34.6333 101.689 34.904C101.605 35.1653 101.563 35.4547 101.563 35.772V37.004C101.563 37.6387 101.731 38.1613 102.067 38.572C102.413 38.9733 102.917 39.174 103.579 39.174C104.485 39.174 105.138 38.754 105.539 37.914L106.351 38.46C106.118 38.9827 105.768 39.398 105.301 39.706C104.844 40.014 104.27 40.168 103.579 40.168ZM108.492 31.082C108.25 31.082 108.072 31.026 107.96 30.914C107.858 30.7927 107.806 30.6387 107.806 30.452V30.27C107.806 30.0833 107.858 29.934 107.96 29.822C108.072 29.7007 108.25 29.64 108.492 29.64C108.735 29.64 108.908 29.7007 109.01 29.822C109.122 29.934 109.178 30.0833 109.178 30.27V30.452C109.178 30.6387 109.122 30.7927 109.01 30.914C108.908 31.026 108.735 31.082 108.492 31.082ZM107.932 32.776H109.052V40H107.932V32.776ZM114.162 40.168C113.677 40.168 113.234 40.0793 112.832 39.902C112.431 39.7247 112.086 39.4727 111.796 39.146C111.516 38.81 111.297 38.4133 111.138 37.956C110.98 37.4893 110.9 36.9667 110.9 36.388C110.9 35.8187 110.98 35.3007 111.138 34.834C111.297 34.3673 111.516 33.9707 111.796 33.644C112.086 33.308 112.431 33.0513 112.832 32.874C113.234 32.6967 113.677 32.608 114.162 32.608C114.648 32.608 115.086 32.6967 115.478 32.874C115.88 33.0513 116.225 33.308 116.514 33.644C116.804 33.9707 117.028 34.3673 117.186 34.834C117.345 35.3007 117.424 35.8187 117.424 36.388C117.424 36.9667 117.345 37.4893 117.186 37.956C117.028 38.4133 116.804 38.81 116.514 39.146C116.225 39.4727 115.88 39.7247 115.478 39.902C115.086 40.0793 114.648 40.168 114.162 40.168ZM114.162 39.174C114.769 39.174 115.264 38.9873 115.646 38.614C116.029 38.2407 116.22 37.6713 116.22 36.906V35.87C116.22 35.1047 116.029 34.5353 115.646 34.162C115.264 33.7887 114.769 33.602 114.162 33.602C113.556 33.602 113.061 33.7887 112.678 34.162C112.296 34.5353 112.104 35.1047 112.104 35.87V36.906C112.104 37.6713 112.296 38.2407 112.678 38.614C113.061 38.9873 113.556 39.174 114.162 39.174ZM114.274 31.81L113.546 31.474L114.736 29.094L115.758 29.584L114.274 31.81ZM119.266 40V32.776H120.386V33.952H120.442C120.62 33.5413 120.867 33.2147 121.184 32.972C121.511 32.7293 121.945 32.608 122.486 32.608C123.233 32.608 123.821 32.8507 124.25 33.336C124.689 33.812 124.908 34.4887 124.908 35.366V40H123.788V35.562C123.788 34.2647 123.242 33.616 122.15 33.616C121.926 33.616 121.707 33.644 121.492 33.7C121.287 33.756 121.1 33.84 120.932 33.952C120.764 34.064 120.629 34.2087 120.526 34.386C120.433 34.554 120.386 34.7547 120.386 34.988V40H119.266Z" fill="#8D8D8D"/>
<path d="M23.7891 43H38.3469L33.9126 11.4316H27.5959L23.7891 43Z" fill="#E8E8E8"/>
<path d="M28.8516 9.76895C28.8516 8.76394 29.6663 7.94922 30.6713 7.94922C31.6763 7.94922 32.491 8.76394 32.491 9.76895V11.4304H28.8516V9.76895Z" fill="#E8E8E8"/>
<path d="M23 42.0508H37.637L33.1786 10.4824H26.8275L23 42.0508Z" stroke="#232323" stroke-width="0.7" stroke-linecap="round" stroke-linejoin="round"/>
<path d="M28.5727 8.81973C28.5727 8.00802 29.2307 7.35 30.0424 7.35C30.8541 7.35 31.5121 8.00802 31.5121 8.81973V10.1312H28.5727V8.81973Z" stroke="#232323" stroke-width="0.7" stroke-linecap="round" stroke-linejoin="round"/>
<path d="M25.5312 39.8359H34.6299" stroke="#232323" stroke-width="0.7" stroke-linecap="round" stroke-linejoin="round"/>
<path d="M193.126 27.8858C192.721 28.2604 192.695 28.893 193.07 29.2988C193.444 29.7047 194.077 29.73 194.483 29.3554L193.126 27.8858ZM204.632 19.9868L205.367 19.3085L204.011 17.8389L203.276 18.5171L204.632 19.9868ZM194.483 29.3554L204.632 19.9868L203.276 18.5171L193.126 27.8858L194.483 29.3554Z" fill="#232323"/>
<path d="M190.684 34.8652H207.859" stroke="#232323" stroke-width="2" stroke-linecap="round" stroke-linejoin="round"/>
<path d="M228.152 33.8379L242.077 19.9134" stroke="#232323" stroke-width="2" stroke-linecap="round" stroke-linejoin="round"/>
<path d="M228.152 19.9199L242.079 33.8427" stroke="#232323" stroke-width="2" stroke-linecap="round" stroke-linejoin="round"/>
</svg>
