<svg width="115" height="138" viewBox="0 0 115 138" fill="none" xmlns="http://www.w3.org/2000/svg">
<rect x="0.414062" width="114.586" height="137.111" rx="20" fill="#F5F5F5"/>
<path d="M22.0791 126.438V113.873H27.4791C28.6431 113.873 29.5431 114.215 30.1791 114.899C30.8151 115.583 31.1331 116.501 31.1331 117.653C31.1331 118.805 30.8151 119.723 30.1791 120.407C29.5431 121.091 28.6431 121.433 27.4791 121.433H24.1131V126.438H22.0791ZM24.1131 119.651H27.3531C27.8691 119.651 28.2711 119.519 28.5591 119.255C28.8471 118.979 28.9911 118.589 28.9911 118.085V117.221C28.9911 116.717 28.8471 116.333 28.5591 116.069C28.2711 115.793 27.8691 115.655 27.3531 115.655H24.1131V119.651ZM33.0445 126.438V117.077H35.0065V118.877H35.0965C35.2285 118.397 35.5045 117.977 35.9245 117.617C36.3445 117.257 36.9265 117.077 37.6705 117.077H38.1925V118.967H37.4185C36.6385 118.967 36.0385 119.093 35.6185 119.345C35.2105 119.597 35.0065 119.969 35.0065 120.461V126.438H33.0445ZM43.5192 126.654C42.8712 126.654 42.2772 126.539 41.7372 126.311C41.2092 126.083 40.7592 125.759 40.3872 125.339C40.0152 124.907 39.7272 124.391 39.5232 123.792C39.3192 123.179 39.2172 122.501 39.2172 121.757C39.2172 121.013 39.3192 120.341 39.5232 119.741C39.7272 119.129 40.0152 118.613 40.3872 118.193C40.7592 117.761 41.2092 117.431 41.7372 117.203C42.2772 116.975 42.8712 116.861 43.5192 116.861C44.1672 116.861 44.7552 116.975 45.2832 117.203C45.8232 117.431 46.2792 117.761 46.6512 118.193C47.0232 118.613 47.3112 119.129 47.5152 119.741C47.7192 120.341 47.8212 121.013 47.8212 121.757C47.8212 122.501 47.7192 123.179 47.5152 123.792C47.3112 124.391 47.0232 124.907 46.6512 125.339C46.2792 125.759 45.8232 126.083 45.2832 126.311C44.7552 126.539 44.1672 126.654 43.5192 126.654ZM43.5192 125.033C44.1912 125.033 44.7312 124.829 45.1392 124.421C45.5472 124.001 45.7512 123.377 45.7512 122.549V120.965C45.7512 120.137 45.5472 119.519 45.1392 119.111C44.7312 118.691 44.1912 118.481 43.5192 118.481C42.8472 118.481 42.3072 118.691 41.8992 119.111C41.4912 119.519 41.2872 120.137 41.2872 120.965V122.549C41.2872 123.377 41.4912 124.001 41.8992 124.421C42.3072 124.829 42.8472 125.033 43.5192 125.033ZM55.8934 124.889H55.8034C55.5994 125.441 55.2634 125.873 54.7954 126.185C54.3394 126.497 53.7994 126.654 53.1754 126.654C51.9874 126.654 51.0694 126.227 50.4214 125.375C49.7734 124.511 49.4494 123.305 49.4494 121.757C49.4494 120.209 49.7734 119.009 50.4214 118.157C51.0694 117.293 51.9874 116.861 53.1754 116.861C53.7994 116.861 54.3394 117.017 54.7954 117.329C55.2634 117.629 55.5994 118.061 55.8034 118.625H55.8934V113.117H57.8554V126.438H55.8934V124.889ZM53.7694 124.961C54.3694 124.961 54.8734 124.817 55.2814 124.529C55.6894 124.229 55.8934 123.839 55.8934 123.359V120.155C55.8934 119.675 55.6894 119.291 55.2814 119.003C54.8734 118.703 54.3694 118.553 53.7694 118.553C53.0854 118.553 52.5394 118.775 52.1314 119.219C51.7234 119.651 51.5194 120.227 51.5194 120.947V122.567C51.5194 123.287 51.7234 123.869 52.1314 124.313C52.5394 124.745 53.0854 124.961 53.7694 124.961ZM66.3297 124.889H66.2577C66.1737 125.117 66.0597 125.339 65.9157 125.555C65.7837 125.771 65.6097 125.963 65.3937 126.131C65.1897 126.287 64.9377 126.413 64.6377 126.51C64.3497 126.606 64.0137 126.654 63.6297 126.654C62.6577 126.654 61.9017 126.341 61.3617 125.717C60.8337 125.093 60.5697 124.199 60.5697 123.035V117.077H62.5317V122.783C62.5317 124.235 63.1317 124.961 64.3317 124.961C64.5837 124.961 64.8297 124.931 65.0697 124.871C65.3097 124.799 65.5197 124.697 65.6997 124.565C65.8917 124.433 66.0417 124.265 66.1497 124.062C66.2697 123.857 66.3297 123.617 66.3297 123.341V117.077H68.2917V126.438H66.3297V124.889ZM74.7191 126.654C74.0471 126.654 73.4471 126.539 72.9191 126.311C72.3911 126.083 71.9471 125.759 71.5871 125.339C71.2271 124.907 70.9511 124.391 70.7591 123.792C70.5671 123.179 70.4711 122.501 70.4711 121.757C70.4711 121.013 70.5671 120.341 70.7591 119.741C70.9511 119.129 71.2271 118.613 71.5871 118.193C71.9471 117.761 72.3911 117.431 72.9191 117.203C73.4471 116.975 74.0471 116.861 74.7191 116.861C75.6551 116.861 76.4231 117.071 77.0231 117.491C77.6231 117.911 78.0611 118.469 78.3371 119.165L76.7171 119.921C76.5851 119.489 76.3511 119.147 76.0151 118.895C75.6911 118.631 75.2591 118.499 74.7191 118.499C73.9991 118.499 73.4531 118.727 73.0811 119.183C72.7211 119.627 72.5411 120.209 72.5411 120.929V122.603C72.5411 123.323 72.7211 123.911 73.0811 124.367C73.4531 124.811 73.9991 125.033 74.7191 125.033C75.2951 125.033 75.7511 124.895 76.0871 124.619C76.4351 124.331 76.7111 123.953 76.9151 123.485L78.4091 124.277C78.0971 125.045 77.6291 125.633 77.0051 126.041C76.3811 126.449 75.6191 126.654 74.7191 126.654ZM82.8689 126.438C82.1849 126.438 81.6689 126.263 81.3209 125.915C80.9729 125.555 80.7989 125.051 80.7989 124.403V118.679H79.3409V117.077H80.1329C80.4569 117.077 80.6789 117.005 80.7989 116.861C80.9309 116.717 80.9969 116.483 80.9969 116.159V114.521H82.7609V117.077H84.7229V118.679H82.7609V124.835H84.5789V126.438H82.8689ZM90.4528 126.654C89.8048 126.654 89.2108 126.539 88.6708 126.311C88.1428 126.083 87.6928 125.759 87.3208 125.339C86.9488 124.907 86.6608 124.391 86.4568 123.792C86.2528 123.179 86.1508 122.501 86.1508 121.757C86.1508 121.013 86.2528 120.341 86.4568 119.741C86.6608 119.129 86.9488 118.613 87.3208 118.193C87.6928 117.761 88.1428 117.431 88.6708 117.203C89.2108 116.975 89.8048 116.861 90.4528 116.861C91.1008 116.861 91.6888 116.975 92.2168 117.203C92.7568 117.431 93.2128 117.761 93.5848 118.193C93.9568 118.613 94.2448 119.129 94.4488 119.741C94.6528 120.341 94.7548 121.013 94.7548 121.757C94.7548 122.501 94.6528 123.179 94.4488 123.792C94.2448 124.391 93.9568 124.907 93.5848 125.339C93.2128 125.759 92.7568 126.083 92.2168 126.311C91.6888 126.539 91.1008 126.654 90.4528 126.654ZM90.4528 125.033C91.1248 125.033 91.6648 124.829 92.0728 124.421C92.4808 124.001 92.6848 123.377 92.6848 122.549V120.965C92.6848 120.137 92.4808 119.519 92.0728 119.111C91.6648 118.691 91.1248 118.481 90.4528 118.481C89.7808 118.481 89.2408 118.691 88.8328 119.111C88.4248 119.519 88.2208 120.137 88.2208 120.965V122.549C88.2208 123.377 88.4248 124.001 88.8328 124.421C89.2408 124.829 89.7808 125.033 90.4528 125.033Z" fill="#232323"/>
<path d="M84.6887 37.8264H84.6627C85.0254 37.5607 85.1504 36.8642 85.6208 36.0027C86.2543 34.8408 87.0267 33.849 85.7336 33.7205C72.742 32.4283 72.7264 32.7375 59.6724 32.7375C46.6183 32.7375 46.6044 32.4335 33.6128 33.7205C32.3302 33.8473 33.3299 34.5889 33.5764 35.862C33.8229 37.1351 33.3178 37.6875 34.6005 37.8143L55.8417 37.8264H34.5206V88.0299H84.6818L84.6887 37.8264Z" fill="#E8E8E8"/>
<path d="M84.5572 88.0571L34.5175 88.0293C34.1356 88.2811 34.0159 88.9898 33.5368 89.8686C32.9033 91.0306 32.131 92.024 33.424 92.1526C46.4156 93.4448 46.4295 93.1339 59.4853 93.1339C72.541 93.1339 72.5532 93.4396 85.5448 92.1526C86.8274 92.0258 85.8277 91.2841 85.5812 90.011C85.3348 88.7379 85.8399 88.1856 84.5572 88.0571Z" fill="#E8E8E8"/>
<path d="M57.2509 83.9518C68.8536 83.9518 78.2595 74.5396 78.2595 62.929C78.2595 51.3185 68.8536 41.9062 57.2509 41.9062C45.6481 41.9062 36.2422 51.3185 36.2422 62.929C36.2422 74.5396 45.6481 83.9518 57.2509 83.9518Z" stroke="black" stroke-miterlimit="10"/>
<path d="M82.3322 37.8262H32.1641V88.0279H82.3322V37.8262Z" stroke="black" stroke-miterlimit="10"/>
<path d="M32.1642 88.0293C31.7841 88.2811 31.6643 88.9898 31.1853 89.8686C30.5518 91.0306 29.7794 92.024 31.0725 92.1526C44.0623 93.4448 44.0779 93.1339 57.132 93.1339C70.186 93.1339 70.2016 93.4396 83.1914 92.1526C84.4758 92.0258 83.4761 91.2841 83.2297 90.011C82.9832 88.7379 83.4883 88.1856 82.2056 88.0571" stroke="black" stroke-miterlimit="10"/>
<path d="M82.2864 37.8438C82.6665 37.5902 82.7863 36.8816 83.2653 36.0027C83.8988 34.8408 84.6712 33.849 83.3781 33.7205C70.3883 32.4283 70.3726 32.7375 57.3186 32.7375C44.2645 32.7375 44.2489 32.4335 31.2574 33.7205C29.9747 33.8473 30.9745 34.5889 31.2209 35.862C31.4674 37.1351 30.9623 37.6875 32.245 37.8143" stroke="black" stroke-miterlimit="10"/>
<path d="M92.7891 17.6289L104.067 17.6289" stroke="#232323" stroke-width="2" stroke-linecap="round" stroke-linejoin="round"/>
<path d="M98.4297 11.9902V23.2678" stroke="#232323" stroke-width="2" stroke-linecap="round" stroke-linejoin="round"/>
<path d="M12.4155 17.4581C12.0096 17.8327 11.9843 18.4653 12.3589 18.8712C12.7336 19.277 13.3662 19.3023 13.772 18.9277L12.4155 17.4581ZM20.4916 12.725L21.2264 12.0468L19.8698 10.5772L19.135 11.2554L20.4916 12.725ZM13.772 18.9277L20.4916 12.725L19.135 11.2554L12.4155 17.4581L13.772 18.9277Z" fill="#232323"/>
<path d="M11.0273 22.3281H22.3989" stroke="#232323" stroke-width="2" stroke-linecap="round" stroke-linejoin="round"/>
</svg>
