<svg width="244" height="91" viewBox="0 0 244 91" fill="none" xmlns="http://www.w3.org/2000/svg">
<g style="mix-blend-mode:multiply">
<path d="M243.404 33.8078C243.305 33.2829 243.13 32.7724 242.886 31.9572C242.613 31.021 241.887 28.897 239.818 25.8175C237.895 23.0052 235.598 20.4063 232.976 18.0764V16.5935H234.071V13.6446H234.027V11.39C234.027 11.0198 233.86 10.6647 233.564 10.403C233.268 10.1412 232.866 9.99414 232.448 9.99414H223.78C223.361 9.99414 222.959 10.1412 222.663 10.403C222.367 10.6647 222.2 11.0198 222.2 11.39V13.7123V16.5886C222.586 16.5886 222.904 16.5886 223.342 16.5886V18.086C219.573 20.8561 216.54 24.3248 214.458 28.2463C213.509 30.0032 212.786 31.8484 212.301 33.7473L212.273 33.953V82.3351L212.906 85.3493C212.906 86.2219 213.298 87.0587 213.996 87.6757C214.694 88.2927 215.641 88.6393 216.628 88.6393H239.087C240.075 88.6393 241.021 88.2927 241.72 87.6757C242.418 87.0587 242.81 86.2219 242.81 85.3493L243.42 82.3351V33.953L243.404 33.8078Z" fill="#E4FFA9"/>
</g>
<path d="M221.923 13.6426H233.815V16.5866H232.72V18.0695C235.337 20.4002 237.63 22.999 239.549 25.8107C241.618 28.8902 242.335 31.0142 242.617 31.9504C242.863 32.7656 243.036 33.276 243.134 33.801L243.151 33.9389V82.321L242.54 85.3352C242.54 85.7673 242.444 86.1951 242.257 86.5943C242.07 86.9934 241.796 87.3561 241.45 87.6616C241.104 87.9671 240.694 88.2094 240.242 88.3748C239.791 88.5401 239.307 88.6252 238.818 88.6252H216.358C215.87 88.6252 215.386 88.5401 214.934 88.3748C214.482 88.2094 214.072 87.9671 213.726 87.6616C213.381 87.3561 213.107 86.9934 212.919 86.5943C212.732 86.1951 212.636 85.7673 212.636 85.3352L212.004 82.321V33.9389L212.031 33.7333C212.516 31.8343 213.239 29.9891 214.188 28.2322C216.271 24.3107 219.304 20.8421 223.072 18.072V16.5745C222.634 16.5745 222.317 16.5745 221.931 16.5745L221.923 13.6426Z" stroke="#232323" stroke-width="0.5" stroke-miterlimit="10" stroke-linecap="round" stroke-linejoin="round"/>
<path d="M223.504 9.92578H232.194C232.613 9.92578 233.014 10.0728 233.31 10.3346C233.607 10.5964 233.773 10.9514 233.773 11.3216V13.644H221.922V11.3216C221.922 11.1381 221.963 10.9564 222.042 10.7869C222.122 10.6174 222.238 10.4634 222.385 10.3338C222.532 10.2041 222.707 10.1014 222.899 10.0313C223.091 9.96134 223.296 9.92547 223.504 9.92578V9.92578Z" stroke="#232323" stroke-width="0.5" stroke-miterlimit="10" stroke-linecap="round" stroke-linejoin="round"/>
<path d="M219.575 48.9413L239.47 64.4235V78.3189C239.469 79.227 239.061 80.0976 238.334 80.7395C237.607 81.3814 236.622 81.7419 235.595 81.7419H219.663C218.637 81.7419 217.653 81.3827 216.927 80.7429C216.201 80.1031 215.791 79.235 215.787 78.3286L215.7 50.5234C215.692 50.1239 215.817 49.7311 216.057 49.3929C216.298 49.0547 216.645 48.7854 217.055 48.6179C217.465 48.4504 217.922 48.3917 218.369 48.4491C218.817 48.5065 219.235 48.6775 219.575 48.9413Z" stroke="#232323" stroke-width="0.5" stroke-miterlimit="10" stroke-linecap="round" stroke-linejoin="round"/>
<path d="M230.761 35.5782H226.798C226.74 35.5775 226.682 35.584 226.626 35.5975C225.678 35.8085 224.821 36.2611 224.162 36.899C222.794 38.2634 222.912 39.993 222.966 40.6946C223.09 42.3154 223.905 43.4475 224.422 44.1612C225.224 45.2715 226.114 45.961 227.707 47.1996C228.476 47.7971 229.16 48.2737 229.675 48.6196C229.757 48.6757 229.853 48.7143 229.955 48.7326C230.057 48.7508 230.163 48.7481 230.263 48.7248C230.364 48.7014 230.457 48.658 230.536 48.5978C230.615 48.5377 230.677 48.4623 230.718 48.3777C232.446 44.7298 233.014 40.7339 232.36 36.8216C232.304 36.4803 232.112 36.1677 231.819 35.9399C231.527 35.712 231.151 35.5838 230.761 35.5782V35.5782Z" stroke="#232323" stroke-width="0.5" stroke-miterlimit="10" stroke-linecap="round" stroke-linejoin="round"/>
<path d="M31.9077 31.3629C30.4539 28.3229 29.0001 23.7196 24.1542 19.8111C21.0731 17.3618 17.7625 15.2096 14.2674 13.3838V11.8204H14.2059C14.3456 11.8204 14.4796 11.7655 14.5784 11.6677C14.6771 11.57 14.7326 11.4375 14.7326 11.2993V9.56215C14.7326 9.42394 14.6771 9.29138 14.5784 9.19365C14.4796 9.09592 14.3456 9.04102 14.2059 9.04102H5.76058C5.62088 9.04102 5.4869 9.09592 5.38812 9.19365C5.28934 9.29138 5.23384 9.42394 5.23384 9.56215V11.2993C5.23384 11.4375 5.28934 11.57 5.38812 11.6677C5.4869 11.7655 5.62088 11.8204 5.76058 11.8204H5.83257V13.3838L4.67024 14.5129C3.89418 15.6142 2.12961 18.7688 1.27806 22.5905C0.210542 27.3675 -0.0791617 33.6211 0.0174065 36.8348L0.405434 41.1775V84.4959C0.405434 85.4173 0.775404 86.3009 1.43395 86.9525C2.0925 87.604 2.98568 87.9701 3.917 87.9701H29.8499C30.7813 87.9701 31.6745 87.604 32.333 86.9525C32.9916 86.3009 33.3615 85.4173 33.3615 84.4959V41.0907C33.3615 38.862 33.0701 33.7948 31.9077 31.3629ZM27.8185 38.6587C27.1408 40.0484 25.1848 39.5707 24.6212 39.3536C23.9417 39.093 23.5537 38.8324 20.1615 34.2291C17.045 30.001 15.3805 25.4567 14.9275 23.7196C14.8643 23.6049 14.773 23.1985 14.9275 22.5036C15.082 21.8088 15.2682 21.6229 15.4121 21.4614C15.8002 21.0271 17.0801 20.367 19.0993 21.5482C21.6188 23.0248 24.6247 26.7595 26.8528 31.1023C29.0809 35.4451 28.498 37.2691 27.8185 38.6587V38.6587Z" fill="#A9DBFF"/>
<path d="M31.7404 31.4362C30.3047 28.3974 28.8725 23.7959 24.0926 19.8889C21.054 17.44 17.7884 15.2886 14.3406 13.4641V11.9013H14.28C14.4178 11.9013 14.5499 11.8465 14.6474 11.7488C14.7448 11.6511 14.7995 11.5186 14.7995 11.3804V9.64398C14.7995 9.50582 14.7448 9.37331 14.6474 9.27562C14.5499 9.17793 14.4178 9.12305 14.28 9.12305H5.95155C5.81376 9.12305 5.68161 9.17793 5.58417 9.27562C5.48674 9.37331 5.432 9.50582 5.432 9.64398V11.3804C5.432 11.5186 5.48674 11.6511 5.58417 11.7488C5.68161 11.8465 5.81376 11.9013 5.95155 11.9013H6.02256V13.4641L4.87608 14.5928C4.11061 15.692 2.3701 18.8471 1.53016 22.6672C0.477202 27.4424 0.191449 33.6936 0.2867 36.906L0.669436 41.247V84.5485C0.669436 85.4695 1.03436 86.3529 1.68392 87.0041C2.33349 87.6554 3.21449 88.0213 4.13312 88.0213H29.7107C30.6293 88.0213 31.5103 87.6554 32.1599 87.0041C32.8094 86.3529 33.1744 85.4695 33.1744 84.5485V41.1602C33.1744 38.9254 32.8869 33.8672 31.7404 31.4362ZM27.7069 38.7292C27.0384 40.1184 25.1092 39.6408 24.5533 39.4238C23.883 39.1633 23.5003 38.9029 20.1544 34.3013C17.0804 30.0731 15.4386 25.5323 14.9918 23.7959C14.9294 23.6813 14.8394 23.275 14.9918 22.5804C15.1442 21.8858 15.3277 21.7 15.4697 21.5385C15.8525 21.1044 17.115 20.4446 19.1066 21.6254C21.5918 23.1013 24.5567 26.8347 26.7544 31.1757C28.9521 35.5168 28.3772 37.3401 27.7069 38.7292Z" stroke="#232323" stroke-width="0.5" stroke-miterlimit="10" stroke-linecap="round" stroke-linejoin="round"/>
<path d="M197.594 44.4838C197.891 44.1586 198.055 43.7336 198.054 43.2931V40.3371C198.054 39.8779 197.93 39.4271 197.697 39.0318C197.463 38.6364 197.128 38.3109 196.726 38.0891L190.45 34.5906C189.913 33.4643 189.375 32.1909 188.833 31.0232C188.656 30.6378 188.61 30.2054 188.7 29.7911C188.955 28.6599 189.079 27.5029 189.067 26.3432C188.996 23.1275 187.956 20.0082 186.086 17.3925V10.7449H187.004V5.55469H175.886V10.7449H177.03V17.3051C175.122 19.9077 174.052 23.0297 173.961 26.2559C173.945 27.4011 174.062 28.5443 174.31 29.6624C174.418 30.1302 174.35 30.6214 174.117 31.0416L172.146 34.5906L166.174 38.0799C165.785 38.3059 165.463 38.6298 165.239 39.0195C165.015 39.4091 164.897 39.8508 164.896 40.3003V43.3621C164.895 43.7618 165.031 44.1497 165.282 44.4608L166.601 46.102V77.9238L165.291 79.2064C165.147 79.3449 165.032 79.5111 164.953 79.6952C164.874 79.8792 164.833 80.0773 164.832 80.2776V84.7414C164.833 85.1309 164.984 85.5048 165.255 85.785L167.506 88.1066H194.406L197.232 85.808C197.402 85.6662 197.54 85.4885 197.634 85.2875C197.729 85.0864 197.778 84.8671 197.778 84.6449V80.2684C197.78 79.8762 197.626 79.4994 197.351 79.2202L196.092 77.933V46.0836L197.594 44.4838Z" fill="#FFBBA5"/>
<path d="M167.501 88.1058H194.401L197.222 85.8072C197.395 85.6663 197.533 85.4888 197.629 85.2877C197.724 85.0866 197.774 84.8667 197.774 84.6441V80.2676C197.775 79.8754 197.622 79.4986 197.346 79.2194L196.087 77.9322V46.0828L197.585 44.4646C197.884 44.1406 198.048 43.7148 198.045 43.2739V40.3363C198.045 39.8774 197.923 39.4268 197.69 39.0314C197.457 38.636 197.123 38.3103 196.722 38.0883L190.427 34.5898C189.885 33.4635 189.348 32.1901 188.81 31.0224C188.629 30.6382 188.582 30.2044 188.677 29.7903C188.931 28.6589 189.052 27.5019 189.04 26.3424C188.964 23.1253 187.92 20.0058 186.044 17.3917V10.7441H177.025V17.3043C175.116 19.9058 174.045 23.0285 173.956 26.2551C173.941 27.4 174.057 28.543 174.301 29.6616C174.413 30.1287 174.346 30.6209 174.113 31.0408L172.142 34.5898L166.169 38.0791C165.781 38.3051 165.458 38.6291 165.234 39.0187C165.01 39.4083 164.892 39.85 164.892 40.2995V43.3613C164.892 43.7615 165.03 44.1493 165.282 44.46L166.601 46.1012V77.923L165.291 79.2056C165.147 79.3443 165.032 79.5105 164.953 79.6945C164.874 79.8785 164.833 80.0765 164.832 80.2768V84.7407C164.833 85.1301 164.984 85.504 165.255 85.7842L167.501 88.1058Z" stroke="black" stroke-width="0.5" stroke-miterlimit="10"/>
<path d="M172.301 34.6035H190.586" stroke="black" stroke-width="0.5" stroke-miterlimit="10"/>
<path d="M168.086 45.6328H194.798" stroke="black" stroke-width="0.5" stroke-miterlimit="10"/>
<path d="M170.07 74.3516H192.808" stroke="black" stroke-width="0.5" stroke-miterlimit="10"/>
<path d="M187.001 5.55469H175.883V10.7449H187.001V5.55469Z" stroke="black" stroke-width="0.5" stroke-miterlimit="10"/>
<path d="M123.52 53.6267C123.638 52.3252 123.756 51.0231 123.872 49.7203L116.827 21.831V13.3751C116.827 12.6499 117.115 11.9543 117.628 11.4414C118.14 10.9286 118.836 10.6404 119.561 10.6404H123.162C123.309 10.6406 123.454 10.6063 123.585 10.5404C123.717 10.4745 123.831 10.3786 123.919 10.2606C124.007 10.1426 124.066 10.0057 124.091 9.8608C124.117 9.71589 124.108 9.56702 124.066 9.42609C123.826 8.62611 123.479 7.86201 123.036 7.15428C121.487 4.69266 119.191 3.66811 117.63 2.9612C115.921 2.20053 114.093 1.74184 112.227 1.60547H100.679C100.473 1.60547 100.277 1.68709 100.131 1.83237C99.9861 1.97766 99.9045 2.17471 99.9045 2.38017V1.70425L95.5136 1.75266C95.3378 1.7547 95.1699 1.826 95.0463 1.95109C94.9227 2.07618 94.8534 2.24497 94.8535 2.42085V5.90701C94.8533 6.0793 94.9197 6.24499 95.0387 6.36949C95.1578 6.494 95.3203 6.5677 95.4923 6.57519L99.9045 6.76887V6.34084C99.9044 6.4644 99.9339 6.58618 99.9905 6.69601C100.047 6.80585 100.129 6.90056 100.23 6.97222L99.9083 9.93546C99.633 10.7144 99.2177 11.4364 98.6829 12.0659C98.3164 12.4962 97.8968 12.8782 97.4341 13.2028C97.2405 14.1189 97.014 15.095 96.7139 16.1215C96.441 17.0511 96.1448 17.9226 95.8369 18.7322C95.8203 18.7717 95.8191 18.816 95.8333 18.8564C95.8476 18.8968 95.8764 18.9304 95.9141 18.9507C95.9518 18.9711 95.9957 18.9766 96.0373 18.9663C96.0789 18.9559 96.1151 18.9305 96.139 18.8949C97.3199 17.3164 98.3402 15.9471 99.3275 14.605C99.8774 13.8574 100.489 13.0168 101.637 12.4068C102.584 11.9194 103.641 11.6846 104.706 11.725H106.061C106.307 13.011 106.555 14.3009 106.779 15.5153V21.8426H106.893C106.473 22.6677 105.983 23.545 105.416 24.4573C105.184 24.831 104.95 25.1893 104.717 25.5341C104.444 25.9392 104.273 26.4051 104.221 26.8913C104.169 27.3774 104.236 27.8689 104.417 28.323C105.092 30.0069 105.629 31.7427 106.022 33.5135C106.76 36.8389 107.246 39.0333 106.409 41.6227C105.78 43.5459 104.638 45.0159 103.947 45.9049C102.867 47.2935 101.771 48.5001 100.954 49.1528C98.8632 50.2947 97.0224 51.8439 95.54 53.709C94.0576 55.5741 92.9635 57.7173 92.3224 60.0122C91.6813 62.3071 91.5061 64.7072 91.8071 67.0709C92.1081 69.4346 92.8793 71.7141 94.0752 73.7748C95.0797 75.4908 95.6139 77.4416 95.624 79.4301V83.9118C95.624 84.9571 96.039 85.9596 96.7779 86.6987C97.5167 87.4379 98.5188 87.8531 99.5637 87.8531H120.161C121.206 87.8531 122.208 87.4379 122.947 86.6987C123.685 85.9596 124.1 84.9571 124.1 83.9118V76.3894C124.104 75.6495 124.316 74.9254 124.71 74.2997V74.2997C126.679 71.1556 127.622 67.4771 127.408 63.7734C127.195 60.0697 125.836 56.5239 123.52 53.6267V53.6267Z" fill="#A9DBFF"/>
<path d="M118.986 48.9541C110.516 43.8282 99.372 46.6277 94.3109 55.1269C92.6833 57.8643 91.8156 60.986 91.7972 64.1702C91.7788 67.3544 92.6103 70.4859 94.2062 73.242C95.2127 74.9597 95.748 76.9124 95.758 78.9029V83.389C95.758 84.4354 96.1739 85.4389 96.9143 86.1787C97.6546 86.9186 98.6587 87.3343 99.7057 87.3343H120.348C121.395 87.3343 122.399 86.9186 123.139 86.1787C123.879 85.4389 124.295 84.4354 124.295 83.389V75.8592C124.299 75.1185 124.511 74.3937 124.906 73.7673V73.7673C126.166 71.7547 127.012 69.5118 127.396 67.1693C127.78 64.8267 127.694 62.4313 127.143 60.1223C126.592 57.8132 125.587 55.6368 124.187 53.7195C122.786 51.8022 121.018 50.1823 118.986 48.9541V48.9541Z" stroke="black" stroke-width="0.5" stroke-miterlimit="10"/>
<path d="M123.695 53.0852C123.814 51.7824 123.932 50.479 124.048 49.1749L116.989 21.2578H107.045C106.624 22.0837 106.133 22.9619 105.565 23.875C105.332 24.2492 105.098 24.6079 104.865 24.9529C104.591 25.3584 104.42 25.8248 104.367 26.3115C104.315 26.7981 104.383 27.2901 104.564 27.7447C105.24 29.4302 105.778 31.1678 106.172 32.9403C106.911 36.2691 107.398 38.4656 106.56 41.0576C105.93 42.9827 104.785 44.4542 104.093 45.344C103.01 46.7341 101.912 47.9419 101.094 48.5952" stroke="black" stroke-width="0.5" stroke-miterlimit="10"/>
<path d="M116.988 14.9238H106.93V21.2575H116.988V14.9238Z" stroke="black" stroke-width="0.5" stroke-miterlimit="10"/>
<path d="M116.992 14.9236V12.7911C116.992 12.0651 117.28 11.3688 117.794 10.8554C118.307 10.3421 119.004 10.0537 119.731 10.0537H123.343C123.49 10.0538 123.635 10.0195 123.767 9.95353C123.899 9.88752 124.013 9.79162 124.101 9.6735C124.189 9.55537 124.249 9.41831 124.274 9.27325C124.3 9.1282 124.291 8.97918 124.249 8.83811C124.008 8.03733 123.661 7.27248 123.217 6.56404C121.665 4.09997 119.366 3.0744 117.802 2.36678C116.089 1.60231 114.257 1.13989 112.386 1H100.815C100.609 1 100.412 1.08171 100.266 1.22714C100.121 1.37257 100.039 1.56981 100.039 1.77548V5.73427C100.039 5.90206 100.094 6.06533 100.194 6.19956C100.295 6.33379 100.437 6.43175 100.598 6.47873L104.369 7.57408C104.74 7.68172 105.074 7.88991 105.335 8.17562C105.595 8.46132 105.771 8.8134 105.843 9.19289C106.202 11.0889 106.594 13.0955 106.933 14.9256" stroke="black" stroke-width="0.5" stroke-miterlimit="10"/>
<path d="M100.364 6.36328L100.038 9.34692C99.7624 10.1266 99.3463 10.8493 98.8104 11.4795C98.4432 11.9102 98.0228 12.2926 97.5592 12.6175C97.3652 13.5325 97.1382 14.5116 96.8375 15.5391C96.564 16.4697 96.2672 17.3421 95.9588 18.1524C95.9422 18.192 95.9409 18.2363 95.9552 18.2767C95.9695 18.3172 95.9983 18.3509 96.0361 18.3712C96.0739 18.3915 96.1179 18.3971 96.1596 18.3867C96.2012 18.3764 96.2375 18.3509 96.2614 18.3153C97.4447 16.7353 98.467 15.3646 99.4563 14.0211C100.007 13.2728 100.62 12.4294 101.771 11.8207C102.719 11.332 103.779 11.0969 104.845 11.1383H106.213" stroke="black" stroke-width="0.5" stroke-miterlimit="10"/>
<path d="M100.038 6.16148L95.6167 5.96761C95.4445 5.95964 95.2819 5.88573 95.1627 5.7612C95.0435 5.63667 94.9769 5.47108 94.9766 5.29876V1.80913C94.9771 1.63341 95.0467 1.46494 95.1705 1.34014C95.2943 1.21535 95.4622 1.14425 95.6381 1.14222L100.038 1.09375V6.16148Z" stroke="black" stroke-width="0.5" stroke-miterlimit="10"/>
<path d="M155.182 39.1662C155.182 38.8117 155.114 38.4606 154.983 38.1331C154.851 37.8055 154.659 37.5079 154.416 37.2572C154.172 37.0065 153.884 36.8077 153.566 36.6722C153.248 36.5367 152.908 36.467 152.564 36.4673H140.199L147.962 36.4036C151.952 34.5696 154.452 32.3658 154.025 30.7465C153.428 28.4917 147.359 28.2367 140.471 30.1748C134.813 31.7686 130.363 34.3464 129.283 36.4673H119.676C118.982 36.4673 118.316 36.7517 117.825 37.2578C117.334 37.7639 117.059 38.4504 117.059 39.1662V39.1662C117.059 39.8819 117.335 40.568 117.826 41.074C118.316 41.58 118.982 41.8646 119.676 41.8651V82.6676C118.982 82.6676 118.316 82.952 117.825 83.4581C117.334 83.9643 117.059 84.6507 117.059 85.3665C117.059 86.0823 117.334 86.7688 117.825 87.2749C118.316 87.7811 118.982 88.0654 119.676 88.0654H152.558C153.252 88.0654 153.918 87.7811 154.409 87.2749C154.9 86.7688 155.175 86.0823 155.175 85.3665C155.175 84.6507 154.9 83.9643 154.409 83.4581C153.918 82.952 153.252 82.6676 152.558 82.6676V41.8651C152.902 41.866 153.243 41.7968 153.562 41.6615C153.88 41.5263 154.169 41.3276 154.413 41.0769C154.656 40.8262 154.85 40.5284 154.982 40.2005C155.114 39.8727 155.182 39.5212 155.182 39.1662V39.1662Z" fill="#E4FFA9"/>
<path d="M152.355 82.6562H119.473C118.027 82.6562 116.855 83.8646 116.855 85.3552C116.855 86.8457 118.027 88.0541 119.473 88.0541H152.355C153.8 88.0541 154.972 86.8457 154.972 85.3552C154.972 83.8646 153.8 82.6562 152.355 82.6562Z" stroke="black" stroke-width="0.5" stroke-miterlimit="10"/>
<path d="M152.355 36.4668H119.473C118.027 36.4668 116.855 37.6751 116.855 39.1657C116.855 40.6563 118.027 41.8646 119.473 41.8646H152.355C153.8 41.8646 154.972 40.6563 154.972 39.1657C154.972 37.6751 153.8 36.4668 152.355 36.4668Z" stroke="black" stroke-width="0.5" stroke-miterlimit="10"/>
<path d="M152.355 41.8652H119.473V82.6592H152.355V41.8652Z" stroke="black" stroke-width="0.5" stroke-miterlimit="10"/>
<path d="M152.49 47.6641H135.845C135.651 47.6641 135.458 47.7035 135.279 47.7802C135.099 47.857 134.937 47.9694 134.799 48.1111C134.662 48.2528 134.553 48.421 134.479 48.6061C134.405 48.7913 134.367 48.9896 134.367 49.1899V77.6964C134.367 77.8965 134.405 78.0946 134.48 78.2795C134.554 78.4643 134.663 78.6323 134.8 78.7738C134.937 78.9153 135.1 79.0275 135.279 79.1041C135.459 79.1807 135.651 79.2201 135.845 79.2201H152.294" stroke="black" stroke-width="0.5" stroke-miterlimit="10"/>
<path d="M129.043 36.558C130.038 34.4201 134.537 31.7913 140.276 30.1826C147.166 28.2445 153.235 28.4995 153.83 30.7543C154.259 32.3715 151.757 34.5795 147.768 36.4114" stroke="black" stroke-width="0.5" stroke-miterlimit="10"/>
<path d="M225.256 56.1539C225.164 54.3299 225.035 51.6851 223.332 49.4415C221.878 47.5445 219.999 46.8605 218.066 46.1674C215.863 45.3574 213.477 45.1649 211.171 45.6111V45.6658C209.342 44.3544 207.173 43.5886 204.919 43.4588V38.8987C204.925 38.553 204.863 38.2096 204.734 37.888C204.606 37.5664 204.415 37.2731 204.172 37.0248C203.929 36.7766 203.639 36.5782 203.319 36.4413C202.998 36.3043 202.654 36.2313 202.305 36.2266H200.988V38.2239H202.305C202.502 38.211 202.696 38.274 202.847 38.3998C202.998 38.5256 203.094 38.7044 203.115 38.8987V43.5135C200.746 43.743 198.502 44.6706 196.671 46.1765V45.9121C194.65 45.394 192.528 45.4192 190.521 45.985C188.619 46.6363 186.966 47.8529 185.789 49.4689C184.076 51.7124 183.947 54.3755 183.864 56.1812C183.864 56.92 183.782 58.7075 185.034 63.7144C185.227 64.4714 185.715 66.3866 187.335 71.4117C189.766 78.8993 189.434 76.9749 190.861 81.4985C191.45 83.1507 192.142 84.765 192.933 86.3321C193.253 87.1837 193.767 87.9512 194.433 88.5756C195.362 89.3139 196.543 89.6669 197.729 89.5606C198.701 89.4737 199.628 89.1129 200.399 88.5209C200.808 89.172 201.375 89.7105 202.049 90.0867C202.724 90.4629 203.483 90.6646 204.257 90.6733C205.11 90.6648 205.944 90.4215 206.666 89.9706C207.388 89.5196 207.969 88.8788 208.344 88.1196V88.2473C209.24 88.9466 210.302 89.408 211.428 89.588C212.611 89.6919 213.789 89.339 214.715 88.603C215.385 87.9793 215.901 87.2118 216.225 86.3595C217.011 84.7914 217.7 83.1772 218.287 81.5259C219.723 76.9658 219.392 78.9266 221.813 71.4391C223.443 66.4139 223.931 64.4987 224.115 63.7418C225.33 58.6801 225.293 56.8926 225.256 56.1539Z" fill="#ABFFA9"/>
<path d="M216.576 56.4849C216.576 49.2613 211.085 43.3984 204.241 43.3984C197.396 43.3984 191.906 49.2613 191.906 56.4849C191.906 57.2901 191.977 58.0937 192.117 58.8867C192.281 60.3478 192.574 61.9734 193.032 64.1012C194.047 69.133 194.862 69.0052 196.006 74.4845C196.921 78.8497 196.921 81.0141 198.494 84.7492C198.958 85.8364 199.493 86.8919 200.096 87.9089C200.433 88.709 200.994 89.3951 201.711 89.885C202.429 90.3749 203.273 90.6478 204.143 90.6709C205.012 90.694 205.869 90.4664 206.612 90.0154C207.355 89.5644 207.952 88.9091 208.331 88.1281C208.98 87.0417 209.555 85.9129 210.051 84.7492C211.653 81.0141 211.607 78.8497 212.54 74.4845C213.721 69.0052 214.499 69.133 215.523 64.1012C215.99 61.7451 216.301 60.01 216.438 58.4392C216.53 57.7918 216.576 57.1388 216.576 56.4849V56.4849Z" stroke="#1D1D1B" stroke-width="0.5" stroke-linecap="round" stroke-linejoin="round"/>
<path d="M211.264 45.6967C213.557 45.2522 215.929 45.444 218.12 46.251C220.043 46.9416 221.91 47.6231 223.357 49.5132C225.05 51.7486 225.187 54.4019 225.27 56.2011C225.27 56.9371 225.343 58.7182 224.098 63.7068C223.915 64.461 223.43 66.3693 221.809 71.3761C219.402 78.8364 219.731 76.9191 218.303 81.4262C217.719 83.0715 217.035 84.6798 216.253 86.2422C215.931 87.0914 215.417 87.8561 214.751 88.4775C213.83 89.2108 212.659 89.5624 211.483 89.4589C210.365 89.2821 209.312 88.822 208.426 88.1231" stroke="#1D1D1B" stroke-width="0.5" stroke-linecap="round" stroke-linejoin="round"/>
<path d="M196.65 45.8335C194.633 45.3157 192.514 45.3409 190.51 45.9064C188.613 46.56 186.963 47.7754 185.785 49.3884C184.085 51.6307 183.947 54.2924 183.864 56.0972C183.864 56.8355 183.791 58.6221 185.032 63.6264C185.225 64.3829 185.712 66.2971 187.339 71.3196C189.756 78.8032 189.425 76.8799 190.859 81.401C191.446 83.0515 192.133 84.6649 192.918 86.2321C193.241 87.084 193.757 87.8511 194.426 88.4744C195.351 89.21 196.526 89.5627 197.707 89.4589C198.681 89.3732 199.609 89.0126 200.382 88.4197" stroke="#1D1D1B" stroke-width="0.5" stroke-linecap="round" stroke-linejoin="round"/>
<path d="M204.838 43.3989H203.027V38.2654C203.004 38.0699 202.909 37.8906 202.761 37.7639C202.613 37.6372 202.423 37.5726 202.23 37.5834H200.926V35.5742H202.23C202.92 35.5863 203.577 35.8764 204.058 36.3809C204.538 36.8853 204.802 37.563 204.793 38.2654L204.838 43.3989Z" stroke="#1D1D1B" stroke-width="0.5" stroke-linecap="round" stroke-linejoin="round"/>
<path d="M148.969 83.2729L143.809 64.5137H179.991L175.246 83.1788C174.682 85.3952 172.687 86.9468 170.4 86.9468H153.79C151.539 86.9468 149.566 85.443 148.969 83.2729Z" fill="#A9FFF5"/>
<path d="M151.285 86.9473H172.753V86.9473C172.753 87.68 172.159 88.274 171.427 88.274H152.612C151.879 88.274 151.285 87.68 151.285 86.9473V86.9473Z" fill="#A9FFF5"/>
<path d="M182.523 64.5137L141.517 64.5137V64.5137C141.517 63.781 142.111 63.187 142.843 63.187L181.197 63.187C181.929 63.187 182.523 63.781 182.523 64.5137V64.5137Z" fill="#A9FFF5"/>
<path d="M148.969 83.2729L143.809 64.5137H179.991L175.246 83.1788C174.682 85.3952 172.687 86.9468 170.4 86.9468H153.79C151.539 86.9468 149.566 85.443 148.969 83.2729Z" stroke="black" stroke-width="0.5"/>
<path d="M151.285 86.9473H172.753V86.9473C172.753 87.68 172.159 88.274 171.427 88.274H152.612C151.879 88.274 151.285 87.68 151.285 86.9473V86.9473Z" stroke="black" stroke-width="0.5"/>
<path d="M182.523 64.5137L141.517 64.5137V64.5137C141.517 63.781 142.111 63.187 142.843 63.187L181.197 63.187C181.929 63.187 182.523 63.781 182.523 64.5137V64.5137Z" stroke="black" stroke-width="0.5"/>
<path d="M5.36328 87.7891H28.8352L52.8827 62.9102H30.2422L5.36328 87.7891Z" fill="#A9FFF5"/>
<path d="M55.0266 87.8531L28.7695 87.7891L52.881 62.9102C53.3506 63.801 55.603 65.685 57.14 73.2186C58.677 80.7522 56.0726 86.7502 55.0266 87.8531Z" fill="#A9FFF5"/>
<ellipse cx="31.2651" cy="68.928" rx="2.11055" ry="2.23847" transform="rotate(22.8899 31.2651 68.928)" fill="#A9FFF5"/>
<ellipse cx="32.5152" cy="73.9801" rx="1.12785" ry="1.1962" transform="rotate(22.8899 32.5152 73.9801)" fill="#A9FFF5"/>
<path d="M5.36328 87.7891H28.8352L52.8827 62.9102H30.2422L5.36328 87.7891Z" stroke="black" stroke-width="0.5"/>
<path d="M55.0266 87.8531L28.7695 87.7891L52.881 62.9102C53.3506 63.801 55.603 65.685 57.14 73.2186C58.677 80.7522 56.0726 86.7502 55.0266 87.8531Z" stroke="black" stroke-width="0.5"/>
<ellipse cx="31.2651" cy="68.928" rx="2.11055" ry="2.23847" transform="rotate(22.8899 31.2651 68.928)" stroke="black" stroke-width="0.5"/>
<ellipse cx="32.5113" cy="73.9801" rx="1.12785" ry="1.1962" transform="rotate(22.8899 32.5113 73.9801)" stroke="black" stroke-width="0.5"/>
<path d="M95.4797 70.5708V41.2616L97.5645 39.1561V26.1997L93.6931 22.3306L85.732 20.727V16.8288H86.8235C86.8235 16.3524 86.6342 15.8955 86.2971 15.5586C85.96 15.2217 85.5028 15.0324 85.0261 15.0324H85.1644C85.6932 15.0324 86.2003 14.8225 86.5743 14.4488C86.9482 14.0751 87.1583 13.5682 87.1583 13.0397V4.01058C87.1583 3.74907 87.1067 3.49012 87.0064 3.24855C86.9062 3.00698 86.7593 2.78755 86.5741 2.60279C86.3889 2.41804 86.169 2.2716 85.9271 2.17185C85.6852 2.07211 85.426 2.02101 85.1644 2.02149H75.4276C75.1659 2.02101 74.9067 2.07211 74.6648 2.17185C74.4229 2.2716 74.2031 2.41804 74.0179 2.60279C73.8327 2.78755 73.6858 3.00698 73.5855 3.24855C73.4853 3.49012 73.4337 3.74907 73.4337 4.01058V13.0361C73.4337 13.5646 73.6437 14.0714 74.0177 14.4451C74.3916 14.8189 74.8988 15.0288 75.4276 15.0288H75.5659C75.3298 15.0293 75.0962 15.0762 74.8783 15.1669C74.6604 15.2576 74.4625 15.3904 74.2959 15.5575C74.1294 15.7247 73.9974 15.923 73.9075 16.1411C73.8176 16.3592 73.7716 16.5929 73.772 16.8288H74.6926V20.7306L66.9243 22.0288L62.9219 26.1997V39.1561L65.0541 41.2616V70.5708L63.0565 72.6762H62.991V84.2945L66.8952 88.3345H93.5658L97.6082 84.2945V72.6762H97.6737L95.4797 70.5708Z" fill="#E8E8E8"/>
<path d="M95.2761 69.8469V40.5856L97.3614 38.48V25.5484L93.4892 21.682L85.5263 20.0846V16.1855H74.4847V20.0846L66.7147 21.3807L62.7188 25.5484V38.48L64.8514 40.5856V69.8469L62.8534 71.9489H62.7879V83.5481L66.6929 87.5779H93.3618L97.4051 83.5481V71.9489H97.4706L95.2761 69.8469Z" stroke="#1E1E1E" stroke-width="0.5" stroke-miterlimit="10"/>
<path d="M84.8914 1.26562H75.1069C74.0016 1.26562 73.1055 2.15924 73.1055 3.26157V12.3016C73.1055 13.4039 74.0016 14.2976 75.1069 14.2976H84.8914C85.9968 14.2976 86.8929 13.4039 86.8929 12.3016V3.26157C86.8929 2.15924 85.9968 1.26562 84.8914 1.26562Z" stroke="#1E1E1E" stroke-width="0.5" stroke-miterlimit="10"/>
<path d="M63.8516 37.9595L64.066 38.1335C64.2007 38.2403 64.3617 38.3254 64.5396 38.3836C64.7174 38.4419 64.9085 38.4722 65.1017 38.4729H95.0178C95.211 38.4722 95.4021 38.4419 95.5799 38.3836C95.7578 38.3254 95.9188 38.2403 96.0535 38.1335L96.337 37.9062" stroke="#1E1E1E" stroke-width="0.5" stroke-miterlimit="10" stroke-linecap="round"/>
<path d="M66.3086 25.2527C70.8583 25.0009 75.6052 24.875 80.5493 24.875C85.099 24.875 89.4808 25.0009 93.6946 25.2527" stroke="#1E1E1E" stroke-width="0.5" stroke-miterlimit="10"/>
<path d="M65.9297 40.3613H94.26" stroke="#1E1E1E" stroke-width="0.5" stroke-miterlimit="10" stroke-linecap="round"/>
<path d="M65.9297 69.8242H94.26" stroke="#1E1E1E" stroke-width="0.5" stroke-miterlimit="10" stroke-linecap="round"/>
<path d="M86.5156 16.1855H73.4837C73.4837 15.6847 73.6722 15.2043 74.0079 14.8501C74.3435 14.4959 74.7987 14.2969 75.2733 14.2969L84.7115 14.2969C84.9477 14.2949 85.182 14.3423 85.4008 14.4363C85.6196 14.5303 85.8186 14.6691 85.9863 14.8446C86.1541 15.0202 86.2872 15.2291 86.378 15.4592C86.4689 15.6894 86.5156 15.9362 86.5156 16.1855V16.1855Z" stroke="#1E1E1E" stroke-width="0.5" stroke-miterlimit="10"/>
<path d="M65.9297 85.3125C68.9615 85.6174 72.1535 85.8478 75.4947 85.9683C81.6277 86.1924 87.7692 86.0385 93.8823 85.5075" stroke="#1E1E1E" stroke-width="0.5" stroke-miterlimit="10" stroke-linecap="round"/>
<path d="M79.8888 45.7628C79.891 43.0793 79.0538 40.4624 77.4946 38.2786C75.9354 36.0949 73.7323 34.4537 71.194 33.585C68.6556 32.7163 65.9092 32.6637 63.3395 33.4344C60.7697 34.2052 58.5054 35.7607 56.8637 37.8831C55.1143 36.1686 52.8194 35.1216 50.3781 34.9243C47.9369 34.727 45.5037 35.3917 43.5018 36.803C41.4998 38.2143 40.0557 40.2828 39.4205 42.6488C38.7854 45.0149 38.9994 47.5287 40.0254 49.7533C38.9327 50.2598 37.9525 50.9801 37.1425 51.8716C36.3326 52.7631 35.7092 53.8077 35.3091 54.9439C34.9091 56.0802 34.7406 57.285 34.8134 58.4875C34.8862 59.6899 35.1989 60.8656 35.7332 61.9452C36.2674 63.0249 37.0123 63.9866 37.9239 64.7738C38.8356 65.5609 39.8955 66.1576 41.0413 66.5285C42.1871 66.8995 43.3956 67.0372 44.5955 66.9337C45.7953 66.8302 46.9623 66.4874 48.0277 65.9256C49.1581 67.3517 50.152 68.8808 50.9964 70.4929C52.4156 73.1996 53.3867 76.1187 53.8716 79.1363C54.3332 82.1255 54.291 85.1709 53.747 88.1461H60.7597C60.6153 86.6193 60.6153 85.0823 60.7597 83.5555C61.3931 77.8091 63.7788 72.3969 67.5932 68.0534C69.3434 68.7225 71.2699 68.7717 73.052 68.1928C74.834 67.6138 76.364 66.4417 77.3871 64.8716C78.4102 63.3015 78.8646 61.4282 78.6747 59.5637C78.4848 57.6991 77.6621 55.956 76.3435 54.6245C78.6236 52.2384 79.8938 49.0634 79.8888 45.7628V45.7628ZM52.8509 64.5305C52.4691 63.8213 52.0717 63.1744 51.6665 62.5743L51.7132 62.4963C53.0092 64.0534 54.7757 65.1475 56.7468 65.6139C56.2715 67.4065 55.7884 69.2069 55.3131 71.0073C54.7962 68.7447 53.9675 66.565 52.8509 64.5305V64.5305ZM59.8636 74.1716L59.6221 65.8087C60.9766 65.6923 62.2885 65.277 63.4635 64.5929C63.6376 64.8854 63.8302 65.1666 64.0401 65.4346L59.8636 74.1716Z" fill="#ABFFA9"/>
<path d="M79.6855 45.7066C79.6876 43.0349 78.8519 40.4293 77.2953 38.2551C75.7387 36.0809 73.5393 34.4469 71.0052 33.582C68.471 32.7171 65.7291 32.6647 63.1637 33.4321C60.5982 34.1995 58.3376 35.7482 56.6987 37.8613C54.9541 36.1488 52.6622 35.1017 50.2227 34.9026C47.7833 34.7036 45.3512 35.3653 43.3508 36.7723C41.3505 38.1792 39.9089 40.2422 39.2775 42.6011C38.6461 44.9601 38.865 47.4653 39.8961 49.6797C38.638 50.2931 37.5408 51.1908 36.6916 52.3014C35.8424 53.4121 35.2647 54.7051 35.0044 56.0777C34.7442 57.4502 34.8086 58.8644 35.1925 60.2077C35.5764 61.551 36.2692 62.7865 37.2159 63.8158C38.1625 64.8451 39.3368 65.6399 40.6455 66.1369C41.9541 66.6339 43.361 66.8195 44.7541 66.6788C46.1473 66.5382 47.4883 66.0752 48.6706 65.3267C49.8529 64.5782 50.8438 63.5649 51.5645 62.3672C52.9615 64.0481 54.9109 65.1803 57.0659 65.5626C59.2209 65.9448 61.4419 65.5522 63.3341 64.4547C63.9255 65.4508 64.7226 66.3101 65.6724 66.9754C66.6223 67.6408 67.7031 68.0969 68.8431 68.3137C69.9832 68.5305 71.1564 68.5029 72.285 68.2327C73.4136 67.9625 74.4716 67.456 75.3889 66.7467C76.3062 66.0374 77.0617 65.1415 77.6054 64.1187C78.1491 63.0958 78.4684 61.9693 78.5422 60.8138C78.616 59.6584 78.4427 58.5006 78.0336 57.4171C77.6245 56.3337 76.989 55.3494 76.1694 54.5297C78.4371 52.1504 79.6967 48.9897 79.6855 45.7066Z" stroke="#1D1D1B" stroke-width="0.5" stroke-linecap="round" stroke-linejoin="round"/>
<path d="M56.5672 65.6969L55.0861 71.1255C54.5499 68.879 53.7034 66.7137 52.5698 64.6887C52.1716 63.983 51.7734 63.3393 51.3594 62.7422" stroke="#1D1D1B" stroke-width="0.5" stroke-linecap="round" stroke-linejoin="round"/>
<path d="M63.9359 65.5371L59.8533 74.1744L59.6172 65.9069" stroke="#1D1D1B" stroke-width="0.5" stroke-linecap="round" stroke-linejoin="round"/>
<path d="M47.8008 66.0449C48.9369 67.4632 49.9356 68.9836 50.7838 70.5861C52.2149 73.2775 53.1957 76.1797 53.6884 79.1802C54.1095 81.8948 54.1095 84.6568 53.6884 87.3713C53.6736 87.4679 53.6802 87.5666 53.7078 87.6604C53.7354 87.7542 53.7834 87.841 53.8484 87.9147C53.9134 87.9884 53.9937 88.0473 54.084 88.0873C54.1743 88.1272 54.2724 88.1474 54.3713 88.1463H59.8664C59.9595 88.1464 60.0516 88.1278 60.1372 88.0915C60.2227 88.0553 60.2998 88.0021 60.3637 87.9353C60.4277 87.8686 60.4771 87.7896 60.5091 87.7033C60.541 87.6169 60.5547 87.5251 60.5494 87.4333C60.4695 86.1422 60.4879 84.847 60.6043 83.5586C61.2459 77.846 63.649 72.4656 67.4888 68.145" stroke="#1D1D1B" stroke-width="0.5" stroke-linecap="round" stroke-linejoin="round"/>
<path d="M48.0577 38.4824C46.571 38.7291 45.2019 39.4528 44.1521 40.547C42.9976 41.7816 42.3114 43.3899 42.2148 45.0874" stroke="#1D1D1B" stroke-width="0.5" stroke-linecap="round" stroke-linejoin="round"/>
</svg>
